{"glyphs":{"0":{"ha":1250,"x_min":83,"x_max":1166,"o":"m 328 1032 l 328 1032 q 420 1033 335 1032 q 631 1034 505 1034 l 926 1034 l 942 1031 q 1063 978 1008 1018 q 1085 957 1071 970 q 1107 932 1099 943 q 1160 827 1146 885 q 1161 822 1161 823 q 1164 807 1162 814 q 1166 787 1165 800 q 1166 748 1166 774 q 1166 676 1166 722 q 1166 652 1166 665 q 1166 563 1166 596 q 1166 514 1166 530 q 1165 489 1166 497 q 1162 472 1164 481 q 1084 332 1146 390 q 940 258 1026 273 l 924 256 l 632 256 q 486 254 543 254 q 397 255 429 254 q 347 256 364 256 q 323 256 330 256 q 307 258 315 257 q 307 260 307 258 q 147 351 211 277 q 86 482 100 407 l 83 498 l 83 643 l 83 787 l 86 803 q 163 954 100 892 q 328 1032 231 1021 m 699 774 l 699 774 q 664 772 681 779 q 637 747 647 765 q 635 742 636 745 q 635 736 635 739 q 635 726 635 733 q 635 718 635 721 q 635 712 635 714 q 637 707 636 710 q 660 684 646 692 q 690 679 673 676 q 725 703 714 684 q 729 745 736 722 q 716 762 725 754 q 699 774 708 770 m 854 728 l 854 728 l 854 777 l 842 777 l 829 777 l 829 754 l 828 733 l 815 754 l 802 775 l 789 775 l 775 775 l 775 726 l 775 679 l 789 679 l 803 679 l 803 700 l 803 722 l 817 701 l 831 679 l 843 679 l 854 679 l 854 728 m 228 774 l 228 774 q 222 774 225 774 q 215 775 220 775 q 200 775 210 775 l 179 775 l 179 726 l 179 679 l 192 679 l 205 679 l 205 694 l 205 710 l 215 711 q 224 712 221 711 q 231 714 228 713 q 249 745 250 725 q 228 774 245 765 m 353 762 l 353 762 l 353 775 l 322 775 l 290 775 l 290 726 l 290 679 l 322 679 l 353 679 l 353 692 l 353 704 l 335 704 l 318 704 l 318 708 l 318 714 l 334 714 l 349 714 l 349 726 l 349 739 l 334 739 l 318 739 l 318 745 l 318 749 l 335 749 l 353 749 l 353 762 m 454 771 l 454 771 l 449 775 l 424 775 l 400 775 l 400 728 l 400 679 l 412 679 l 427 679 l 427 694 q 427 706 427 703 q 428 710 427 710 q 432 706 429 710 q 439 694 435 701 l 449 679 l 464 679 q 474 679 469 679 q 479 679 479 679 q 476 685 479 679 q 468 697 472 690 l 457 714 l 461 718 q 465 723 463 721 q 468 728 467 725 q 471 733 471 730 q 471 742 471 736 q 471 751 471 747 q 469 755 471 754 q 454 771 464 765 m 567 774 l 567 774 q 552 775 561 775 q 538 772 543 775 q 515 749 517 765 q 516 738 515 742 q 521 729 517 733 q 549 717 528 721 q 560 714 557 715 q 566 710 564 713 q 566 707 566 708 q 564 705 566 707 q 553 703 559 703 q 543 708 546 704 l 541 711 l 533 710 q 532 710 533 710 q 526 707 529 708 q 521 707 522 707 q 515 704 515 705 q 517 697 514 703 q 541 679 524 684 q 576 684 558 675 q 591 711 595 692 q 558 739 591 733 q 545 749 538 743 q 553 751 547 751 q 561 747 558 751 l 564 745 l 578 747 q 585 749 582 749 q 588 749 587 749 q 589 751 589 750 q 589 753 590 751 q 581 765 587 760 q 567 774 575 771 m 957 768 l 957 768 l 954 775 l 939 775 l 925 775 l 909 728 q 899 694 904 708 q 895 679 895 681 q 899 679 895 679 q 908 679 903 679 l 922 679 l 924 685 l 925 690 l 940 689 l 954 689 l 956 684 l 957 679 l 971 679 q 982 679 979 679 q 985 681 985 679 q 982 688 985 681 q 971 722 978 700 q 962 748 966 736 q 957 766 958 761 q 957 768 957 768 m 1050 741 l 1050 741 l 1050 775 l 1038 775 l 1023 775 l 1023 726 l 1023 679 l 1051 679 l 1079 679 l 1079 692 l 1079 704 l 1065 704 l 1050 704 l 1050 741 m 685 607 l 685 607 q 643 596 661 611 q 627 552 624 576 q 654 515 631 528 q 661 512 659 513 q 666 511 663 511 q 676 511 669 511 q 686 511 682 511 q 691 512 689 511 q 697 515 693 513 q 711 525 704 518 q 721 538 718 532 q 725 568 728 553 q 710 595 721 583 q 685 607 699 604 m 848 559 l 848 559 l 848 608 l 835 608 q 822 607 821 608 q 821 600 821 606 q 821 586 821 595 l 821 567 l 808 586 l 794 607 l 782 607 l 770 607 l 770 558 l 770 511 l 783 511 l 796 511 l 796 532 l 798 554 l 811 532 l 823 511 l 836 511 l 848 511 l 848 559 m 231 578 l 231 578 l 231 607 l 216 607 l 204 607 l 204 572 l 204 538 l 208 532 q 217 520 211 525 q 229 513 222 515 q 243 511 235 511 q 258 513 252 511 q 272 522 265 515 q 279 534 278 528 q 281 541 281 538 q 282 551 282 545 q 282 574 282 558 l 282 607 l 269 607 l 256 607 l 256 578 q 256 553 256 561 q 254 543 256 546 q 250 538 253 541 q 242 536 245 536 q 235 539 239 536 q 232 544 233 541 q 231 554 231 547 q 231 578 231 561 m 380 606 l 380 606 q 366 607 375 607 q 350 606 357 607 q 340 600 345 604 q 332 591 335 596 q 328 587 329 590 q 328 581 328 585 q 329 569 328 572 q 335 561 330 566 q 345 554 339 557 q 363 549 351 551 q 378 542 378 546 q 373 536 378 538 q 363 535 368 534 q 355 541 358 536 l 353 543 l 340 541 q 331 538 335 539 q 326 538 328 538 q 327 534 326 536 q 330 528 328 532 q 334 522 332 525 q 363 511 343 511 q 400 525 389 510 q 404 530 403 528 q 404 536 404 533 q 375 571 407 564 q 357 576 361 574 q 357 582 354 578 q 360 583 358 583 q 366 583 363 583 q 371 583 370 583 q 374 579 372 582 l 376 576 l 389 579 q 398 581 395 581 q 401 582 401 582 q 402 585 403 583 q 400 589 401 586 q 380 606 393 602 m 511 595 l 511 595 l 511 607 l 481 607 l 449 607 l 449 558 l 449 511 l 481 511 l 511 511 l 511 524 l 511 536 l 493 536 l 476 536 l 476 542 l 476 546 l 492 546 l 507 546 l 507 558 l 507 571 l 492 571 l 476 571 l 476 576 l 476 582 l 493 582 l 511 582 l 511 595 m 922 572 l 922 572 l 922 607 l 909 607 l 896 607 l 896 558 l 896 511 l 924 511 l 951 511 l 951 524 l 951 536 l 936 536 l 922 536 l 922 572 m 1002 595 l 1002 595 l 994 607 l 979 607 l 962 607 l 965 604 q 971 594 966 602 q 982 576 975 586 l 996 551 l 996 530 l 996 511 l 1008 511 l 1022 511 l 1022 530 l 1022 551 l 1036 576 q 1048 595 1043 587 q 1053 604 1053 603 l 1054 607 l 1039 607 l 1023 607 l 1017 595 q 1012 585 1014 589 q 1008 582 1010 582 q 1006 585 1008 582 q 1002 595 1004 589 m 673 749 l 673 749 q 699 743 689 754 q 703 717 708 732 q 681 704 694 703 q 661 721 667 705 q 663 737 660 729 q 673 749 667 745 m 205 742 l 205 742 l 205 749 l 212 749 q 220 748 218 749 q 221 743 221 747 q 219 738 221 739 q 212 734 216 736 l 205 734 l 205 742 m 427 742 l 427 742 l 427 749 l 435 749 q 443 748 441 749 q 444 742 444 747 q 433 734 444 734 l 427 734 l 427 742 m 937 729 l 937 729 q 939 736 937 733 q 940 737 940 739 q 942 732 940 737 q 943 726 943 729 l 947 714 l 940 714 l 933 714 l 933 718 q 934 721 933 718 q 936 728 935 724 q 937 729 936 729 m 667 581 l 667 581 q 685 580 676 585 q 697 566 694 575 q 693 545 700 553 q 675 536 686 536 q 657 547 664 536 q 655 567 652 557 q 667 581 659 576 m 195 170 l 195 170 q 212 171 203 172 q 227 165 221 170 q 231 161 229 164 q 235 155 233 158 q 236 151 236 153 q 235 151 236 151 q 232 150 235 150 q 229 151 231 150 q 227 154 228 151 q 209 163 221 163 q 191 155 197 164 q 183 135 182 149 q 193 115 184 121 q 214 113 201 110 q 225 120 221 115 q 229 129 229 125 l 229 132 l 220 132 l 210 132 l 210 136 l 210 140 l 224 140 l 236 140 l 236 122 l 236 106 l 233 106 q 229 107 229 106 q 232 114 229 109 q 233 117 233 117 q 232 118 233 118 q 231 117 232 118 q 228 114 229 115 q 207 104 221 104 q 179 121 189 104 q 177 125 178 123 q 176 129 176 126 q 176 138 176 132 q 176 146 176 143 q 177 150 176 149 q 179 154 178 151 q 195 170 184 165 m 452 168 l 452 168 q 461 171 454 171 l 468 171 l 468 167 l 468 163 l 463 163 q 457 162 458 163 q 454 160 456 161 q 454 156 454 158 q 453 153 453 154 l 453 150 l 458 150 l 464 150 l 464 146 l 464 142 l 457 142 q 451 142 453 142 q 447 140 449 142 q 448 140 447 140 q 450 138 449 139 q 452 135 452 136 q 453 131 453 134 q 453 119 453 127 l 453 106 l 449 106 l 444 106 l 444 123 l 444 142 l 441 142 q 439 142 440 142 q 439 146 439 143 q 439 149 439 149 q 441 150 440 150 q 444 151 444 150 q 444 154 444 151 q 452 168 444 163 m 566 138 l 566 138 l 566 171 l 570 171 l 574 171 l 574 138 l 574 106 l 570 106 l 566 106 l 566 138 m 604 138 l 604 138 l 604 171 l 608 171 l 612 171 l 612 138 l 612 106 l 608 106 l 604 106 l 604 138 m 704 168 l 704 168 q 713 171 707 171 l 720 171 l 720 167 l 720 163 l 714 163 q 709 162 711 163 q 707 160 707 161 q 705 156 705 158 q 704 153 704 154 l 704 150 l 710 150 l 717 150 l 717 146 l 717 142 l 708 142 q 702 142 704 142 q 700 140 700 142 q 699 140 699 140 q 701 138 700 139 q 703 135 703 136 q 704 131 704 134 q 704 119 704 127 l 704 106 l 700 106 l 696 106 l 696 123 l 696 142 l 694 142 q 692 142 692 142 q 692 146 692 143 q 692 149 692 149 q 694 150 692 150 q 696 151 696 150 q 696 154 696 151 q 704 168 696 163 m 342 155 l 342 155 l 342 161 l 346 161 l 350 161 l 350 155 l 350 150 l 355 150 l 359 150 l 359 146 l 359 142 l 353 142 q 347 138 340 142 q 349 136 349 138 q 349 133 349 135 q 350 125 350 131 l 350 114 l 355 113 l 361 113 l 361 109 l 361 106 l 354 106 q 349 106 350 106 q 345 109 347 106 l 342 111 l 342 126 l 342 142 l 339 142 q 336 142 336 142 q 335 146 335 143 q 336 149 335 149 q 339 150 336 150 q 341 150 340 150 q 342 151 342 150 q 342 155 342 153 m 884 155 l 884 155 l 884 161 l 888 161 l 890 161 l 890 155 l 890 150 l 896 150 l 901 150 l 901 146 l 901 142 l 895 142 q 888 142 889 142 q 886 140 886 142 q 887 140 886 140 q 889 138 888 139 q 890 137 889 138 q 890 134 890 136 q 890 127 890 132 q 892 115 890 118 q 897 113 893 113 q 901 113 900 113 q 903 112 903 113 q 903 109 903 111 l 903 106 l 897 106 q 891 106 893 106 q 888 109 889 106 l 884 111 l 884 126 l 884 142 l 880 142 q 878 142 879 142 q 878 146 878 143 q 878 149 878 149 q 880 150 879 150 q 883 150 882 150 q 884 151 884 150 q 884 155 884 153 m 1050 155 l 1050 155 l 1050 161 l 1054 161 l 1059 161 l 1059 155 l 1059 150 l 1063 150 l 1068 150 l 1068 146 l 1068 142 l 1061 142 q 1055 142 1057 142 q 1053 140 1053 142 q 1053 140 1053 140 q 1055 138 1054 139 q 1057 137 1057 138 q 1058 134 1057 136 q 1059 127 1059 132 q 1059 115 1059 118 q 1065 113 1060 113 q 1068 113 1067 113 q 1069 112 1069 113 q 1069 109 1069 111 l 1069 106 l 1064 106 q 1058 106 1060 106 q 1054 109 1055 106 l 1050 111 l 1050 126 l 1050 142 l 1047 142 q 1045 142 1046 142 q 1044 146 1044 143 q 1045 149 1044 149 q 1047 150 1046 150 q 1049 150 1048 150 q 1050 151 1050 150 q 1050 155 1050 153 m 282 149 l 282 149 q 301 146 293 153 q 311 129 310 140 l 311 125 l 293 125 q 280 124 283 125 q 276 122 277 123 q 278 118 275 121 q 287 112 281 113 q 298 115 293 111 q 303 119 301 118 q 308 119 306 119 q 310 118 310 119 q 307 114 310 117 q 301 109 304 111 q 297 106 298 106 q 286 105 292 104 q 277 107 281 106 q 268 129 267 115 q 282 149 269 143 m 297 140 l 297 140 q 287 142 292 143 q 278 136 282 142 q 277 134 278 135 q 277 132 277 132 q 280 132 277 132 q 288 131 283 131 q 297 132 293 131 q 301 132 301 132 q 302 134 302 132 q 300 138 301 136 q 297 140 298 139 m 754 149 l 754 149 q 762 150 758 150 q 771 149 766 150 q 783 126 783 143 q 780 113 783 119 q 770 106 777 107 q 758 104 764 103 q 747 110 751 106 q 741 121 743 114 q 741 135 739 127 q 746 143 742 139 q 754 149 750 147 m 770 140 l 770 140 q 751 138 758 146 q 750 118 745 131 q 759 112 753 113 q 771 114 765 111 q 775 128 775 119 q 770 140 775 136 m 828 149 l 828 149 q 840 149 835 151 q 848 142 846 147 q 850 136 850 140 q 850 122 850 132 l 850 106 l 847 106 l 843 106 l 843 121 q 843 132 843 127 q 842 138 843 136 q 840 140 842 139 q 836 142 839 142 q 828 140 832 143 q 823 135 823 139 q 821 119 822 131 l 821 106 l 817 106 l 814 106 l 814 127 l 814 150 l 818 150 q 821 149 821 150 q 819 144 821 147 q 817 142 818 143 q 817 139 817 140 l 817 136 l 818 139 q 823 145 821 143 q 828 149 825 147 m 991 149 l 991 149 q 997 150 994 150 q 1002 150 999 150 q 1015 144 1011 150 q 1018 126 1018 139 q 1018 119 1018 121 q 1018 115 1018 117 q 1019 114 1018 114 q 1021 111 1021 113 q 1021 107 1022 109 q 1019 106 1021 106 q 1013 113 1015 106 l 1010 117 l 1010 114 q 1006 106 1008 109 q 996 104 1003 104 q 985 109 989 104 q 981 118 981 113 q 989 127 982 123 q 994 130 990 129 q 1002 132 997 131 q 1007 133 1004 132 q 1010 134 1010 134 q 1010 135 1010 134 q 1008 138 1010 136 q 1004 142 1007 140 q 996 142 1000 143 q 990 138 991 142 q 988 136 989 136 q 985 136 987 136 q 982 137 982 136 q 983 142 982 138 q 987 146 985 144 q 991 149 989 147 m 1010 123 l 1010 123 q 1008 126 1010 126 q 1003 125 1007 126 q 1002 125 1003 125 q 994 122 997 123 q 991 120 991 121 q 989 119 990 119 q 989 117 989 118 q 997 111 989 111 q 1006 115 1002 111 q 1010 123 1010 119 m 493 132 l 493 132 l 493 150 l 497 150 l 501 150 l 501 134 q 501 121 501 125 q 502 117 501 118 q 503 114 503 115 q 513 113 507 111 q 521 118 518 114 q 522 124 522 121 q 522 136 522 127 l 524 150 l 526 150 l 530 150 l 530 132 q 530 123 530 126 q 530 117 530 119 q 531 115 530 115 q 533 114 532 114 q 534 111 534 113 q 534 107 534 109 q 533 106 534 106 q 528 108 530 106 q 524 114 525 110 q 522 115 522 115 q 521 111 522 114 q 517 106 519 107 q 510 104 515 104 q 494 111 500 104 q 494 118 494 114 q 493 132 493 122 m 196 49 l 196 49 q 199 50 197 49 q 204 50 201 50 l 210 49 l 210 45 l 210 40 l 204 40 q 198 39 200 40 q 195 37 196 39 q 193 33 193 35 q 192 29 192 32 l 192 25 l 197 25 l 204 25 l 204 20 l 204 16 l 195 16 q 188 16 191 16 q 184 14 184 16 q 185 13 184 14 q 187 11 186 12 l 192 8 l 192 -9 l 192 -28 l 186 -28 l 182 -28 l 182 -7 l 182 16 l 178 16 q 176 16 176 16 q 175 17 175 16 q 175 20 175 18 q 176 24 175 22 q 178 25 176 25 q 180 25 179 25 q 181 26 180 25 q 182 31 182 28 q 196 49 183 46 m 575 36 l 575 36 l 575 50 l 579 50 l 585 50 l 585 17 q 585 1 585 7 q 585 -9 585 -5 q 585 -15 585 -14 q 586 -17 586 -17 q 588 -18 587 -18 q 589 -18 589 -18 q 590 -20 590 -18 q 590 -24 590 -21 q 589 -26 590 -25 q 589 -28 589 -28 q 584 -26 587 -28 q 579 -22 581 -25 l 576 -20 l 572 -24 q 549 -28 561 -32 q 536 -12 539 -22 q 537 9 533 -1 q 550 24 541 20 q 553 26 551 25 q 557 26 555 26 q 567 24 561 26 q 575 17 572 21 q 578 18 583 8 q 576 22 576 20 q 576 27 576 24 q 575 36 575 31 m 568 12 l 568 12 q 561 16 566 16 q 551 14 555 17 q 545 -4 545 8 q 547 -9 546 -7 q 547 -14 547 -12 q 557 -20 551 -18 q 568 -17 562 -21 q 575 -2 575 -11 q 568 12 575 7 m 627 45 l 627 45 l 627 50 l 631 50 l 635 49 l 636 45 l 636 39 l 631 39 l 627 39 l 627 45 m 397 32 l 397 32 l 397 39 l 401 39 l 407 39 l 407 32 l 407 25 l 412 25 l 419 25 l 419 20 l 419 16 l 410 16 q 404 15 406 16 q 401 14 401 14 q 402 12 401 12 q 403 11 403 11 q 404 11 403 11 q 406 9 404 11 q 406 6 406 9 q 407 -4 407 3 q 408 -17 407 -16 q 410 -18 408 -18 q 415 -18 412 -18 l 419 -18 l 419 -24 l 419 -28 l 414 -28 q 404 -26 407 -28 q 400 -22 401 -25 q 398 -15 399 -20 q 397 -1 397 -9 l 397 16 l 395 16 q 393 16 393 16 q 391 17 392 16 q 390 20 390 18 q 391 24 390 22 q 393 25 392 25 q 395 25 393 25 l 397 25 l 397 32 m 1051 32 l 1051 32 l 1051 39 l 1055 39 l 1061 39 l 1061 32 l 1061 25 l 1067 25 l 1072 25 l 1072 20 l 1072 16 l 1064 16 q 1056 15 1057 16 q 1059 11 1054 14 q 1060 8 1060 9 q 1061 4 1060 7 q 1061 -4 1061 1 l 1061 -18 l 1068 -18 l 1074 -18 l 1074 -24 l 1074 -29 l 1067 -28 q 1059 -27 1061 -28 q 1055 -24 1057 -26 l 1051 -21 l 1051 -3 l 1051 16 l 1047 16 q 1045 16 1046 16 q 1044 17 1044 16 q 1044 20 1044 18 q 1044 24 1044 22 q 1045 25 1044 25 q 1047 25 1046 25 l 1051 25 l 1051 32 m 249 25 l 249 25 q 260 25 254 26 q 271 20 267 24 l 273 17 l 273 21 q 274 24 273 24 q 278 25 275 25 l 282 25 l 282 -7 q 282 -26 282 -20 q 282 -35 282 -32 q 281 -40 282 -39 q 279 -43 281 -41 q 277 -46 279 -45 q 273 -49 275 -47 q 270 -51 272 -50 q 264 -52 268 -52 q 254 -52 261 -52 l 239 -52 l 239 -47 l 239 -43 l 252 -43 q 261 -42 257 -43 q 267 -41 265 -41 q 273 -29 273 -37 q 274 -26 273 -28 q 277 -22 275 -24 q 273 -20 281 -12 q 261 -28 268 -25 q 248 -28 254 -31 q 239 -22 243 -26 q 235 -12 236 -17 q 233 -2 233 -8 q 235 8 233 4 q 239 18 236 14 q 249 25 243 22 m 265 14 l 265 14 q 259 16 264 16 q 252 16 254 17 q 243 3 244 12 q 245 -14 241 -5 q 258 -20 250 -21 q 271 -11 265 -20 q 272 1 273 -5 q 265 14 271 8 m 330 25 l 330 25 q 336 25 334 25 q 342 25 339 25 q 358 16 354 25 q 360 9 361 11 q 355 8 359 8 q 350 9 350 8 q 347 15 350 12 q 340 17 343 17 q 331 13 334 17 q 332 7 328 8 q 337 5 334 5 q 345 3 340 4 q 357 -3 354 0 q 361 -12 361 -7 q 361 -18 361 -16 q 358 -22 361 -20 q 337 -29 350 -31 q 319 -18 325 -28 q 318 -11 318 -12 q 322 -9 318 -9 q 327 -10 326 -9 q 328 -12 328 -11 q 328 -14 328 -12 q 332 -17 329 -16 q 334 -19 334 -18 q 337 -20 335 -20 q 342 -20 339 -20 q 348 -19 346 -20 q 350 -17 350 -18 q 352 -15 351 -16 q 353 -12 353 -14 q 338 -5 353 -9 q 330 -3 334 -4 q 325 0 326 -1 q 321 5 322 1 q 319 12 319 8 q 324 20 321 17 q 330 25 328 24 m 689 25 l 689 25 q 705 24 697 26 q 718 14 713 21 q 720 7 720 9 q 721 0 721 4 q 713 -24 722 -16 q 689 -28 701 -32 q 672 -9 676 -24 q 671 1 671 -4 q 673 11 671 7 q 681 20 676 16 q 689 25 685 24 m 703 16 l 703 16 q 692 15 697 17 q 684 9 688 14 q 681 1 681 5 q 681 -8 681 -4 q 694 -20 685 -18 q 710 -12 704 -21 q 712 3 714 -5 q 703 16 710 11 m 768 24 l 768 24 q 786 24 778 28 q 793 19 790 22 q 796 14 796 16 q 797 12 796 12 q 798 9 798 11 q 797 9 798 9 q 793 8 796 8 q 789 9 790 8 q 787 11 787 9 q 781 15 786 14 q 770 15 775 17 q 765 9 765 14 q 767 7 765 8 q 772 5 768 7 q 783 1 775 4 q 793 -2 790 0 q 798 -8 796 -4 q 794 -24 800 -18 q 777 -29 787 -29 q 762 -24 768 -29 q 755 -12 755 -20 q 756 -10 755 -11 q 760 -9 757 -9 q 764 -10 762 -9 q 765 -12 765 -11 q 778 -20 766 -20 q 789 -14 786 -20 q 787 -9 789 -11 q 779 -7 785 -8 q 765 -2 770 -4 q 758 3 761 0 q 756 6 757 4 q 757 11 755 8 q 768 24 757 21 m 901 22 l 901 22 q 906 25 904 24 q 909 26 908 26 q 921 22 916 26 q 928 12 926 18 q 928 5 928 11 q 929 -9 929 -1 l 929 -28 l 924 -28 l 920 -28 l 920 -12 q 919 6 920 0 q 916 14 918 12 q 905 15 911 17 q 897 8 900 14 q 895 5 896 7 q 895 -1 895 3 q 895 -11 895 -4 l 893 -28 l 889 -28 l 885 -28 l 885 -1 l 885 25 l 889 25 q 893 24 892 25 q 895 22 895 24 q 893 21 895 22 q 892 18 892 20 q 889 12 889 16 q 889 10 889 9 q 892 16 889 11 q 901 22 896 20 m 983 25 l 983 25 q 996 25 989 26 q 1007 18 1003 24 q 1013 11 1011 16 q 1015 1 1014 7 l 1015 -5 l 994 -5 q 983 -5 987 -5 q 977 -5 979 -5 q 975 -6 975 -5 q 974 -7 974 -7 q 977 -13 974 -9 q 982 -18 979 -16 q 992 -20 986 -21 q 1003 -14 999 -18 q 1004 -12 1003 -12 q 1008 -11 1006 -11 q 1013 -12 1013 -11 q 1011 -18 1014 -14 q 997 -28 1006 -25 q 981 -28 989 -31 q 964 -1 964 -21 q 983 25 965 20 m 997 14 l 997 14 q 990 16 994 16 q 983 16 986 17 q 978 11 981 14 q 975 5 975 8 l 974 3 l 989 3 q 999 3 996 3 q 1004 3 1003 3 q 1004 5 1004 4 q 1002 9 1004 7 q 997 14 1000 12 m 454 5 l 454 5 l 454 25 l 458 25 l 463 25 l 463 5 q 463 -5 463 -1 q 463 -12 463 -9 q 464 -15 464 -14 q 465 -17 464 -16 q 476 -20 469 -21 q 485 -12 482 -18 q 487 -9 486 -11 q 488 -3 488 -7 q 488 8 488 1 l 489 25 l 493 25 l 497 25 l 497 5 l 497 -16 l 500 -17 q 502 -20 501 -18 q 503 -24 503 -21 q 501 -28 503 -28 q 495 -26 498 -28 q 490 -20 492 -24 q 488 -18 489 -17 q 486 -24 486 -18 q 480 -28 485 -26 q 471 -29 476 -29 q 461 -26 465 -29 q 458 -24 460 -25 q 456 -20 457 -22 q 455 -15 456 -18 q 454 -8 454 -12 q 454 5 454 -4 m 627 -1 l 627 -1 l 627 25 l 631 25 l 635 24 l 636 -1 l 636 -28 l 631 -28 l 627 -28 l 627 -1 m 836 -17 l 836 -17 q 838 -16 836 -16 q 842 -16 840 -16 l 847 -16 l 847 -22 l 847 -28 l 842 -28 l 835 -28 l 835 -22 q 836 -18 835 -20 q 836 -17 836 -17 z "},"1":{"ha":1250,"x_min":83,"x_max":1166,"o":"m 328 1032 l 328 1032 q 420 1033 335 1032 q 631 1034 505 1034 l 926 1034 l 942 1031 q 1063 978 1008 1018 q 1085 957 1071 970 q 1107 932 1099 943 q 1160 827 1146 885 q 1161 822 1161 823 q 1164 807 1162 814 q 1166 787 1165 800 q 1166 748 1166 774 q 1166 676 1166 722 q 1166 652 1166 665 q 1166 563 1166 596 q 1166 514 1166 530 q 1165 489 1166 497 q 1162 472 1164 481 q 1084 332 1146 390 q 940 258 1026 273 l 924 256 l 632 256 q 486 254 543 254 q 397 255 429 254 q 347 256 364 256 q 323 256 330 256 q 307 258 315 257 q 307 260 307 258 q 147 351 211 277 q 86 482 100 407 l 83 498 l 83 643 l 83 787 l 86 803 q 163 954 100 892 q 328 1032 231 1021 m 699 774 l 699 774 q 664 772 681 779 q 637 747 647 765 q 635 742 636 745 q 635 736 635 739 q 635 726 635 733 q 635 718 635 721 q 635 712 635 714 q 637 707 636 710 q 660 684 646 692 q 690 679 673 676 q 725 703 714 684 q 729 745 736 722 q 716 762 725 754 q 699 774 708 770 m 854 728 l 854 728 l 854 777 l 842 777 l 829 777 l 829 754 l 828 733 l 815 754 l 802 775 l 789 775 l 775 775 l 775 726 l 775 679 l 789 679 l 803 679 l 803 700 l 803 722 l 817 701 l 831 679 l 843 679 l 854 679 l 854 728 m 228 774 l 228 774 q 222 774 225 774 q 215 775 220 775 q 200 775 210 775 l 179 775 l 179 726 l 179 679 l 192 679 l 205 679 l 205 694 l 205 710 l 215 711 q 224 712 221 711 q 231 714 228 713 q 249 745 250 725 q 228 774 245 765 m 353 762 l 353 762 l 353 775 l 322 775 l 290 775 l 290 726 l 290 679 l 322 679 l 353 679 l 353 692 l 353 704 l 335 704 l 318 704 l 318 708 l 318 714 l 334 714 l 349 714 l 349 726 l 349 739 l 334 739 l 318 739 l 318 745 l 318 749 l 335 749 l 353 749 l 353 762 m 454 771 l 454 771 l 449 775 l 424 775 l 400 775 l 400 728 l 400 679 l 412 679 l 427 679 l 427 694 q 427 706 427 703 q 428 710 427 710 q 432 706 429 710 q 439 694 435 701 l 449 679 l 464 679 q 474 679 469 679 q 479 679 479 679 q 476 685 479 679 q 468 697 472 690 l 457 714 l 461 718 q 465 723 463 721 q 468 728 467 725 q 471 733 471 730 q 471 742 471 736 q 471 751 471 747 q 469 755 471 754 q 454 771 464 765 m 567 774 l 567 774 q 552 775 561 775 q 538 772 543 775 q 515 749 517 765 q 516 738 515 742 q 521 729 517 733 q 549 717 528 721 q 560 714 557 715 q 566 710 564 713 q 566 707 566 708 q 564 705 566 707 q 553 703 559 703 q 543 708 546 704 l 541 711 l 533 710 q 532 710 533 710 q 526 707 529 708 q 521 707 522 707 q 515 704 515 705 q 517 697 514 703 q 541 679 524 684 q 576 684 558 675 q 591 711 595 692 q 558 739 591 733 q 545 749 538 743 q 553 751 547 751 q 561 747 558 751 l 564 745 l 578 747 q 585 749 582 749 q 588 749 587 749 q 589 751 589 750 q 589 753 590 751 q 581 765 587 760 q 567 774 575 771 m 957 768 l 957 768 l 954 775 l 939 775 l 925 775 l 909 728 q 899 694 904 708 q 895 679 895 681 q 899 679 895 679 q 908 679 903 679 l 922 679 l 924 685 l 925 690 l 940 689 l 954 689 l 956 684 l 957 679 l 971 679 q 982 679 979 679 q 985 681 985 679 q 982 688 985 681 q 971 722 978 700 q 962 748 966 736 q 957 766 958 761 q 957 768 957 768 m 1050 741 l 1050 741 l 1050 775 l 1038 775 l 1023 775 l 1023 726 l 1023 679 l 1051 679 l 1079 679 l 1079 692 l 1079 704 l 1065 704 l 1050 704 l 1050 741 m 685 607 l 685 607 q 643 596 661 611 q 627 552 624 576 q 654 515 631 528 q 661 512 659 513 q 666 511 663 511 q 676 511 669 511 q 686 511 682 511 q 691 512 689 511 q 697 515 693 513 q 711 525 704 518 q 721 538 718 532 q 725 568 728 553 q 710 595 721 583 q 685 607 699 604 m 848 559 l 848 559 l 848 608 l 835 608 q 822 607 821 608 q 821 600 821 606 q 821 586 821 595 l 821 567 l 808 586 l 794 607 l 782 607 l 770 607 l 770 558 l 770 511 l 783 511 l 796 511 l 796 532 l 798 554 l 811 532 l 823 511 l 836 511 l 848 511 l 848 559 m 231 578 l 231 578 l 231 607 l 216 607 l 204 607 l 204 572 l 204 538 l 208 532 q 217 520 211 525 q 229 513 222 515 q 243 511 235 511 q 258 513 252 511 q 272 522 265 515 q 279 534 278 528 q 281 541 281 538 q 282 551 282 545 q 282 574 282 558 l 282 607 l 269 607 l 256 607 l 256 578 q 256 553 256 561 q 254 543 256 546 q 250 538 253 541 q 242 536 245 536 q 235 539 239 536 q 232 544 233 541 q 231 554 231 547 q 231 578 231 561 m 380 606 l 380 606 q 366 607 375 607 q 350 606 357 607 q 340 600 345 604 q 332 591 335 596 q 328 587 329 590 q 328 581 328 585 q 329 569 328 572 q 335 561 330 566 q 345 554 339 557 q 363 549 351 551 q 378 542 378 546 q 373 536 378 538 q 363 535 368 534 q 355 541 358 536 l 353 543 l 340 541 q 331 538 335 539 q 326 538 328 538 q 327 534 326 536 q 330 528 328 532 q 334 522 332 525 q 363 511 343 511 q 400 525 389 510 q 404 530 403 528 q 404 536 404 533 q 375 571 407 564 q 357 576 361 574 q 357 582 354 578 q 360 583 358 583 q 366 583 363 583 q 371 583 370 583 q 374 579 372 582 l 376 576 l 389 579 q 398 581 395 581 q 401 582 401 582 q 402 585 403 583 q 400 589 401 586 q 380 606 393 602 m 511 595 l 511 595 l 511 607 l 481 607 l 449 607 l 449 558 l 449 511 l 481 511 l 511 511 l 511 524 l 511 536 l 493 536 l 476 536 l 476 542 l 476 546 l 492 546 l 507 546 l 507 558 l 507 571 l 492 571 l 476 571 l 476 576 l 476 582 l 493 582 l 511 582 l 511 595 m 922 572 l 922 572 l 922 607 l 909 607 l 896 607 l 896 558 l 896 511 l 924 511 l 951 511 l 951 524 l 951 536 l 936 536 l 922 536 l 922 572 m 1002 595 l 1002 595 l 994 607 l 979 607 l 962 607 l 965 604 q 971 594 966 602 q 982 576 975 586 l 996 551 l 996 530 l 996 511 l 1008 511 l 1022 511 l 1022 530 l 1022 551 l 1036 576 q 1048 595 1043 587 q 1053 604 1053 603 l 1054 607 l 1039 607 l 1023 607 l 1017 595 q 1012 585 1014 589 q 1008 582 1010 582 q 1006 585 1008 582 q 1002 595 1004 589 m 673 749 l 673 749 q 699 743 689 754 q 703 717 708 732 q 681 704 694 703 q 661 721 667 705 q 663 737 660 729 q 673 749 667 745 m 205 742 l 205 742 l 205 749 l 212 749 q 220 748 218 749 q 221 743 221 747 q 219 738 221 739 q 212 734 216 736 l 205 734 l 205 742 m 427 742 l 427 742 l 427 749 l 435 749 q 443 748 441 749 q 444 742 444 747 q 433 734 444 734 l 427 734 l 427 742 m 937 729 l 937 729 q 939 736 937 733 q 940 737 940 739 q 942 732 940 737 q 943 726 943 729 l 947 714 l 940 714 l 933 714 l 933 718 q 934 721 933 718 q 936 728 935 724 q 937 729 936 729 m 667 581 l 667 581 q 685 580 676 585 q 697 566 694 575 q 693 545 700 553 q 675 536 686 536 q 657 547 664 536 q 655 567 652 557 q 667 581 659 576 m 195 170 l 195 170 q 212 171 203 172 q 227 165 221 170 q 231 161 229 164 q 235 155 233 158 q 236 151 236 153 q 235 151 236 151 q 232 150 235 150 q 229 151 231 150 q 227 154 228 151 q 209 163 221 163 q 191 155 197 164 q 183 135 182 149 q 193 115 184 121 q 214 113 201 110 q 225 120 221 115 q 229 129 229 125 l 229 132 l 220 132 l 210 132 l 210 136 l 210 140 l 224 140 l 236 140 l 236 122 l 236 106 l 233 106 q 229 107 229 106 q 232 114 229 109 q 233 117 233 117 q 232 118 233 118 q 231 117 232 118 q 228 114 229 115 q 207 104 221 104 q 179 121 189 104 q 177 125 178 123 q 176 129 176 126 q 176 138 176 132 q 176 146 176 143 q 177 150 176 149 q 179 154 178 151 q 195 170 184 165 m 452 168 l 452 168 q 461 171 454 171 l 468 171 l 468 167 l 468 163 l 463 163 q 457 162 458 163 q 454 160 456 161 q 454 156 454 158 q 453 153 453 154 l 453 150 l 458 150 l 464 150 l 464 146 l 464 142 l 457 142 q 451 142 453 142 q 447 140 449 142 q 448 140 447 140 q 450 138 449 139 q 452 135 452 136 q 453 131 453 134 q 453 119 453 127 l 453 106 l 449 106 l 444 106 l 444 123 l 444 142 l 441 142 q 439 142 440 142 q 439 146 439 143 q 439 149 439 149 q 441 150 440 150 q 444 151 444 150 q 444 154 444 151 q 452 168 444 163 m 566 138 l 566 138 l 566 171 l 570 171 l 574 171 l 574 138 l 574 106 l 570 106 l 566 106 l 566 138 m 604 138 l 604 138 l 604 171 l 608 171 l 612 171 l 612 138 l 612 106 l 608 106 l 604 106 l 604 138 m 704 168 l 704 168 q 713 171 707 171 l 720 171 l 720 167 l 720 163 l 714 163 q 709 162 711 163 q 707 160 707 161 q 705 156 705 158 q 704 153 704 154 l 704 150 l 710 150 l 717 150 l 717 146 l 717 142 l 708 142 q 702 142 704 142 q 700 140 700 142 q 699 140 699 140 q 701 138 700 139 q 703 135 703 136 q 704 131 704 134 q 704 119 704 127 l 704 106 l 700 106 l 696 106 l 696 123 l 696 142 l 694 142 q 692 142 692 142 q 692 146 692 143 q 692 149 692 149 q 694 150 692 150 q 696 151 696 150 q 696 154 696 151 q 704 168 696 163 m 342 155 l 342 155 l 342 161 l 346 161 l 350 161 l 350 155 l 350 150 l 355 150 l 359 150 l 359 146 l 359 142 l 353 142 q 347 138 340 142 q 349 136 349 138 q 349 133 349 135 q 350 125 350 131 l 350 114 l 355 113 l 361 113 l 361 109 l 361 106 l 354 106 q 349 106 350 106 q 345 109 347 106 l 342 111 l 342 126 l 342 142 l 339 142 q 336 142 336 142 q 335 146 335 143 q 336 149 335 149 q 339 150 336 150 q 341 150 340 150 q 342 151 342 150 q 342 155 342 153 m 884 155 l 884 155 l 884 161 l 888 161 l 890 161 l 890 155 l 890 150 l 896 150 l 901 150 l 901 146 l 901 142 l 895 142 q 888 142 889 142 q 886 140 886 142 q 887 140 886 140 q 889 138 888 139 q 890 137 889 138 q 890 134 890 136 q 890 127 890 132 q 892 115 890 118 q 897 113 893 113 q 901 113 900 113 q 903 112 903 113 q 903 109 903 111 l 903 106 l 897 106 q 891 106 893 106 q 888 109 889 106 l 884 111 l 884 126 l 884 142 l 880 142 q 878 142 879 142 q 878 146 878 143 q 878 149 878 149 q 880 150 879 150 q 883 150 882 150 q 884 151 884 150 q 884 155 884 153 m 1050 155 l 1050 155 l 1050 161 l 1054 161 l 1059 161 l 1059 155 l 1059 150 l 1063 150 l 1068 150 l 1068 146 l 1068 142 l 1061 142 q 1055 142 1057 142 q 1053 140 1053 142 q 1053 140 1053 140 q 1055 138 1054 139 q 1057 137 1057 138 q 1058 134 1057 136 q 1059 127 1059 132 q 1059 115 1059 118 q 1065 113 1060 113 q 1068 113 1067 113 q 1069 112 1069 113 q 1069 109 1069 111 l 1069 106 l 1064 106 q 1058 106 1060 106 q 1054 109 1055 106 l 1050 111 l 1050 126 l 1050 142 l 1047 142 q 1045 142 1046 142 q 1044 146 1044 143 q 1045 149 1044 149 q 1047 150 1046 150 q 1049 150 1048 150 q 1050 151 1050 150 q 1050 155 1050 153 m 282 149 l 282 149 q 301 146 293 153 q 311 129 310 140 l 311 125 l 293 125 q 280 124 283 125 q 276 122 277 123 q 278 118 275 121 q 287 112 281 113 q 298 115 293 111 q 303 119 301 118 q 308 119 306 119 q 310 118 310 119 q 307 114 310 117 q 301 109 304 111 q 297 106 298 106 q 286 105 292 104 q 277 107 281 106 q 268 129 267 115 q 282 149 269 143 m 297 140 l 297 140 q 287 142 292 143 q 278 136 282 142 q 277 134 278 135 q 277 132 277 132 q 280 132 277 132 q 288 131 283 131 q 297 132 293 131 q 301 132 301 132 q 302 134 302 132 q 300 138 301 136 q 297 140 298 139 m 754 149 l 754 149 q 762 150 758 150 q 771 149 766 150 q 783 126 783 143 q 780 113 783 119 q 770 106 777 107 q 758 104 764 103 q 747 110 751 106 q 741 121 743 114 q 741 135 739 127 q 746 143 742 139 q 754 149 750 147 m 770 140 l 770 140 q 751 138 758 146 q 750 118 745 131 q 759 112 753 113 q 771 114 765 111 q 775 128 775 119 q 770 140 775 136 m 828 149 l 828 149 q 840 149 835 151 q 848 142 846 147 q 850 136 850 140 q 850 122 850 132 l 850 106 l 847 106 l 843 106 l 843 121 q 843 132 843 127 q 842 138 843 136 q 840 140 842 139 q 836 142 839 142 q 828 140 832 143 q 823 135 823 139 q 821 119 822 131 l 821 106 l 817 106 l 814 106 l 814 127 l 814 150 l 818 150 q 821 149 821 150 q 819 144 821 147 q 817 142 818 143 q 817 139 817 140 l 817 136 l 818 139 q 823 145 821 143 q 828 149 825 147 m 991 149 l 991 149 q 997 150 994 150 q 1002 150 999 150 q 1015 144 1011 150 q 1018 126 1018 139 q 1018 119 1018 121 q 1018 115 1018 117 q 1019 114 1018 114 q 1021 111 1021 113 q 1021 107 1022 109 q 1019 106 1021 106 q 1013 113 1015 106 l 1010 117 l 1010 114 q 1006 106 1008 109 q 996 104 1003 104 q 985 109 989 104 q 981 118 981 113 q 989 127 982 123 q 994 130 990 129 q 1002 132 997 131 q 1007 133 1004 132 q 1010 134 1010 134 q 1010 135 1010 134 q 1008 138 1010 136 q 1004 142 1007 140 q 996 142 1000 143 q 990 138 991 142 q 988 136 989 136 q 985 136 987 136 q 982 137 982 136 q 983 142 982 138 q 987 146 985 144 q 991 149 989 147 m 1010 123 l 1010 123 q 1008 126 1010 126 q 1003 125 1007 126 q 1002 125 1003 125 q 994 122 997 123 q 991 120 991 121 q 989 119 990 119 q 989 117 989 118 q 997 111 989 111 q 1006 115 1002 111 q 1010 123 1010 119 m 493 132 l 493 132 l 493 150 l 497 150 l 501 150 l 501 134 q 501 121 501 125 q 502 117 501 118 q 503 114 503 115 q 513 113 507 111 q 521 118 518 114 q 522 124 522 121 q 522 136 522 127 l 524 150 l 526 150 l 530 150 l 530 132 q 530 123 530 126 q 530 117 530 119 q 531 115 530 115 q 533 114 532 114 q 534 111 534 113 q 534 107 534 109 q 533 106 534 106 q 528 108 530 106 q 524 114 525 110 q 522 115 522 115 q 521 111 522 114 q 517 106 519 107 q 510 104 515 104 q 494 111 500 104 q 494 118 494 114 q 493 132 493 122 m 196 49 l 196 49 q 199 50 197 49 q 204 50 201 50 l 210 49 l 210 45 l 210 40 l 204 40 q 198 39 200 40 q 195 37 196 39 q 193 33 193 35 q 192 29 192 32 l 192 25 l 197 25 l 204 25 l 204 20 l 204 16 l 195 16 q 188 16 191 16 q 184 14 184 16 q 185 13 184 14 q 187 11 186 12 l 192 8 l 192 -9 l 192 -28 l 186 -28 l 182 -28 l 182 -7 l 182 16 l 178 16 q 176 16 176 16 q 175 17 175 16 q 175 20 175 18 q 176 24 175 22 q 178 25 176 25 q 180 25 179 25 q 181 26 180 25 q 182 31 182 28 q 196 49 183 46 m 575 36 l 575 36 l 575 50 l 579 50 l 585 50 l 585 17 q 585 1 585 7 q 585 -9 585 -5 q 585 -15 585 -14 q 586 -17 586 -17 q 588 -18 587 -18 q 589 -18 589 -18 q 590 -20 590 -18 q 590 -24 590 -21 q 589 -26 590 -25 q 589 -28 589 -28 q 584 -26 587 -28 q 579 -22 581 -25 l 576 -20 l 572 -24 q 549 -28 561 -32 q 536 -12 539 -22 q 537 9 533 -1 q 550 24 541 20 q 553 26 551 25 q 557 26 555 26 q 567 24 561 26 q 575 17 572 21 q 578 18 583 8 q 576 22 576 20 q 576 27 576 24 q 575 36 575 31 m 568 12 l 568 12 q 561 16 566 16 q 551 14 555 17 q 545 -4 545 8 q 547 -9 546 -7 q 547 -14 547 -12 q 557 -20 551 -18 q 568 -17 562 -21 q 575 -2 575 -11 q 568 12 575 7 m 627 45 l 627 45 l 627 50 l 631 50 l 635 49 l 636 45 l 636 39 l 631 39 l 627 39 l 627 45 m 397 32 l 397 32 l 397 39 l 401 39 l 407 39 l 407 32 l 407 25 l 412 25 l 419 25 l 419 20 l 419 16 l 410 16 q 404 15 406 16 q 401 14 401 14 q 402 12 401 12 q 403 11 403 11 q 404 11 403 11 q 406 9 404 11 q 406 6 406 9 q 407 -4 407 3 q 408 -17 407 -16 q 410 -18 408 -18 q 415 -18 412 -18 l 419 -18 l 419 -24 l 419 -28 l 414 -28 q 404 -26 407 -28 q 400 -22 401 -25 q 398 -15 399 -20 q 397 -1 397 -9 l 397 16 l 395 16 q 393 16 393 16 q 391 17 392 16 q 390 20 390 18 q 391 24 390 22 q 393 25 392 25 q 395 25 393 25 l 397 25 l 397 32 m 1051 32 l 1051 32 l 1051 39 l 1055 39 l 1061 39 l 1061 32 l 1061 25 l 1067 25 l 1072 25 l 1072 20 l 1072 16 l 1064 16 q 1056 15 1057 16 q 1059 11 1054 14 q 1060 8 1060 9 q 1061 4 1060 7 q 1061 -4 1061 1 l 1061 -18 l 1068 -18 l 1074 -18 l 1074 -24 l 1074 -29 l 1067 -28 q 1059 -27 1061 -28 q 1055 -24 1057 -26 l 1051 -21 l 1051 -3 l 1051 16 l 1047 16 q 1045 16 1046 16 q 1044 17 1044 16 q 1044 20 1044 18 q 1044 24 1044 22 q 1045 25 1044 25 q 1047 25 1046 25 l 1051 25 l 1051 32 m 249 25 l 249 25 q 260 25 254 26 q 271 20 267 24 l 273 17 l 273 21 q 274 24 273 24 q 278 25 275 25 l 282 25 l 282 -7 q 282 -26 282 -20 q 282 -35 282 -32 q 281 -40 282 -39 q 279 -43 281 -41 q 277 -46 279 -45 q 273 -49 275 -47 q 270 -51 272 -50 q 264 -52 268 -52 q 254 -52 261 -52 l 239 -52 l 239 -47 l 239 -43 l 252 -43 q 261 -42 257 -43 q 267 -41 265 -41 q 273 -29 273 -37 q 274 -26 273 -28 q 277 -22 275 -24 q 273 -20 281 -12 q 261 -28 268 -25 q 248 -28 254 -31 q 239 -22 243 -26 q 235 -12 236 -17 q 233 -2 233 -8 q 235 8 233 4 q 239 18 236 14 q 249 25 243 22 m 265 14 l 265 14 q 259 16 264 16 q 252 16 254 17 q 243 3 244 12 q 245 -14 241 -5 q 258 -20 250 -21 q 271 -11 265 -20 q 272 1 273 -5 q 265 14 271 8 m 330 25 l 330 25 q 336 25 334 25 q 342 25 339 25 q 358 16 354 25 q 360 9 361 11 q 355 8 359 8 q 350 9 350 8 q 347 15 350 12 q 340 17 343 17 q 331 13 334 17 q 332 7 328 8 q 337 5 334 5 q 345 3 340 4 q 357 -3 354 0 q 361 -12 361 -7 q 361 -18 361 -16 q 358 -22 361 -20 q 337 -29 350 -31 q 319 -18 325 -28 q 318 -11 318 -12 q 322 -9 318 -9 q 327 -10 326 -9 q 328 -12 328 -11 q 328 -14 328 -12 q 332 -17 329 -16 q 334 -19 334 -18 q 337 -20 335 -20 q 342 -20 339 -20 q 348 -19 346 -20 q 350 -17 350 -18 q 352 -15 351 -16 q 353 -12 353 -14 q 338 -5 353 -9 q 330 -3 334 -4 q 325 0 326 -1 q 321 5 322 1 q 319 12 319 8 q 324 20 321 17 q 330 25 328 24 m 689 25 l 689 25 q 705 24 697 26 q 718 14 713 21 q 720 7 720 9 q 721 0 721 4 q 713 -24 722 -16 q 689 -28 701 -32 q 672 -9 676 -24 q 671 1 671 -4 q 673 11 671 7 q 681 20 676 16 q 689 25 685 24 m 703 16 l 703 16 q 692 15 697 17 q 684 9 688 14 q 681 1 681 5 q 681 -8 681 -4 q 694 -20 685 -18 q 710 -12 704 -21 q 712 3 714 -5 q 703 16 710 11 m 768 24 l 768 24 q 786 24 778 28 q 793 19 790 22 q 796 14 796 16 q 797 12 796 12 q 798 9 798 11 q 797 9 798 9 q 793 8 796 8 q 789 9 790 8 q 787 11 787 9 q 781 15 786 14 q 770 15 775 17 q 765 9 765 14 q 767 7 765 8 q 772 5 768 7 q 783 1 775 4 q 793 -2 790 0 q 798 -8 796 -4 q 794 -24 800 -18 q 777 -29 787 -29 q 762 -24 768 -29 q 755 -12 755 -20 q 756 -10 755 -11 q 760 -9 757 -9 q 764 -10 762 -9 q 765 -12 765 -11 q 778 -20 766 -20 q 789 -14 786 -20 q 787 -9 789 -11 q 779 -7 785 -8 q 765 -2 770 -4 q 758 3 761 0 q 756 6 757 4 q 757 11 755 8 q 768 24 757 21 m 901 22 l 901 22 q 906 25 904 24 q 909 26 908 26 q 921 22 916 26 q 928 12 926 18 q 928 5 928 11 q 929 -9 929 -1 l 929 -28 l 924 -28 l 920 -28 l 920 -12 q 919 6 920 0 q 916 14 918 12 q 905 15 911 17 q 897 8 900 14 q 895 5 896 7 q 895 -1 895 3 q 895 -11 895 -4 l 893 -28 l 889 -28 l 885 -28 l 885 -1 l 885 25 l 889 25 q 893 24 892 25 q 895 22 895 24 q 893 21 895 22 q 892 18 892 20 q 889 12 889 16 q 889 10 889 9 q 892 16 889 11 q 901 22 896 20 m 983 25 l 983 25 q 996 25 989 26 q 1007 18 1003 24 q 1013 11 1011 16 q 1015 1 1014 7 l 1015 -5 l 994 -5 q 983 -5 987 -5 q 977 -5 979 -5 q 975 -6 975 -5 q 974 -7 974 -7 q 977 -13 974 -9 q 982 -18 979 -16 q 992 -20 986 -21 q 1003 -14 999 -18 q 1004 -12 1003 -12 q 1008 -11 1006 -11 q 1013 -12 1013 -11 q 1011 -18 1014 -14 q 997 -28 1006 -25 q 981 -28 989 -31 q 964 -1 964 -21 q 983 25 965 20 m 997 14 l 997 14 q 990 16 994 16 q 983 16 986 17 q 978 11 981 14 q 975 5 975 8 l 974 3 l 989 3 q 999 3 996 3 q 1004 3 1003 3 q 1004 5 1004 4 q 1002 9 1004 7 q 997 14 1000 12 m 454 5 l 454 5 l 454 25 l 458 25 l 463 25 l 463 5 q 463 -5 463 -1 q 463 -12 463 -9 q 464 -15 464 -14 q 465 -17 464 -16 q 476 -20 469 -21 q 485 -12 482 -18 q 487 -9 486 -11 q 488 -3 488 -7 q 488 8 488 1 l 489 25 l 493 25 l 497 25 l 497 5 l 497 -16 l 500 -17 q 502 -20 501 -18 q 503 -24 503 -21 q 501 -28 503 -28 q 495 -26 498 -28 q 490 -20 492 -24 q 488 -18 489 -17 q 486 -24 486 -18 q 480 -28 485 -26 q 471 -29 476 -29 q 461 -26 465 -29 q 458 -24 460 -25 q 456 -20 457 -22 q 455 -15 456 -18 q 454 -8 454 -12 q 454 5 454 -4 m 627 -1 l 627 -1 l 627 25 l 631 25 l 635 24 l 636 -1 l 636 -28 l 631 -28 l 627 -28 l 627 -1 m 836 -17 l 836 -17 q 838 -16 836 -16 q 842 -16 840 -16 l 847 -16 l 847 -22 l 847 -28 l 842 -28 l 835 -28 l 835 -22 q 836 -18 835 -20 q 836 -17 836 -17 z "},"2":{"ha":1250,"x_min":83,"x_max":1166,"o":"m 328 1032 l 328 1032 q 420 1033 335 1032 q 631 1034 505 1034 l 926 1034 l 942 1031 q 1063 978 1008 1018 q 1085 957 1071 970 q 1107 932 1099 943 q 1160 827 1146 885 q 1161 822 1161 823 q 1164 807 1162 814 q 1166 787 1165 800 q 1166 748 1166 774 q 1166 676 1166 722 q 1166 652 1166 665 q 1166 563 1166 596 q 1166 514 1166 530 q 1165 489 1166 497 q 1162 472 1164 481 q 1084 332 1146 390 q 940 258 1026 273 l 924 256 l 632 256 q 486 254 543 254 q 397 255 429 254 q 347 256 364 256 q 323 256 330 256 q 307 258 315 257 q 307 260 307 258 q 147 351 211 277 q 86 482 100 407 l 83 498 l 83 643 l 83 787 l 86 803 q 163 954 100 892 q 328 1032 231 1021 m 699 774 l 699 774 q 664 772 681 779 q 637 747 647 765 q 635 742 636 745 q 635 736 635 739 q 635 726 635 733 q 635 718 635 721 q 635 712 635 714 q 637 707 636 710 q 660 684 646 692 q 690 679 673 676 q 725 703 714 684 q 729 745 736 722 q 716 762 725 754 q 699 774 708 770 m 854 728 l 854 728 l 854 777 l 842 777 l 829 777 l 829 754 l 828 733 l 815 754 l 802 775 l 789 775 l 775 775 l 775 726 l 775 679 l 789 679 l 803 679 l 803 700 l 803 722 l 817 701 l 831 679 l 843 679 l 854 679 l 854 728 m 228 774 l 228 774 q 222 774 225 774 q 215 775 220 775 q 200 775 210 775 l 179 775 l 179 726 l 179 679 l 192 679 l 205 679 l 205 694 l 205 710 l 215 711 q 224 712 221 711 q 231 714 228 713 q 249 745 250 725 q 228 774 245 765 m 353 762 l 353 762 l 353 775 l 322 775 l 290 775 l 290 726 l 290 679 l 322 679 l 353 679 l 353 692 l 353 704 l 335 704 l 318 704 l 318 708 l 318 714 l 334 714 l 349 714 l 349 726 l 349 739 l 334 739 l 318 739 l 318 745 l 318 749 l 335 749 l 353 749 l 353 762 m 454 771 l 454 771 l 449 775 l 424 775 l 400 775 l 400 728 l 400 679 l 412 679 l 427 679 l 427 694 q 427 706 427 703 q 428 710 427 710 q 432 706 429 710 q 439 694 435 701 l 449 679 l 464 679 q 474 679 469 679 q 479 679 479 679 q 476 685 479 679 q 468 697 472 690 l 457 714 l 461 718 q 465 723 463 721 q 468 728 467 725 q 471 733 471 730 q 471 742 471 736 q 471 751 471 747 q 469 755 471 754 q 454 771 464 765 m 567 774 l 567 774 q 552 775 561 775 q 538 772 543 775 q 515 749 517 765 q 516 738 515 742 q 521 729 517 733 q 549 717 528 721 q 560 714 557 715 q 566 710 564 713 q 566 707 566 708 q 564 705 566 707 q 553 703 559 703 q 543 708 546 704 l 541 711 l 533 710 q 532 710 533 710 q 526 707 529 708 q 521 707 522 707 q 515 704 515 705 q 517 697 514 703 q 541 679 524 684 q 576 684 558 675 q 591 711 595 692 q 558 739 591 733 q 545 749 538 743 q 553 751 547 751 q 561 747 558 751 l 564 745 l 578 747 q 585 749 582 749 q 588 749 587 749 q 589 751 589 750 q 589 753 590 751 q 581 765 587 760 q 567 774 575 771 m 957 768 l 957 768 l 954 775 l 939 775 l 925 775 l 909 728 q 899 694 904 708 q 895 679 895 681 q 899 679 895 679 q 908 679 903 679 l 922 679 l 924 685 l 925 690 l 940 689 l 954 689 l 956 684 l 957 679 l 971 679 q 982 679 979 679 q 985 681 985 679 q 982 688 985 681 q 971 722 978 700 q 962 748 966 736 q 957 766 958 761 q 957 768 957 768 m 1050 741 l 1050 741 l 1050 775 l 1038 775 l 1023 775 l 1023 726 l 1023 679 l 1051 679 l 1079 679 l 1079 692 l 1079 704 l 1065 704 l 1050 704 l 1050 741 m 685 607 l 685 607 q 643 596 661 611 q 627 552 624 576 q 654 515 631 528 q 661 512 659 513 q 666 511 663 511 q 676 511 669 511 q 686 511 682 511 q 691 512 689 511 q 697 515 693 513 q 711 525 704 518 q 721 538 718 532 q 725 568 728 553 q 710 595 721 583 q 685 607 699 604 m 848 559 l 848 559 l 848 608 l 835 608 q 822 607 821 608 q 821 600 821 606 q 821 586 821 595 l 821 567 l 808 586 l 794 607 l 782 607 l 770 607 l 770 558 l 770 511 l 783 511 l 796 511 l 796 532 l 798 554 l 811 532 l 823 511 l 836 511 l 848 511 l 848 559 m 231 578 l 231 578 l 231 607 l 216 607 l 204 607 l 204 572 l 204 538 l 208 532 q 217 520 211 525 q 229 513 222 515 q 243 511 235 511 q 258 513 252 511 q 272 522 265 515 q 279 534 278 528 q 281 541 281 538 q 282 551 282 545 q 282 574 282 558 l 282 607 l 269 607 l 256 607 l 256 578 q 256 553 256 561 q 254 543 256 546 q 250 538 253 541 q 242 536 245 536 q 235 539 239 536 q 232 544 233 541 q 231 554 231 547 q 231 578 231 561 m 380 606 l 380 606 q 366 607 375 607 q 350 606 357 607 q 340 600 345 604 q 332 591 335 596 q 328 587 329 590 q 328 581 328 585 q 329 569 328 572 q 335 561 330 566 q 345 554 339 557 q 363 549 351 551 q 378 542 378 546 q 373 536 378 538 q 363 535 368 534 q 355 541 358 536 l 353 543 l 340 541 q 331 538 335 539 q 326 538 328 538 q 327 534 326 536 q 330 528 328 532 q 334 522 332 525 q 363 511 343 511 q 400 525 389 510 q 404 530 403 528 q 404 536 404 533 q 375 571 407 564 q 357 576 361 574 q 357 582 354 578 q 360 583 358 583 q 366 583 363 583 q 371 583 370 583 q 374 579 372 582 l 376 576 l 389 579 q 398 581 395 581 q 401 582 401 582 q 402 585 403 583 q 400 589 401 586 q 380 606 393 602 m 511 595 l 511 595 l 511 607 l 481 607 l 449 607 l 449 558 l 449 511 l 481 511 l 511 511 l 511 524 l 511 536 l 493 536 l 476 536 l 476 542 l 476 546 l 492 546 l 507 546 l 507 558 l 507 571 l 492 571 l 476 571 l 476 576 l 476 582 l 493 582 l 511 582 l 511 595 m 922 572 l 922 572 l 922 607 l 909 607 l 896 607 l 896 558 l 896 511 l 924 511 l 951 511 l 951 524 l 951 536 l 936 536 l 922 536 l 922 572 m 1002 595 l 1002 595 l 994 607 l 979 607 l 962 607 l 965 604 q 971 594 966 602 q 982 576 975 586 l 996 551 l 996 530 l 996 511 l 1008 511 l 1022 511 l 1022 530 l 1022 551 l 1036 576 q 1048 595 1043 587 q 1053 604 1053 603 l 1054 607 l 1039 607 l 1023 607 l 1017 595 q 1012 585 1014 589 q 1008 582 1010 582 q 1006 585 1008 582 q 1002 595 1004 589 m 673 749 l 673 749 q 699 743 689 754 q 703 717 708 732 q 681 704 694 703 q 661 721 667 705 q 663 737 660 729 q 673 749 667 745 m 205 742 l 205 742 l 205 749 l 212 749 q 220 748 218 749 q 221 743 221 747 q 219 738 221 739 q 212 734 216 736 l 205 734 l 205 742 m 427 742 l 427 742 l 427 749 l 435 749 q 443 748 441 749 q 444 742 444 747 q 433 734 444 734 l 427 734 l 427 742 m 937 729 l 937 729 q 939 736 937 733 q 940 737 940 739 q 942 732 940 737 q 943 726 943 729 l 947 714 l 940 714 l 933 714 l 933 718 q 934 721 933 718 q 936 728 935 724 q 937 729 936 729 m 667 581 l 667 581 q 685 580 676 585 q 697 566 694 575 q 693 545 700 553 q 675 536 686 536 q 657 547 664 536 q 655 567 652 557 q 667 581 659 576 m 195 170 l 195 170 q 212 171 203 172 q 227 165 221 170 q 231 161 229 164 q 235 155 233 158 q 236 151 236 153 q 235 151 236 151 q 232 150 235 150 q 229 151 231 150 q 227 154 228 151 q 209 163 221 163 q 191 155 197 164 q 183 135 182 149 q 193 115 184 121 q 214 113 201 110 q 225 120 221 115 q 229 129 229 125 l 229 132 l 220 132 l 210 132 l 210 136 l 210 140 l 224 140 l 236 140 l 236 122 l 236 106 l 233 106 q 229 107 229 106 q 232 114 229 109 q 233 117 233 117 q 232 118 233 118 q 231 117 232 118 q 228 114 229 115 q 207 104 221 104 q 179 121 189 104 q 177 125 178 123 q 176 129 176 126 q 176 138 176 132 q 176 146 176 143 q 177 150 176 149 q 179 154 178 151 q 195 170 184 165 m 452 168 l 452 168 q 461 171 454 171 l 468 171 l 468 167 l 468 163 l 463 163 q 457 162 458 163 q 454 160 456 161 q 454 156 454 158 q 453 153 453 154 l 453 150 l 458 150 l 464 150 l 464 146 l 464 142 l 457 142 q 451 142 453 142 q 447 140 449 142 q 448 140 447 140 q 450 138 449 139 q 452 135 452 136 q 453 131 453 134 q 453 119 453 127 l 453 106 l 449 106 l 444 106 l 444 123 l 444 142 l 441 142 q 439 142 440 142 q 439 146 439 143 q 439 149 439 149 q 441 150 440 150 q 444 151 444 150 q 444 154 444 151 q 452 168 444 163 m 566 138 l 566 138 l 566 171 l 570 171 l 574 171 l 574 138 l 574 106 l 570 106 l 566 106 l 566 138 m 604 138 l 604 138 l 604 171 l 608 171 l 612 171 l 612 138 l 612 106 l 608 106 l 604 106 l 604 138 m 704 168 l 704 168 q 713 171 707 171 l 720 171 l 720 167 l 720 163 l 714 163 q 709 162 711 163 q 707 160 707 161 q 705 156 705 158 q 704 153 704 154 l 704 150 l 710 150 l 717 150 l 717 146 l 717 142 l 708 142 q 702 142 704 142 q 700 140 700 142 q 699 140 699 140 q 701 138 700 139 q 703 135 703 136 q 704 131 704 134 q 704 119 704 127 l 704 106 l 700 106 l 696 106 l 696 123 l 696 142 l 694 142 q 692 142 692 142 q 692 146 692 143 q 692 149 692 149 q 694 150 692 150 q 696 151 696 150 q 696 154 696 151 q 704 168 696 163 m 342 155 l 342 155 l 342 161 l 346 161 l 350 161 l 350 155 l 350 150 l 355 150 l 359 150 l 359 146 l 359 142 l 353 142 q 347 138 340 142 q 349 136 349 138 q 349 133 349 135 q 350 125 350 131 l 350 114 l 355 113 l 361 113 l 361 109 l 361 106 l 354 106 q 349 106 350 106 q 345 109 347 106 l 342 111 l 342 126 l 342 142 l 339 142 q 336 142 336 142 q 335 146 335 143 q 336 149 335 149 q 339 150 336 150 q 341 150 340 150 q 342 151 342 150 q 342 155 342 153 m 884 155 l 884 155 l 884 161 l 888 161 l 890 161 l 890 155 l 890 150 l 896 150 l 901 150 l 901 146 l 901 142 l 895 142 q 888 142 889 142 q 886 140 886 142 q 887 140 886 140 q 889 138 888 139 q 890 137 889 138 q 890 134 890 136 q 890 127 890 132 q 892 115 890 118 q 897 113 893 113 q 901 113 900 113 q 903 112 903 113 q 903 109 903 111 l 903 106 l 897 106 q 891 106 893 106 q 888 109 889 106 l 884 111 l 884 126 l 884 142 l 880 142 q 878 142 879 142 q 878 146 878 143 q 878 149 878 149 q 880 150 879 150 q 883 150 882 150 q 884 151 884 150 q 884 155 884 153 m 1050 155 l 1050 155 l 1050 161 l 1054 161 l 1059 161 l 1059 155 l 1059 150 l 1063 150 l 1068 150 l 1068 146 l 1068 142 l 1061 142 q 1055 142 1057 142 q 1053 140 1053 142 q 1053 140 1053 140 q 1055 138 1054 139 q 1057 137 1057 138 q 1058 134 1057 136 q 1059 127 1059 132 q 1059 115 1059 118 q 1065 113 1060 113 q 1068 113 1067 113 q 1069 112 1069 113 q 1069 109 1069 111 l 1069 106 l 1064 106 q 1058 106 1060 106 q 1054 109 1055 106 l 1050 111 l 1050 126 l 1050 142 l 1047 142 q 1045 142 1046 142 q 1044 146 1044 143 q 1045 149 1044 149 q 1047 150 1046 150 q 1049 150 1048 150 q 1050 151 1050 150 q 1050 155 1050 153 m 282 149 l 282 149 q 301 146 293 153 q 311 129 310 140 l 311 125 l 293 125 q 280 124 283 125 q 276 122 277 123 q 278 118 275 121 q 287 112 281 113 q 298 115 293 111 q 303 119 301 118 q 308 119 306 119 q 310 118 310 119 q 307 114 310 117 q 301 109 304 111 q 297 106 298 106 q 286 105 292 104 q 277 107 281 106 q 268 129 267 115 q 282 149 269 143 m 297 140 l 297 140 q 287 142 292 143 q 278 136 282 142 q 277 134 278 135 q 277 132 277 132 q 280 132 277 132 q 288 131 283 131 q 297 132 293 131 q 301 132 301 132 q 302 134 302 132 q 300 138 301 136 q 297 140 298 139 m 754 149 l 754 149 q 762 150 758 150 q 771 149 766 150 q 783 126 783 143 q 780 113 783 119 q 770 106 777 107 q 758 104 764 103 q 747 110 751 106 q 741 121 743 114 q 741 135 739 127 q 746 143 742 139 q 754 149 750 147 m 770 140 l 770 140 q 751 138 758 146 q 750 118 745 131 q 759 112 753 113 q 771 114 765 111 q 775 128 775 119 q 770 140 775 136 m 828 149 l 828 149 q 840 149 835 151 q 848 142 846 147 q 850 136 850 140 q 850 122 850 132 l 850 106 l 847 106 l 843 106 l 843 121 q 843 132 843 127 q 842 138 843 136 q 840 140 842 139 q 836 142 839 142 q 828 140 832 143 q 823 135 823 139 q 821 119 822 131 l 821 106 l 817 106 l 814 106 l 814 127 l 814 150 l 818 150 q 821 149 821 150 q 819 144 821 147 q 817 142 818 143 q 817 139 817 140 l 817 136 l 818 139 q 823 145 821 143 q 828 149 825 147 m 991 149 l 991 149 q 997 150 994 150 q 1002 150 999 150 q 1015 144 1011 150 q 1018 126 1018 139 q 1018 119 1018 121 q 1018 115 1018 117 q 1019 114 1018 114 q 1021 111 1021 113 q 1021 107 1022 109 q 1019 106 1021 106 q 1013 113 1015 106 l 1010 117 l 1010 114 q 1006 106 1008 109 q 996 104 1003 104 q 985 109 989 104 q 981 118 981 113 q 989 127 982 123 q 994 130 990 129 q 1002 132 997 131 q 1007 133 1004 132 q 1010 134 1010 134 q 1010 135 1010 134 q 1008 138 1010 136 q 1004 142 1007 140 q 996 142 1000 143 q 990 138 991 142 q 988 136 989 136 q 985 136 987 136 q 982 137 982 136 q 983 142 982 138 q 987 146 985 144 q 991 149 989 147 m 1010 123 l 1010 123 q 1008 126 1010 126 q 1003 125 1007 126 q 1002 125 1003 125 q 994 122 997 123 q 991 120 991 121 q 989 119 990 119 q 989 117 989 118 q 997 111 989 111 q 1006 115 1002 111 q 1010 123 1010 119 m 493 132 l 493 132 l 493 150 l 497 150 l 501 150 l 501 134 q 501 121 501 125 q 502 117 501 118 q 503 114 503 115 q 513 113 507 111 q 521 118 518 114 q 522 124 522 121 q 522 136 522 127 l 524 150 l 526 150 l 530 150 l 530 132 q 530 123 530 126 q 530 117 530 119 q 531 115 530 115 q 533 114 532 114 q 534 111 534 113 q 534 107 534 109 q 533 106 534 106 q 528 108 530 106 q 524 114 525 110 q 522 115 522 115 q 521 111 522 114 q 517 106 519 107 q 510 104 515 104 q 494 111 500 104 q 494 118 494 114 q 493 132 493 122 m 196 49 l 196 49 q 199 50 197 49 q 204 50 201 50 l 210 49 l 210 45 l 210 40 l 204 40 q 198 39 200 40 q 195 37 196 39 q 193 33 193 35 q 192 29 192 32 l 192 25 l 197 25 l 204 25 l 204 20 l 204 16 l 195 16 q 188 16 191 16 q 184 14 184 16 q 185 13 184 14 q 187 11 186 12 l 192 8 l 192 -9 l 192 -28 l 186 -28 l 182 -28 l 182 -7 l 182 16 l 178 16 q 176 16 176 16 q 175 17 175 16 q 175 20 175 18 q 176 24 175 22 q 178 25 176 25 q 180 25 179 25 q 181 26 180 25 q 182 31 182 28 q 196 49 183 46 m 575 36 l 575 36 l 575 50 l 579 50 l 585 50 l 585 17 q 585 1 585 7 q 585 -9 585 -5 q 585 -15 585 -14 q 586 -17 586 -17 q 588 -18 587 -18 q 589 -18 589 -18 q 590 -20 590 -18 q 590 -24 590 -21 q 589 -26 590 -25 q 589 -28 589 -28 q 584 -26 587 -28 q 579 -22 581 -25 l 576 -20 l 572 -24 q 549 -28 561 -32 q 536 -12 539 -22 q 537 9 533 -1 q 550 24 541 20 q 553 26 551 25 q 557 26 555 26 q 567 24 561 26 q 575 17 572 21 q 578 18 583 8 q 576 22 576 20 q 576 27 576 24 q 575 36 575 31 m 568 12 l 568 12 q 561 16 566 16 q 551 14 555 17 q 545 -4 545 8 q 547 -9 546 -7 q 547 -14 547 -12 q 557 -20 551 -18 q 568 -17 562 -21 q 575 -2 575 -11 q 568 12 575 7 m 627 45 l 627 45 l 627 50 l 631 50 l 635 49 l 636 45 l 636 39 l 631 39 l 627 39 l 627 45 m 397 32 l 397 32 l 397 39 l 401 39 l 407 39 l 407 32 l 407 25 l 412 25 l 419 25 l 419 20 l 419 16 l 410 16 q 404 15 406 16 q 401 14 401 14 q 402 12 401 12 q 403 11 403 11 q 404 11 403 11 q 406 9 404 11 q 406 6 406 9 q 407 -4 407 3 q 408 -17 407 -16 q 410 -18 408 -18 q 415 -18 412 -18 l 419 -18 l 419 -24 l 419 -28 l 414 -28 q 404 -26 407 -28 q 400 -22 401 -25 q 398 -15 399 -20 q 397 -1 397 -9 l 397 16 l 395 16 q 393 16 393 16 q 391 17 392 16 q 390 20 390 18 q 391 24 390 22 q 393 25 392 25 q 395 25 393 25 l 397 25 l 397 32 m 1051 32 l 1051 32 l 1051 39 l 1055 39 l 1061 39 l 1061 32 l 1061 25 l 1067 25 l 1072 25 l 1072 20 l 1072 16 l 1064 16 q 1056 15 1057 16 q 1059 11 1054 14 q 1060 8 1060 9 q 1061 4 1060 7 q 1061 -4 1061 1 l 1061 -18 l 1068 -18 l 1074 -18 l 1074 -24 l 1074 -29 l 1067 -28 q 1059 -27 1061 -28 q 1055 -24 1057 -26 l 1051 -21 l 1051 -3 l 1051 16 l 1047 16 q 1045 16 1046 16 q 1044 17 1044 16 q 1044 20 1044 18 q 1044 24 1044 22 q 1045 25 1044 25 q 1047 25 1046 25 l 1051 25 l 1051 32 m 249 25 l 249 25 q 260 25 254 26 q 271 20 267 24 l 273 17 l 273 21 q 274 24 273 24 q 278 25 275 25 l 282 25 l 282 -7 q 282 -26 282 -20 q 282 -35 282 -32 q 281 -40 282 -39 q 279 -43 281 -41 q 277 -46 279 -45 q 273 -49 275 -47 q 270 -51 272 -50 q 264 -52 268 -52 q 254 -52 261 -52 l 239 -52 l 239 -47 l 239 -43 l 252 -43 q 261 -42 257 -43 q 267 -41 265 -41 q 273 -29 273 -37 q 274 -26 273 -28 q 277 -22 275 -24 q 273 -20 281 -12 q 261 -28 268 -25 q 248 -28 254 -31 q 239 -22 243 -26 q 235 -12 236 -17 q 233 -2 233 -8 q 235 8 233 4 q 239 18 236 14 q 249 25 243 22 m 265 14 l 265 14 q 259 16 264 16 q 252 16 254 17 q 243 3 244 12 q 245 -14 241 -5 q 258 -20 250 -21 q 271 -11 265 -20 q 272 1 273 -5 q 265 14 271 8 m 330 25 l 330 25 q 336 25 334 25 q 342 25 339 25 q 358 16 354 25 q 360 9 361 11 q 355 8 359 8 q 350 9 350 8 q 347 15 350 12 q 340 17 343 17 q 331 13 334 17 q 332 7 328 8 q 337 5 334 5 q 345 3 340 4 q 357 -3 354 0 q 361 -12 361 -7 q 361 -18 361 -16 q 358 -22 361 -20 q 337 -29 350 -31 q 319 -18 325 -28 q 318 -11 318 -12 q 322 -9 318 -9 q 327 -10 326 -9 q 328 -12 328 -11 q 328 -14 328 -12 q 332 -17 329 -16 q 334 -19 334 -18 q 337 -20 335 -20 q 342 -20 339 -20 q 348 -19 346 -20 q 350 -17 350 -18 q 352 -15 351 -16 q 353 -12 353 -14 q 338 -5 353 -9 q 330 -3 334 -4 q 325 0 326 -1 q 321 5 322 1 q 319 12 319 8 q 324 20 321 17 q 330 25 328 24 m 689 25 l 689 25 q 705 24 697 26 q 718 14 713 21 q 720 7 720 9 q 721 0 721 4 q 713 -24 722 -16 q 689 -28 701 -32 q 672 -9 676 -24 q 671 1 671 -4 q 673 11 671 7 q 681 20 676 16 q 689 25 685 24 m 703 16 l 703 16 q 692 15 697 17 q 684 9 688 14 q 681 1 681 5 q 681 -8 681 -4 q 694 -20 685 -18 q 710 -12 704 -21 q 712 3 714 -5 q 703 16 710 11 m 768 24 l 768 24 q 786 24 778 28 q 793 19 790 22 q 796 14 796 16 q 797 12 796 12 q 798 9 798 11 q 797 9 798 9 q 793 8 796 8 q 789 9 790 8 q 787 11 787 9 q 781 15 786 14 q 770 15 775 17 q 765 9 765 14 q 767 7 765 8 q 772 5 768 7 q 783 1 775 4 q 793 -2 790 0 q 798 -8 796 -4 q 794 -24 800 -18 q 777 -29 787 -29 q 762 -24 768 -29 q 755 -12 755 -20 q 756 -10 755 -11 q 760 -9 757 -9 q 764 -10 762 -9 q 765 -12 765 -11 q 778 -20 766 -20 q 789 -14 786 -20 q 787 -9 789 -11 q 779 -7 785 -8 q 765 -2 770 -4 q 758 3 761 0 q 756 6 757 4 q 757 11 755 8 q 768 24 757 21 m 901 22 l 901 22 q 906 25 904 24 q 909 26 908 26 q 921 22 916 26 q 928 12 926 18 q 928 5 928 11 q 929 -9 929 -1 l 929 -28 l 924 -28 l 920 -28 l 920 -12 q 919 6 920 0 q 916 14 918 12 q 905 15 911 17 q 897 8 900 14 q 895 5 896 7 q 895 -1 895 3 q 895 -11 895 -4 l 893 -28 l 889 -28 l 885 -28 l 885 -1 l 885 25 l 889 25 q 893 24 892 25 q 895 22 895 24 q 893 21 895 22 q 892 18 892 20 q 889 12 889 16 q 889 10 889 9 q 892 16 889 11 q 901 22 896 20 m 983 25 l 983 25 q 996 25 989 26 q 1007 18 1003 24 q 1013 11 1011 16 q 1015 1 1014 7 l 1015 -5 l 994 -5 q 983 -5 987 -5 q 977 -5 979 -5 q 975 -6 975 -5 q 974 -7 974 -7 q 977 -13 974 -9 q 982 -18 979 -16 q 992 -20 986 -21 q 1003 -14 999 -18 q 1004 -12 1003 -12 q 1008 -11 1006 -11 q 1013 -12 1013 -11 q 1011 -18 1014 -14 q 997 -28 1006 -25 q 981 -28 989 -31 q 964 -1 964 -21 q 983 25 965 20 m 997 14 l 997 14 q 990 16 994 16 q 983 16 986 17 q 978 11 981 14 q 975 5 975 8 l 974 3 l 989 3 q 999 3 996 3 q 1004 3 1003 3 q 1004 5 1004 4 q 1002 9 1004 7 q 997 14 1000 12 m 454 5 l 454 5 l 454 25 l 458 25 l 463 25 l 463 5 q 463 -5 463 -1 q 463 -12 463 -9 q 464 -15 464 -14 q 465 -17 464 -16 q 476 -20 469 -21 q 485 -12 482 -18 q 487 -9 486 -11 q 488 -3 488 -7 q 488 8 488 1 l 489 25 l 493 25 l 497 25 l 497 5 l 497 -16 l 500 -17 q 502 -20 501 -18 q 503 -24 503 -21 q 501 -28 503 -28 q 495 -26 498 -28 q 490 -20 492 -24 q 488 -18 489 -17 q 486 -24 486 -18 q 480 -28 485 -26 q 471 -29 476 -29 q 461 -26 465 -29 q 458 -24 460 -25 q 456 -20 457 -22 q 455 -15 456 -18 q 454 -8 454 -12 q 454 5 454 -4 m 627 -1 l 627 -1 l 627 25 l 631 25 l 635 24 l 636 -1 l 636 -28 l 631 -28 l 627 -28 l 627 -1 m 836 -17 l 836 -17 q 838 -16 836 -16 q 842 -16 840 -16 l 847 -16 l 847 -22 l 847 -28 l 842 -28 l 835 -28 l 835 -22 q 836 -18 835 -20 q 836 -17 836 -17 z "},"3":{"ha":1250,"x_min":83,"x_max":1166,"o":"m 328 1032 l 328 1032 q 420 1033 335 1032 q 631 1034 505 1034 l 926 1034 l 942 1031 q 1063 978 1008 1018 q 1085 957 1071 970 q 1107 932 1099 943 q 1160 827 1146 885 q 1161 822 1161 823 q 1164 807 1162 814 q 1166 787 1165 800 q 1166 748 1166 774 q 1166 676 1166 722 q 1166 652 1166 665 q 1166 563 1166 596 q 1166 514 1166 530 q 1165 489 1166 497 q 1162 472 1164 481 q 1084 332 1146 390 q 940 258 1026 273 l 924 256 l 632 256 q 486 254 543 254 q 397 255 429 254 q 347 256 364 256 q 323 256 330 256 q 307 258 315 257 q 307 260 307 258 q 147 351 211 277 q 86 482 100 407 l 83 498 l 83 643 l 83 787 l 86 803 q 163 954 100 892 q 328 1032 231 1021 m 699 774 l 699 774 q 664 772 681 779 q 637 747 647 765 q 635 742 636 745 q 635 736 635 739 q 635 726 635 733 q 635 718 635 721 q 635 712 635 714 q 637 707 636 710 q 660 684 646 692 q 690 679 673 676 q 725 703 714 684 q 729 745 736 722 q 716 762 725 754 q 699 774 708 770 m 854 728 l 854 728 l 854 777 l 842 777 l 829 777 l 829 754 l 828 733 l 815 754 l 802 775 l 789 775 l 775 775 l 775 726 l 775 679 l 789 679 l 803 679 l 803 700 l 803 722 l 817 701 l 831 679 l 843 679 l 854 679 l 854 728 m 228 774 l 228 774 q 222 774 225 774 q 215 775 220 775 q 200 775 210 775 l 179 775 l 179 726 l 179 679 l 192 679 l 205 679 l 205 694 l 205 710 l 215 711 q 224 712 221 711 q 231 714 228 713 q 249 745 250 725 q 228 774 245 765 m 353 762 l 353 762 l 353 775 l 322 775 l 290 775 l 290 726 l 290 679 l 322 679 l 353 679 l 353 692 l 353 704 l 335 704 l 318 704 l 318 708 l 318 714 l 334 714 l 349 714 l 349 726 l 349 739 l 334 739 l 318 739 l 318 745 l 318 749 l 335 749 l 353 749 l 353 762 m 454 771 l 454 771 l 449 775 l 424 775 l 400 775 l 400 728 l 400 679 l 412 679 l 427 679 l 427 694 q 427 706 427 703 q 428 710 427 710 q 432 706 429 710 q 439 694 435 701 l 449 679 l 464 679 q 474 679 469 679 q 479 679 479 679 q 476 685 479 679 q 468 697 472 690 l 457 714 l 461 718 q 465 723 463 721 q 468 728 467 725 q 471 733 471 730 q 471 742 471 736 q 471 751 471 747 q 469 755 471 754 q 454 771 464 765 m 567 774 l 567 774 q 552 775 561 775 q 538 772 543 775 q 515 749 517 765 q 516 738 515 742 q 521 729 517 733 q 549 717 528 721 q 560 714 557 715 q 566 710 564 713 q 566 707 566 708 q 564 705 566 707 q 553 703 559 703 q 543 708 546 704 l 541 711 l 533 710 q 532 710 533 710 q 526 707 529 708 q 521 707 522 707 q 515 704 515 705 q 517 697 514 703 q 541 679 524 684 q 576 684 558 675 q 591 711 595 692 q 558 739 591 733 q 545 749 538 743 q 553 751 547 751 q 561 747 558 751 l 564 745 l 578 747 q 585 749 582 749 q 588 749 587 749 q 589 751 589 750 q 589 753 590 751 q 581 765 587 760 q 567 774 575 771 m 957 768 l 957 768 l 954 775 l 939 775 l 925 775 l 909 728 q 899 694 904 708 q 895 679 895 681 q 899 679 895 679 q 908 679 903 679 l 922 679 l 924 685 l 925 690 l 940 689 l 954 689 l 956 684 l 957 679 l 971 679 q 982 679 979 679 q 985 681 985 679 q 982 688 985 681 q 971 722 978 700 q 962 748 966 736 q 957 766 958 761 q 957 768 957 768 m 1050 741 l 1050 741 l 1050 775 l 1038 775 l 1023 775 l 1023 726 l 1023 679 l 1051 679 l 1079 679 l 1079 692 l 1079 704 l 1065 704 l 1050 704 l 1050 741 m 685 607 l 685 607 q 643 596 661 611 q 627 552 624 576 q 654 515 631 528 q 661 512 659 513 q 666 511 663 511 q 676 511 669 511 q 686 511 682 511 q 691 512 689 511 q 697 515 693 513 q 711 525 704 518 q 721 538 718 532 q 725 568 728 553 q 710 595 721 583 q 685 607 699 604 m 848 559 l 848 559 l 848 608 l 835 608 q 822 607 821 608 q 821 600 821 606 q 821 586 821 595 l 821 567 l 808 586 l 794 607 l 782 607 l 770 607 l 770 558 l 770 511 l 783 511 l 796 511 l 796 532 l 798 554 l 811 532 l 823 511 l 836 511 l 848 511 l 848 559 m 231 578 l 231 578 l 231 607 l 216 607 l 204 607 l 204 572 l 204 538 l 208 532 q 217 520 211 525 q 229 513 222 515 q 243 511 235 511 q 258 513 252 511 q 272 522 265 515 q 279 534 278 528 q 281 541 281 538 q 282 551 282 545 q 282 574 282 558 l 282 607 l 269 607 l 256 607 l 256 578 q 256 553 256 561 q 254 543 256 546 q 250 538 253 541 q 242 536 245 536 q 235 539 239 536 q 232 544 233 541 q 231 554 231 547 q 231 578 231 561 m 380 606 l 380 606 q 366 607 375 607 q 350 606 357 607 q 340 600 345 604 q 332 591 335 596 q 328 587 329 590 q 328 581 328 585 q 329 569 328 572 q 335 561 330 566 q 345 554 339 557 q 363 549 351 551 q 378 542 378 546 q 373 536 378 538 q 363 535 368 534 q 355 541 358 536 l 353 543 l 340 541 q 331 538 335 539 q 326 538 328 538 q 327 534 326 536 q 330 528 328 532 q 334 522 332 525 q 363 511 343 511 q 400 525 389 510 q 404 530 403 528 q 404 536 404 533 q 375 571 407 564 q 357 576 361 574 q 357 582 354 578 q 360 583 358 583 q 366 583 363 583 q 371 583 370 583 q 374 579 372 582 l 376 576 l 389 579 q 398 581 395 581 q 401 582 401 582 q 402 585 403 583 q 400 589 401 586 q 380 606 393 602 m 511 595 l 511 595 l 511 607 l 481 607 l 449 607 l 449 558 l 449 511 l 481 511 l 511 511 l 511 524 l 511 536 l 493 536 l 476 536 l 476 542 l 476 546 l 492 546 l 507 546 l 507 558 l 507 571 l 492 571 l 476 571 l 476 576 l 476 582 l 493 582 l 511 582 l 511 595 m 922 572 l 922 572 l 922 607 l 909 607 l 896 607 l 896 558 l 896 511 l 924 511 l 951 511 l 951 524 l 951 536 l 936 536 l 922 536 l 922 572 m 1002 595 l 1002 595 l 994 607 l 979 607 l 962 607 l 965 604 q 971 594 966 602 q 982 576 975 586 l 996 551 l 996 530 l 996 511 l 1008 511 l 1022 511 l 1022 530 l 1022 551 l 1036 576 q 1048 595 1043 587 q 1053 604 1053 603 l 1054 607 l 1039 607 l 1023 607 l 1017 595 q 1012 585 1014 589 q 1008 582 1010 582 q 1006 585 1008 582 q 1002 595 1004 589 m 673 749 l 673 749 q 699 743 689 754 q 703 717 708 732 q 681 704 694 703 q 661 721 667 705 q 663 737 660 729 q 673 749 667 745 m 205 742 l 205 742 l 205 749 l 212 749 q 220 748 218 749 q 221 743 221 747 q 219 738 221 739 q 212 734 216 736 l 205 734 l 205 742 m 427 742 l 427 742 l 427 749 l 435 749 q 443 748 441 749 q 444 742 444 747 q 433 734 444 734 l 427 734 l 427 742 m 937 729 l 937 729 q 939 736 937 733 q 940 737 940 739 q 942 732 940 737 q 943 726 943 729 l 947 714 l 940 714 l 933 714 l 933 718 q 934 721 933 718 q 936 728 935 724 q 937 729 936 729 m 667 581 l 667 581 q 685 580 676 585 q 697 566 694 575 q 693 545 700 553 q 675 536 686 536 q 657 547 664 536 q 655 567 652 557 q 667 581 659 576 m 195 170 l 195 170 q 212 171 203 172 q 227 165 221 170 q 231 161 229 164 q 235 155 233 158 q 236 151 236 153 q 235 151 236 151 q 232 150 235 150 q 229 151 231 150 q 227 154 228 151 q 209 163 221 163 q 191 155 197 164 q 183 135 182 149 q 193 115 184 121 q 214 113 201 110 q 225 120 221 115 q 229 129 229 125 l 229 132 l 220 132 l 210 132 l 210 136 l 210 140 l 224 140 l 236 140 l 236 122 l 236 106 l 233 106 q 229 107 229 106 q 232 114 229 109 q 233 117 233 117 q 232 118 233 118 q 231 117 232 118 q 228 114 229 115 q 207 104 221 104 q 179 121 189 104 q 177 125 178 123 q 176 129 176 126 q 176 138 176 132 q 176 146 176 143 q 177 150 176 149 q 179 154 178 151 q 195 170 184 165 m 452 168 l 452 168 q 461 171 454 171 l 468 171 l 468 167 l 468 163 l 463 163 q 457 162 458 163 q 454 160 456 161 q 454 156 454 158 q 453 153 453 154 l 453 150 l 458 150 l 464 150 l 464 146 l 464 142 l 457 142 q 451 142 453 142 q 447 140 449 142 q 448 140 447 140 q 450 138 449 139 q 452 135 452 136 q 453 131 453 134 q 453 119 453 127 l 453 106 l 449 106 l 444 106 l 444 123 l 444 142 l 441 142 q 439 142 440 142 q 439 146 439 143 q 439 149 439 149 q 441 150 440 150 q 444 151 444 150 q 444 154 444 151 q 452 168 444 163 m 566 138 l 566 138 l 566 171 l 570 171 l 574 171 l 574 138 l 574 106 l 570 106 l 566 106 l 566 138 m 604 138 l 604 138 l 604 171 l 608 171 l 612 171 l 612 138 l 612 106 l 608 106 l 604 106 l 604 138 m 704 168 l 704 168 q 713 171 707 171 l 720 171 l 720 167 l 720 163 l 714 163 q 709 162 711 163 q 707 160 707 161 q 705 156 705 158 q 704 153 704 154 l 704 150 l 710 150 l 717 150 l 717 146 l 717 142 l 708 142 q 702 142 704 142 q 700 140 700 142 q 699 140 699 140 q 701 138 700 139 q 703 135 703 136 q 704 131 704 134 q 704 119 704 127 l 704 106 l 700 106 l 696 106 l 696 123 l 696 142 l 694 142 q 692 142 692 142 q 692 146 692 143 q 692 149 692 149 q 694 150 692 150 q 696 151 696 150 q 696 154 696 151 q 704 168 696 163 m 342 155 l 342 155 l 342 161 l 346 161 l 350 161 l 350 155 l 350 150 l 355 150 l 359 150 l 359 146 l 359 142 l 353 142 q 347 138 340 142 q 349 136 349 138 q 349 133 349 135 q 350 125 350 131 l 350 114 l 355 113 l 361 113 l 361 109 l 361 106 l 354 106 q 349 106 350 106 q 345 109 347 106 l 342 111 l 342 126 l 342 142 l 339 142 q 336 142 336 142 q 335 146 335 143 q 336 149 335 149 q 339 150 336 150 q 341 150 340 150 q 342 151 342 150 q 342 155 342 153 m 884 155 l 884 155 l 884 161 l 888 161 l 890 161 l 890 155 l 890 150 l 896 150 l 901 150 l 901 146 l 901 142 l 895 142 q 888 142 889 142 q 886 140 886 142 q 887 140 886 140 q 889 138 888 139 q 890 137 889 138 q 890 134 890 136 q 890 127 890 132 q 892 115 890 118 q 897 113 893 113 q 901 113 900 113 q 903 112 903 113 q 903 109 903 111 l 903 106 l 897 106 q 891 106 893 106 q 888 109 889 106 l 884 111 l 884 126 l 884 142 l 880 142 q 878 142 879 142 q 878 146 878 143 q 878 149 878 149 q 880 150 879 150 q 883 150 882 150 q 884 151 884 150 q 884 155 884 153 m 1050 155 l 1050 155 l 1050 161 l 1054 161 l 1059 161 l 1059 155 l 1059 150 l 1063 150 l 1068 150 l 1068 146 l 1068 142 l 1061 142 q 1055 142 1057 142 q 1053 140 1053 142 q 1053 140 1053 140 q 1055 138 1054 139 q 1057 137 1057 138 q 1058 134 1057 136 q 1059 127 1059 132 q 1059 115 1059 118 q 1065 113 1060 113 q 1068 113 1067 113 q 1069 112 1069 113 q 1069 109 1069 111 l 1069 106 l 1064 106 q 1058 106 1060 106 q 1054 109 1055 106 l 1050 111 l 1050 126 l 1050 142 l 1047 142 q 1045 142 1046 142 q 1044 146 1044 143 q 1045 149 1044 149 q 1047 150 1046 150 q 1049 150 1048 150 q 1050 151 1050 150 q 1050 155 1050 153 m 282 149 l 282 149 q 301 146 293 153 q 311 129 310 140 l 311 125 l 293 125 q 280 124 283 125 q 276 122 277 123 q 278 118 275 121 q 287 112 281 113 q 298 115 293 111 q 303 119 301 118 q 308 119 306 119 q 310 118 310 119 q 307 114 310 117 q 301 109 304 111 q 297 106 298 106 q 286 105 292 104 q 277 107 281 106 q 268 129 267 115 q 282 149 269 143 m 297 140 l 297 140 q 287 142 292 143 q 278 136 282 142 q 277 134 278 135 q 277 132 277 132 q 280 132 277 132 q 288 131 283 131 q 297 132 293 131 q 301 132 301 132 q 302 134 302 132 q 300 138 301 136 q 297 140 298 139 m 754 149 l 754 149 q 762 150 758 150 q 771 149 766 150 q 783 126 783 143 q 780 113 783 119 q 770 106 777 107 q 758 104 764 103 q 747 110 751 106 q 741 121 743 114 q 741 135 739 127 q 746 143 742 139 q 754 149 750 147 m 770 140 l 770 140 q 751 138 758 146 q 750 118 745 131 q 759 112 753 113 q 771 114 765 111 q 775 128 775 119 q 770 140 775 136 m 828 149 l 828 149 q 840 149 835 151 q 848 142 846 147 q 850 136 850 140 q 850 122 850 132 l 850 106 l 847 106 l 843 106 l 843 121 q 843 132 843 127 q 842 138 843 136 q 840 140 842 139 q 836 142 839 142 q 828 140 832 143 q 823 135 823 139 q 821 119 822 131 l 821 106 l 817 106 l 814 106 l 814 127 l 814 150 l 818 150 q 821 149 821 150 q 819 144 821 147 q 817 142 818 143 q 817 139 817 140 l 817 136 l 818 139 q 823 145 821 143 q 828 149 825 147 m 991 149 l 991 149 q 997 150 994 150 q 1002 150 999 150 q 1015 144 1011 150 q 1018 126 1018 139 q 1018 119 1018 121 q 1018 115 1018 117 q 1019 114 1018 114 q 1021 111 1021 113 q 1021 107 1022 109 q 1019 106 1021 106 q 1013 113 1015 106 l 1010 117 l 1010 114 q 1006 106 1008 109 q 996 104 1003 104 q 985 109 989 104 q 981 118 981 113 q 989 127 982 123 q 994 130 990 129 q 1002 132 997 131 q 1007 133 1004 132 q 1010 134 1010 134 q 1010 135 1010 134 q 1008 138 1010 136 q 1004 142 1007 140 q 996 142 1000 143 q 990 138 991 142 q 988 136 989 136 q 985 136 987 136 q 982 137 982 136 q 983 142 982 138 q 987 146 985 144 q 991 149 989 147 m 1010 123 l 1010 123 q 1008 126 1010 126 q 1003 125 1007 126 q 1002 125 1003 125 q 994 122 997 123 q 991 120 991 121 q 989 119 990 119 q 989 117 989 118 q 997 111 989 111 q 1006 115 1002 111 q 1010 123 1010 119 m 493 132 l 493 132 l 493 150 l 497 150 l 501 150 l 501 134 q 501 121 501 125 q 502 117 501 118 q 503 114 503 115 q 513 113 507 111 q 521 118 518 114 q 522 124 522 121 q 522 136 522 127 l 524 150 l 526 150 l 530 150 l 530 132 q 530 123 530 126 q 530 117 530 119 q 531 115 530 115 q 533 114 532 114 q 534 111 534 113 q 534 107 534 109 q 533 106 534 106 q 528 108 530 106 q 524 114 525 110 q 522 115 522 115 q 521 111 522 114 q 517 106 519 107 q 510 104 515 104 q 494 111 500 104 q 494 118 494 114 q 493 132 493 122 m 196 49 l 196 49 q 199 50 197 49 q 204 50 201 50 l 210 49 l 210 45 l 210 40 l 204 40 q 198 39 200 40 q 195 37 196 39 q 193 33 193 35 q 192 29 192 32 l 192 25 l 197 25 l 204 25 l 204 20 l 204 16 l 195 16 q 188 16 191 16 q 184 14 184 16 q 185 13 184 14 q 187 11 186 12 l 192 8 l 192 -9 l 192 -28 l 186 -28 l 182 -28 l 182 -7 l 182 16 l 178 16 q 176 16 176 16 q 175 17 175 16 q 175 20 175 18 q 176 24 175 22 q 178 25 176 25 q 180 25 179 25 q 181 26 180 25 q 182 31 182 28 q 196 49 183 46 m 575 36 l 575 36 l 575 50 l 579 50 l 585 50 l 585 17 q 585 1 585 7 q 585 -9 585 -5 q 585 -15 585 -14 q 586 -17 586 -17 q 588 -18 587 -18 q 589 -18 589 -18 q 590 -20 590 -18 q 590 -24 590 -21 q 589 -26 590 -25 q 589 -28 589 -28 q 584 -26 587 -28 q 579 -22 581 -25 l 576 -20 l 572 -24 q 549 -28 561 -32 q 536 -12 539 -22 q 537 9 533 -1 q 550 24 541 20 q 553 26 551 25 q 557 26 555 26 q 567 24 561 26 q 575 17 572 21 q 578 18 583 8 q 576 22 576 20 q 576 27 576 24 q 575 36 575 31 m 568 12 l 568 12 q 561 16 566 16 q 551 14 555 17 q 545 -4 545 8 q 547 -9 546 -7 q 547 -14 547 -12 q 557 -20 551 -18 q 568 -17 562 -21 q 575 -2 575 -11 q 568 12 575 7 m 627 45 l 627 45 l 627 50 l 631 50 l 635 49 l 636 45 l 636 39 l 631 39 l 627 39 l 627 45 m 397 32 l 397 32 l 397 39 l 401 39 l 407 39 l 407 32 l 407 25 l 412 25 l 419 25 l 419 20 l 419 16 l 410 16 q 404 15 406 16 q 401 14 401 14 q 402 12 401 12 q 403 11 403 11 q 404 11 403 11 q 406 9 404 11 q 406 6 406 9 q 407 -4 407 3 q 408 -17 407 -16 q 410 -18 408 -18 q 415 -18 412 -18 l 419 -18 l 419 -24 l 419 -28 l 414 -28 q 404 -26 407 -28 q 400 -22 401 -25 q 398 -15 399 -20 q 397 -1 397 -9 l 397 16 l 395 16 q 393 16 393 16 q 391 17 392 16 q 390 20 390 18 q 391 24 390 22 q 393 25 392 25 q 395 25 393 25 l 397 25 l 397 32 m 1051 32 l 1051 32 l 1051 39 l 1055 39 l 1061 39 l 1061 32 l 1061 25 l 1067 25 l 1072 25 l 1072 20 l 1072 16 l 1064 16 q 1056 15 1057 16 q 1059 11 1054 14 q 1060 8 1060 9 q 1061 4 1060 7 q 1061 -4 1061 1 l 1061 -18 l 1068 -18 l 1074 -18 l 1074 -24 l 1074 -29 l 1067 -28 q 1059 -27 1061 -28 q 1055 -24 1057 -26 l 1051 -21 l 1051 -3 l 1051 16 l 1047 16 q 1045 16 1046 16 q 1044 17 1044 16 q 1044 20 1044 18 q 1044 24 1044 22 q 1045 25 1044 25 q 1047 25 1046 25 l 1051 25 l 1051 32 m 249 25 l 249 25 q 260 25 254 26 q 271 20 267 24 l 273 17 l 273 21 q 274 24 273 24 q 278 25 275 25 l 282 25 l 282 -7 q 282 -26 282 -20 q 282 -35 282 -32 q 281 -40 282 -39 q 279 -43 281 -41 q 277 -46 279 -45 q 273 -49 275 -47 q 270 -51 272 -50 q 264 -52 268 -52 q 254 -52 261 -52 l 239 -52 l 239 -47 l 239 -43 l 252 -43 q 261 -42 257 -43 q 267 -41 265 -41 q 273 -29 273 -37 q 274 -26 273 -28 q 277 -22 275 -24 q 273 -20 281 -12 q 261 -28 268 -25 q 248 -28 254 -31 q 239 -22 243 -26 q 235 -12 236 -17 q 233 -2 233 -8 q 235 8 233 4 q 239 18 236 14 q 249 25 243 22 m 265 14 l 265 14 q 259 16 264 16 q 252 16 254 17 q 243 3 244 12 q 245 -14 241 -5 q 258 -20 250 -21 q 271 -11 265 -20 q 272 1 273 -5 q 265 14 271 8 m 330 25 l 330 25 q 336 25 334 25 q 342 25 339 25 q 358 16 354 25 q 360 9 361 11 q 355 8 359 8 q 350 9 350 8 q 347 15 350 12 q 340 17 343 17 q 331 13 334 17 q 332 7 328 8 q 337 5 334 5 q 345 3 340 4 q 357 -3 354 0 q 361 -12 361 -7 q 361 -18 361 -16 q 358 -22 361 -20 q 337 -29 350 -31 q 319 -18 325 -28 q 318 -11 318 -12 q 322 -9 318 -9 q 327 -10 326 -9 q 328 -12 328 -11 q 328 -14 328 -12 q 332 -17 329 -16 q 334 -19 334 -18 q 337 -20 335 -20 q 342 -20 339 -20 q 348 -19 346 -20 q 350 -17 350 -18 q 352 -15 351 -16 q 353 -12 353 -14 q 338 -5 353 -9 q 330 -3 334 -4 q 325 0 326 -1 q 321 5 322 1 q 319 12 319 8 q 324 20 321 17 q 330 25 328 24 m 689 25 l 689 25 q 705 24 697 26 q 718 14 713 21 q 720 7 720 9 q 721 0 721 4 q 713 -24 722 -16 q 689 -28 701 -32 q 672 -9 676 -24 q 671 1 671 -4 q 673 11 671 7 q 681 20 676 16 q 689 25 685 24 m 703 16 l 703 16 q 692 15 697 17 q 684 9 688 14 q 681 1 681 5 q 681 -8 681 -4 q 694 -20 685 -18 q 710 -12 704 -21 q 712 3 714 -5 q 703 16 710 11 m 768 24 l 768 24 q 786 24 778 28 q 793 19 790 22 q 796 14 796 16 q 797 12 796 12 q 798 9 798 11 q 797 9 798 9 q 793 8 796 8 q 789 9 790 8 q 787 11 787 9 q 781 15 786 14 q 770 15 775 17 q 765 9 765 14 q 767 7 765 8 q 772 5 768 7 q 783 1 775 4 q 793 -2 790 0 q 798 -8 796 -4 q 794 -24 800 -18 q 777 -29 787 -29 q 762 -24 768 -29 q 755 -12 755 -20 q 756 -10 755 -11 q 760 -9 757 -9 q 764 -10 762 -9 q 765 -12 765 -11 q 778 -20 766 -20 q 789 -14 786 -20 q 787 -9 789 -11 q 779 -7 785 -8 q 765 -2 770 -4 q 758 3 761 0 q 756 6 757 4 q 757 11 755 8 q 768 24 757 21 m 901 22 l 901 22 q 906 25 904 24 q 909 26 908 26 q 921 22 916 26 q 928 12 926 18 q 928 5 928 11 q 929 -9 929 -1 l 929 -28 l 924 -28 l 920 -28 l 920 -12 q 919 6 920 0 q 916 14 918 12 q 905 15 911 17 q 897 8 900 14 q 895 5 896 7 q 895 -1 895 3 q 895 -11 895 -4 l 893 -28 l 889 -28 l 885 -28 l 885 -1 l 885 25 l 889 25 q 893 24 892 25 q 895 22 895 24 q 893 21 895 22 q 892 18 892 20 q 889 12 889 16 q 889 10 889 9 q 892 16 889 11 q 901 22 896 20 m 983 25 l 983 25 q 996 25 989 26 q 1007 18 1003 24 q 1013 11 1011 16 q 1015 1 1014 7 l 1015 -5 l 994 -5 q 983 -5 987 -5 q 977 -5 979 -5 q 975 -6 975 -5 q 974 -7 974 -7 q 977 -13 974 -9 q 982 -18 979 -16 q 992 -20 986 -21 q 1003 -14 999 -18 q 1004 -12 1003 -12 q 1008 -11 1006 -11 q 1013 -12 1013 -11 q 1011 -18 1014 -14 q 997 -28 1006 -25 q 981 -28 989 -31 q 964 -1 964 -21 q 983 25 965 20 m 997 14 l 997 14 q 990 16 994 16 q 983 16 986 17 q 978 11 981 14 q 975 5 975 8 l 974 3 l 989 3 q 999 3 996 3 q 1004 3 1003 3 q 1004 5 1004 4 q 1002 9 1004 7 q 997 14 1000 12 m 454 5 l 454 5 l 454 25 l 458 25 l 463 25 l 463 5 q 463 -5 463 -1 q 463 -12 463 -9 q 464 -15 464 -14 q 465 -17 464 -16 q 476 -20 469 -21 q 485 -12 482 -18 q 487 -9 486 -11 q 488 -3 488 -7 q 488 8 488 1 l 489 25 l 493 25 l 497 25 l 497 5 l 497 -16 l 500 -17 q 502 -20 501 -18 q 503 -24 503 -21 q 501 -28 503 -28 q 495 -26 498 -28 q 490 -20 492 -24 q 488 -18 489 -17 q 486 -24 486 -18 q 480 -28 485 -26 q 471 -29 476 -29 q 461 -26 465 -29 q 458 -24 460 -25 q 456 -20 457 -22 q 455 -15 456 -18 q 454 -8 454 -12 q 454 5 454 -4 m 627 -1 l 627 -1 l 627 25 l 631 25 l 635 24 l 636 -1 l 636 -28 l 631 -28 l 627 -28 l 627 -1 m 836 -17 l 836 -17 q 838 -16 836 -16 q 842 -16 840 -16 l 847 -16 l 847 -22 l 847 -28 l 842 -28 l 835 -28 l 835 -22 q 836 -18 835 -20 q 836 -17 836 -17 z "},"4":{"ha":1250,"x_min":83,"x_max":1166,"o":"m 328 1032 l 328 1032 q 420 1033 335 1032 q 631 1034 505 1034 l 926 1034 l 942 1031 q 1063 978 1008 1018 q 1085 957 1071 970 q 1107 932 1099 943 q 1160 827 1146 885 q 1161 822 1161 823 q 1164 807 1162 814 q 1166 787 1165 800 q 1166 748 1166 774 q 1166 676 1166 722 q 1166 652 1166 665 q 1166 563 1166 596 q 1166 514 1166 530 q 1165 489 1166 497 q 1162 472 1164 481 q 1084 332 1146 390 q 940 258 1026 273 l 924 256 l 632 256 q 486 254 543 254 q 397 255 429 254 q 347 256 364 256 q 323 256 330 256 q 307 258 315 257 q 307 260 307 258 q 147 351 211 277 q 86 482 100 407 l 83 498 l 83 643 l 83 787 l 86 803 q 163 954 100 892 q 328 1032 231 1021 m 699 774 l 699 774 q 664 772 681 779 q 637 747 647 765 q 635 742 636 745 q 635 736 635 739 q 635 726 635 733 q 635 718 635 721 q 635 712 635 714 q 637 707 636 710 q 660 684 646 692 q 690 679 673 676 q 725 703 714 684 q 729 745 736 722 q 716 762 725 754 q 699 774 708 770 m 854 728 l 854 728 l 854 777 l 842 777 l 829 777 l 829 754 l 828 733 l 815 754 l 802 775 l 789 775 l 775 775 l 775 726 l 775 679 l 789 679 l 803 679 l 803 700 l 803 722 l 817 701 l 831 679 l 843 679 l 854 679 l 854 728 m 228 774 l 228 774 q 222 774 225 774 q 215 775 220 775 q 200 775 210 775 l 179 775 l 179 726 l 179 679 l 192 679 l 205 679 l 205 694 l 205 710 l 215 711 q 224 712 221 711 q 231 714 228 713 q 249 745 250 725 q 228 774 245 765 m 353 762 l 353 762 l 353 775 l 322 775 l 290 775 l 290 726 l 290 679 l 322 679 l 353 679 l 353 692 l 353 704 l 335 704 l 318 704 l 318 708 l 318 714 l 334 714 l 349 714 l 349 726 l 349 739 l 334 739 l 318 739 l 318 745 l 318 749 l 335 749 l 353 749 l 353 762 m 454 771 l 454 771 l 449 775 l 424 775 l 400 775 l 400 728 l 400 679 l 412 679 l 427 679 l 427 694 q 427 706 427 703 q 428 710 427 710 q 432 706 429 710 q 439 694 435 701 l 449 679 l 464 679 q 474 679 469 679 q 479 679 479 679 q 476 685 479 679 q 468 697 472 690 l 457 714 l 461 718 q 465 723 463 721 q 468 728 467 725 q 471 733 471 730 q 471 742 471 736 q 471 751 471 747 q 469 755 471 754 q 454 771 464 765 m 567 774 l 567 774 q 552 775 561 775 q 538 772 543 775 q 515 749 517 765 q 516 738 515 742 q 521 729 517 733 q 549 717 528 721 q 560 714 557 715 q 566 710 564 713 q 566 707 566 708 q 564 705 566 707 q 553 703 559 703 q 543 708 546 704 l 541 711 l 533 710 q 532 710 533 710 q 526 707 529 708 q 521 707 522 707 q 515 704 515 705 q 517 697 514 703 q 541 679 524 684 q 576 684 558 675 q 591 711 595 692 q 558 739 591 733 q 545 749 538 743 q 553 751 547 751 q 561 747 558 751 l 564 745 l 578 747 q 585 749 582 749 q 588 749 587 749 q 589 751 589 750 q 589 753 590 751 q 581 765 587 760 q 567 774 575 771 m 957 768 l 957 768 l 954 775 l 939 775 l 925 775 l 909 728 q 899 694 904 708 q 895 679 895 681 q 899 679 895 679 q 908 679 903 679 l 922 679 l 924 685 l 925 690 l 940 689 l 954 689 l 956 684 l 957 679 l 971 679 q 982 679 979 679 q 985 681 985 679 q 982 688 985 681 q 971 722 978 700 q 962 748 966 736 q 957 766 958 761 q 957 768 957 768 m 1050 741 l 1050 741 l 1050 775 l 1038 775 l 1023 775 l 1023 726 l 1023 679 l 1051 679 l 1079 679 l 1079 692 l 1079 704 l 1065 704 l 1050 704 l 1050 741 m 685 607 l 685 607 q 643 596 661 611 q 627 552 624 576 q 654 515 631 528 q 661 512 659 513 q 666 511 663 511 q 676 511 669 511 q 686 511 682 511 q 691 512 689 511 q 697 515 693 513 q 711 525 704 518 q 721 538 718 532 q 725 568 728 553 q 710 595 721 583 q 685 607 699 604 m 848 559 l 848 559 l 848 608 l 835 608 q 822 607 821 608 q 821 600 821 606 q 821 586 821 595 l 821 567 l 808 586 l 794 607 l 782 607 l 770 607 l 770 558 l 770 511 l 783 511 l 796 511 l 796 532 l 798 554 l 811 532 l 823 511 l 836 511 l 848 511 l 848 559 m 231 578 l 231 578 l 231 607 l 216 607 l 204 607 l 204 572 l 204 538 l 208 532 q 217 520 211 525 q 229 513 222 515 q 243 511 235 511 q 258 513 252 511 q 272 522 265 515 q 279 534 278 528 q 281 541 281 538 q 282 551 282 545 q 282 574 282 558 l 282 607 l 269 607 l 256 607 l 256 578 q 256 553 256 561 q 254 543 256 546 q 250 538 253 541 q 242 536 245 536 q 235 539 239 536 q 232 544 233 541 q 231 554 231 547 q 231 578 231 561 m 380 606 l 380 606 q 366 607 375 607 q 350 606 357 607 q 340 600 345 604 q 332 591 335 596 q 328 587 329 590 q 328 581 328 585 q 329 569 328 572 q 335 561 330 566 q 345 554 339 557 q 363 549 351 551 q 378 542 378 546 q 373 536 378 538 q 363 535 368 534 q 355 541 358 536 l 353 543 l 340 541 q 331 538 335 539 q 326 538 328 538 q 327 534 326 536 q 330 528 328 532 q 334 522 332 525 q 363 511 343 511 q 400 525 389 510 q 404 530 403 528 q 404 536 404 533 q 375 571 407 564 q 357 576 361 574 q 357 582 354 578 q 360 583 358 583 q 366 583 363 583 q 371 583 370 583 q 374 579 372 582 l 376 576 l 389 579 q 398 581 395 581 q 401 582 401 582 q 402 585 403 583 q 400 589 401 586 q 380 606 393 602 m 511 595 l 511 595 l 511 607 l 481 607 l 449 607 l 449 558 l 449 511 l 481 511 l 511 511 l 511 524 l 511 536 l 493 536 l 476 536 l 476 542 l 476 546 l 492 546 l 507 546 l 507 558 l 507 571 l 492 571 l 476 571 l 476 576 l 476 582 l 493 582 l 511 582 l 511 595 m 922 572 l 922 572 l 922 607 l 909 607 l 896 607 l 896 558 l 896 511 l 924 511 l 951 511 l 951 524 l 951 536 l 936 536 l 922 536 l 922 572 m 1002 595 l 1002 595 l 994 607 l 979 607 l 962 607 l 965 604 q 971 594 966 602 q 982 576 975 586 l 996 551 l 996 530 l 996 511 l 1008 511 l 1022 511 l 1022 530 l 1022 551 l 1036 576 q 1048 595 1043 587 q 1053 604 1053 603 l 1054 607 l 1039 607 l 1023 607 l 1017 595 q 1012 585 1014 589 q 1008 582 1010 582 q 1006 585 1008 582 q 1002 595 1004 589 m 673 749 l 673 749 q 699 743 689 754 q 703 717 708 732 q 681 704 694 703 q 661 721 667 705 q 663 737 660 729 q 673 749 667 745 m 205 742 l 205 742 l 205 749 l 212 749 q 220 748 218 749 q 221 743 221 747 q 219 738 221 739 q 212 734 216 736 l 205 734 l 205 742 m 427 742 l 427 742 l 427 749 l 435 749 q 443 748 441 749 q 444 742 444 747 q 433 734 444 734 l 427 734 l 427 742 m 937 729 l 937 729 q 939 736 937 733 q 940 737 940 739 q 942 732 940 737 q 943 726 943 729 l 947 714 l 940 714 l 933 714 l 933 718 q 934 721 933 718 q 936 728 935 724 q 937 729 936 729 m 667 581 l 667 581 q 685 580 676 585 q 697 566 694 575 q 693 545 700 553 q 675 536 686 536 q 657 547 664 536 q 655 567 652 557 q 667 581 659 576 m 195 170 l 195 170 q 212 171 203 172 q 227 165 221 170 q 231 161 229 164 q 235 155 233 158 q 236 151 236 153 q 235 151 236 151 q 232 150 235 150 q 229 151 231 150 q 227 154 228 151 q 209 163 221 163 q 191 155 197 164 q 183 135 182 149 q 193 115 184 121 q 214 113 201 110 q 225 120 221 115 q 229 129 229 125 l 229 132 l 220 132 l 210 132 l 210 136 l 210 140 l 224 140 l 236 140 l 236 122 l 236 106 l 233 106 q 229 107 229 106 q 232 114 229 109 q 233 117 233 117 q 232 118 233 118 q 231 117 232 118 q 228 114 229 115 q 207 104 221 104 q 179 121 189 104 q 177 125 178 123 q 176 129 176 126 q 176 138 176 132 q 176 146 176 143 q 177 150 176 149 q 179 154 178 151 q 195 170 184 165 m 452 168 l 452 168 q 461 171 454 171 l 468 171 l 468 167 l 468 163 l 463 163 q 457 162 458 163 q 454 160 456 161 q 454 156 454 158 q 453 153 453 154 l 453 150 l 458 150 l 464 150 l 464 146 l 464 142 l 457 142 q 451 142 453 142 q 447 140 449 142 q 448 140 447 140 q 450 138 449 139 q 452 135 452 136 q 453 131 453 134 q 453 119 453 127 l 453 106 l 449 106 l 444 106 l 444 123 l 444 142 l 441 142 q 439 142 440 142 q 439 146 439 143 q 439 149 439 149 q 441 150 440 150 q 444 151 444 150 q 444 154 444 151 q 452 168 444 163 m 566 138 l 566 138 l 566 171 l 570 171 l 574 171 l 574 138 l 574 106 l 570 106 l 566 106 l 566 138 m 604 138 l 604 138 l 604 171 l 608 171 l 612 171 l 612 138 l 612 106 l 608 106 l 604 106 l 604 138 m 704 168 l 704 168 q 713 171 707 171 l 720 171 l 720 167 l 720 163 l 714 163 q 709 162 711 163 q 707 160 707 161 q 705 156 705 158 q 704 153 704 154 l 704 150 l 710 150 l 717 150 l 717 146 l 717 142 l 708 142 q 702 142 704 142 q 700 140 700 142 q 699 140 699 140 q 701 138 700 139 q 703 135 703 136 q 704 131 704 134 q 704 119 704 127 l 704 106 l 700 106 l 696 106 l 696 123 l 696 142 l 694 142 q 692 142 692 142 q 692 146 692 143 q 692 149 692 149 q 694 150 692 150 q 696 151 696 150 q 696 154 696 151 q 704 168 696 163 m 342 155 l 342 155 l 342 161 l 346 161 l 350 161 l 350 155 l 350 150 l 355 150 l 359 150 l 359 146 l 359 142 l 353 142 q 347 138 340 142 q 349 136 349 138 q 349 133 349 135 q 350 125 350 131 l 350 114 l 355 113 l 361 113 l 361 109 l 361 106 l 354 106 q 349 106 350 106 q 345 109 347 106 l 342 111 l 342 126 l 342 142 l 339 142 q 336 142 336 142 q 335 146 335 143 q 336 149 335 149 q 339 150 336 150 q 341 150 340 150 q 342 151 342 150 q 342 155 342 153 m 884 155 l 884 155 l 884 161 l 888 161 l 890 161 l 890 155 l 890 150 l 896 150 l 901 150 l 901 146 l 901 142 l 895 142 q 888 142 889 142 q 886 140 886 142 q 887 140 886 140 q 889 138 888 139 q 890 137 889 138 q 890 134 890 136 q 890 127 890 132 q 892 115 890 118 q 897 113 893 113 q 901 113 900 113 q 903 112 903 113 q 903 109 903 111 l 903 106 l 897 106 q 891 106 893 106 q 888 109 889 106 l 884 111 l 884 126 l 884 142 l 880 142 q 878 142 879 142 q 878 146 878 143 q 878 149 878 149 q 880 150 879 150 q 883 150 882 150 q 884 151 884 150 q 884 155 884 153 m 1050 155 l 1050 155 l 1050 161 l 1054 161 l 1059 161 l 1059 155 l 1059 150 l 1063 150 l 1068 150 l 1068 146 l 1068 142 l 1061 142 q 1055 142 1057 142 q 1053 140 1053 142 q 1053 140 1053 140 q 1055 138 1054 139 q 1057 137 1057 138 q 1058 134 1057 136 q 1059 127 1059 132 q 1059 115 1059 118 q 1065 113 1060 113 q 1068 113 1067 113 q 1069 112 1069 113 q 1069 109 1069 111 l 1069 106 l 1064 106 q 1058 106 1060 106 q 1054 109 1055 106 l 1050 111 l 1050 126 l 1050 142 l 1047 142 q 1045 142 1046 142 q 1044 146 1044 143 q 1045 149 1044 149 q 1047 150 1046 150 q 1049 150 1048 150 q 1050 151 1050 150 q 1050 155 1050 153 m 282 149 l 282 149 q 301 146 293 153 q 311 129 310 140 l 311 125 l 293 125 q 280 124 283 125 q 276 122 277 123 q 278 118 275 121 q 287 112 281 113 q 298 115 293 111 q 303 119 301 118 q 308 119 306 119 q 310 118 310 119 q 307 114 310 117 q 301 109 304 111 q 297 106 298 106 q 286 105 292 104 q 277 107 281 106 q 268 129 267 115 q 282 149 269 143 m 297 140 l 297 140 q 287 142 292 143 q 278 136 282 142 q 277 134 278 135 q 277 132 277 132 q 280 132 277 132 q 288 131 283 131 q 297 132 293 131 q 301 132 301 132 q 302 134 302 132 q 300 138 301 136 q 297 140 298 139 m 754 149 l 754 149 q 762 150 758 150 q 771 149 766 150 q 783 126 783 143 q 780 113 783 119 q 770 106 777 107 q 758 104 764 103 q 747 110 751 106 q 741 121 743 114 q 741 135 739 127 q 746 143 742 139 q 754 149 750 147 m 770 140 l 770 140 q 751 138 758 146 q 750 118 745 131 q 759 112 753 113 q 771 114 765 111 q 775 128 775 119 q 770 140 775 136 m 828 149 l 828 149 q 840 149 835 151 q 848 142 846 147 q 850 136 850 140 q 850 122 850 132 l 850 106 l 847 106 l 843 106 l 843 121 q 843 132 843 127 q 842 138 843 136 q 840 140 842 139 q 836 142 839 142 q 828 140 832 143 q 823 135 823 139 q 821 119 822 131 l 821 106 l 817 106 l 814 106 l 814 127 l 814 150 l 818 150 q 821 149 821 150 q 819 144 821 147 q 817 142 818 143 q 817 139 817 140 l 817 136 l 818 139 q 823 145 821 143 q 828 149 825 147 m 991 149 l 991 149 q 997 150 994 150 q 1002 150 999 150 q 1015 144 1011 150 q 1018 126 1018 139 q 1018 119 1018 121 q 1018 115 1018 117 q 1019 114 1018 114 q 1021 111 1021 113 q 1021 107 1022 109 q 1019 106 1021 106 q 1013 113 1015 106 l 1010 117 l 1010 114 q 1006 106 1008 109 q 996 104 1003 104 q 985 109 989 104 q 981 118 981 113 q 989 127 982 123 q 994 130 990 129 q 1002 132 997 131 q 1007 133 1004 132 q 1010 134 1010 134 q 1010 135 1010 134 q 1008 138 1010 136 q 1004 142 1007 140 q 996 142 1000 143 q 990 138 991 142 q 988 136 989 136 q 985 136 987 136 q 982 137 982 136 q 983 142 982 138 q 987 146 985 144 q 991 149 989 147 m 1010 123 l 1010 123 q 1008 126 1010 126 q 1003 125 1007 126 q 1002 125 1003 125 q 994 122 997 123 q 991 120 991 121 q 989 119 990 119 q 989 117 989 118 q 997 111 989 111 q 1006 115 1002 111 q 1010 123 1010 119 m 493 132 l 493 132 l 493 150 l 497 150 l 501 150 l 501 134 q 501 121 501 125 q 502 117 501 118 q 503 114 503 115 q 513 113 507 111 q 521 118 518 114 q 522 124 522 121 q 522 136 522 127 l 524 150 l 526 150 l 530 150 l 530 132 q 530 123 530 126 q 530 117 530 119 q 531 115 530 115 q 533 114 532 114 q 534 111 534 113 q 534 107 534 109 q 533 106 534 106 q 528 108 530 106 q 524 114 525 110 q 522 115 522 115 q 521 111 522 114 q 517 106 519 107 q 510 104 515 104 q 494 111 500 104 q 494 118 494 114 q 493 132 493 122 m 196 49 l 196 49 q 199 50 197 49 q 204 50 201 50 l 210 49 l 210 45 l 210 40 l 204 40 q 198 39 200 40 q 195 37 196 39 q 193 33 193 35 q 192 29 192 32 l 192 25 l 197 25 l 204 25 l 204 20 l 204 16 l 195 16 q 188 16 191 16 q 184 14 184 16 q 185 13 184 14 q 187 11 186 12 l 192 8 l 192 -9 l 192 -28 l 186 -28 l 182 -28 l 182 -7 l 182 16 l 178 16 q 176 16 176 16 q 175 17 175 16 q 175 20 175 18 q 176 24 175 22 q 178 25 176 25 q 180 25 179 25 q 181 26 180 25 q 182 31 182 28 q 196 49 183 46 m 575 36 l 575 36 l 575 50 l 579 50 l 585 50 l 585 17 q 585 1 585 7 q 585 -9 585 -5 q 585 -15 585 -14 q 586 -17 586 -17 q 588 -18 587 -18 q 589 -18 589 -18 q 590 -20 590 -18 q 590 -24 590 -21 q 589 -26 590 -25 q 589 -28 589 -28 q 584 -26 587 -28 q 579 -22 581 -25 l 576 -20 l 572 -24 q 549 -28 561 -32 q 536 -12 539 -22 q 537 9 533 -1 q 550 24 541 20 q 553 26 551 25 q 557 26 555 26 q 567 24 561 26 q 575 17 572 21 q 578 18 583 8 q 576 22 576 20 q 576 27 576 24 q 575 36 575 31 m 568 12 l 568 12 q 561 16 566 16 q 551 14 555 17 q 545 -4 545 8 q 547 -9 546 -7 q 547 -14 547 -12 q 557 -20 551 -18 q 568 -17 562 -21 q 575 -2 575 -11 q 568 12 575 7 m 627 45 l 627 45 l 627 50 l 631 50 l 635 49 l 636 45 l 636 39 l 631 39 l 627 39 l 627 45 m 397 32 l 397 32 l 397 39 l 401 39 l 407 39 l 407 32 l 407 25 l 412 25 l 419 25 l 419 20 l 419 16 l 410 16 q 404 15 406 16 q 401 14 401 14 q 402 12 401 12 q 403 11 403 11 q 404 11 403 11 q 406 9 404 11 q 406 6 406 9 q 407 -4 407 3 q 408 -17 407 -16 q 410 -18 408 -18 q 415 -18 412 -18 l 419 -18 l 419 -24 l 419 -28 l 414 -28 q 404 -26 407 -28 q 400 -22 401 -25 q 398 -15 399 -20 q 397 -1 397 -9 l 397 16 l 395 16 q 393 16 393 16 q 391 17 392 16 q 390 20 390 18 q 391 24 390 22 q 393 25 392 25 q 395 25 393 25 l 397 25 l 397 32 m 1051 32 l 1051 32 l 1051 39 l 1055 39 l 1061 39 l 1061 32 l 1061 25 l 1067 25 l 1072 25 l 1072 20 l 1072 16 l 1064 16 q 1056 15 1057 16 q 1059 11 1054 14 q 1060 8 1060 9 q 1061 4 1060 7 q 1061 -4 1061 1 l 1061 -18 l 1068 -18 l 1074 -18 l 1074 -24 l 1074 -29 l 1067 -28 q 1059 -27 1061 -28 q 1055 -24 1057 -26 l 1051 -21 l 1051 -3 l 1051 16 l 1047 16 q 1045 16 1046 16 q 1044 17 1044 16 q 1044 20 1044 18 q 1044 24 1044 22 q 1045 25 1044 25 q 1047 25 1046 25 l 1051 25 l 1051 32 m 249 25 l 249 25 q 260 25 254 26 q 271 20 267 24 l 273 17 l 273 21 q 274 24 273 24 q 278 25 275 25 l 282 25 l 282 -7 q 282 -26 282 -20 q 282 -35 282 -32 q 281 -40 282 -39 q 279 -43 281 -41 q 277 -46 279 -45 q 273 -49 275 -47 q 270 -51 272 -50 q 264 -52 268 -52 q 254 -52 261 -52 l 239 -52 l 239 -47 l 239 -43 l 252 -43 q 261 -42 257 -43 q 267 -41 265 -41 q 273 -29 273 -37 q 274 -26 273 -28 q 277 -22 275 -24 q 273 -20 281 -12 q 261 -28 268 -25 q 248 -28 254 -31 q 239 -22 243 -26 q 235 -12 236 -17 q 233 -2 233 -8 q 235 8 233 4 q 239 18 236 14 q 249 25 243 22 m 265 14 l 265 14 q 259 16 264 16 q 252 16 254 17 q 243 3 244 12 q 245 -14 241 -5 q 258 -20 250 -21 q 271 -11 265 -20 q 272 1 273 -5 q 265 14 271 8 m 330 25 l 330 25 q 336 25 334 25 q 342 25 339 25 q 358 16 354 25 q 360 9 361 11 q 355 8 359 8 q 350 9 350 8 q 347 15 350 12 q 340 17 343 17 q 331 13 334 17 q 332 7 328 8 q 337 5 334 5 q 345 3 340 4 q 357 -3 354 0 q 361 -12 361 -7 q 361 -18 361 -16 q 358 -22 361 -20 q 337 -29 350 -31 q 319 -18 325 -28 q 318 -11 318 -12 q 322 -9 318 -9 q 327 -10 326 -9 q 328 -12 328 -11 q 328 -14 328 -12 q 332 -17 329 -16 q 334 -19 334 -18 q 337 -20 335 -20 q 342 -20 339 -20 q 348 -19 346 -20 q 350 -17 350 -18 q 352 -15 351 -16 q 353 -12 353 -14 q 338 -5 353 -9 q 330 -3 334 -4 q 325 0 326 -1 q 321 5 322 1 q 319 12 319 8 q 324 20 321 17 q 330 25 328 24 m 689 25 l 689 25 q 705 24 697 26 q 718 14 713 21 q 720 7 720 9 q 721 0 721 4 q 713 -24 722 -16 q 689 -28 701 -32 q 672 -9 676 -24 q 671 1 671 -4 q 673 11 671 7 q 681 20 676 16 q 689 25 685 24 m 703 16 l 703 16 q 692 15 697 17 q 684 9 688 14 q 681 1 681 5 q 681 -8 681 -4 q 694 -20 685 -18 q 710 -12 704 -21 q 712 3 714 -5 q 703 16 710 11 m 768 24 l 768 24 q 786 24 778 28 q 793 19 790 22 q 796 14 796 16 q 797 12 796 12 q 798 9 798 11 q 797 9 798 9 q 793 8 796 8 q 789 9 790 8 q 787 11 787 9 q 781 15 786 14 q 770 15 775 17 q 765 9 765 14 q 767 7 765 8 q 772 5 768 7 q 783 1 775 4 q 793 -2 790 0 q 798 -8 796 -4 q 794 -24 800 -18 q 777 -29 787 -29 q 762 -24 768 -29 q 755 -12 755 -20 q 756 -10 755 -11 q 760 -9 757 -9 q 764 -10 762 -9 q 765 -12 765 -11 q 778 -20 766 -20 q 789 -14 786 -20 q 787 -9 789 -11 q 779 -7 785 -8 q 765 -2 770 -4 q 758 3 761 0 q 756 6 757 4 q 757 11 755 8 q 768 24 757 21 m 901 22 l 901 22 q 906 25 904 24 q 909 26 908 26 q 921 22 916 26 q 928 12 926 18 q 928 5 928 11 q 929 -9 929 -1 l 929 -28 l 924 -28 l 920 -28 l 920 -12 q 919 6 920 0 q 916 14 918 12 q 905 15 911 17 q 897 8 900 14 q 895 5 896 7 q 895 -1 895 3 q 895 -11 895 -4 l 893 -28 l 889 -28 l 885 -28 l 885 -1 l 885 25 l 889 25 q 893 24 892 25 q 895 22 895 24 q 893 21 895 22 q 892 18 892 20 q 889 12 889 16 q 889 10 889 9 q 892 16 889 11 q 901 22 896 20 m 983 25 l 983 25 q 996 25 989 26 q 1007 18 1003 24 q 1013 11 1011 16 q 1015 1 1014 7 l 1015 -5 l 994 -5 q 983 -5 987 -5 q 977 -5 979 -5 q 975 -6 975 -5 q 974 -7 974 -7 q 977 -13 974 -9 q 982 -18 979 -16 q 992 -20 986 -21 q 1003 -14 999 -18 q 1004 -12 1003 -12 q 1008 -11 1006 -11 q 1013 -12 1013 -11 q 1011 -18 1014 -14 q 997 -28 1006 -25 q 981 -28 989 -31 q 964 -1 964 -21 q 983 25 965 20 m 997 14 l 997 14 q 990 16 994 16 q 983 16 986 17 q 978 11 981 14 q 975 5 975 8 l 974 3 l 989 3 q 999 3 996 3 q 1004 3 1003 3 q 1004 5 1004 4 q 1002 9 1004 7 q 997 14 1000 12 m 454 5 l 454 5 l 454 25 l 458 25 l 463 25 l 463 5 q 463 -5 463 -1 q 463 -12 463 -9 q 464 -15 464 -14 q 465 -17 464 -16 q 476 -20 469 -21 q 485 -12 482 -18 q 487 -9 486 -11 q 488 -3 488 -7 q 488 8 488 1 l 489 25 l 493 25 l 497 25 l 497 5 l 497 -16 l 500 -17 q 502 -20 501 -18 q 503 -24 503 -21 q 501 -28 503 -28 q 495 -26 498 -28 q 490 -20 492 -24 q 488 -18 489 -17 q 486 -24 486 -18 q 480 -28 485 -26 q 471 -29 476 -29 q 461 -26 465 -29 q 458 -24 460 -25 q 456 -20 457 -22 q 455 -15 456 -18 q 454 -8 454 -12 q 454 5 454 -4 m 627 -1 l 627 -1 l 627 25 l 631 25 l 635 24 l 636 -1 l 636 -28 l 631 -28 l 627 -28 l 627 -1 m 836 -17 l 836 -17 q 838 -16 836 -16 q 842 -16 840 -16 l 847 -16 l 847 -22 l 847 -28 l 842 -28 l 835 -28 l 835 -22 q 836 -18 835 -20 q 836 -17 836 -17 z "},"5":{"ha":1250,"x_min":83,"x_max":1166,"o":"m 328 1032 l 328 1032 q 420 1033 335 1032 q 631 1034 505 1034 l 926 1034 l 942 1031 q 1063 978 1008 1018 q 1085 957 1071 970 q 1107 932 1099 943 q 1160 827 1146 885 q 1161 822 1161 823 q 1164 807 1162 814 q 1166 787 1165 800 q 1166 748 1166 774 q 1166 676 1166 722 q 1166 652 1166 665 q 1166 563 1166 596 q 1166 514 1166 530 q 1165 489 1166 497 q 1162 472 1164 481 q 1084 332 1146 390 q 940 258 1026 273 l 924 256 l 632 256 q 486 254 543 254 q 397 255 429 254 q 347 256 364 256 q 323 256 330 256 q 307 258 315 257 q 307 260 307 258 q 147 351 211 277 q 86 482 100 407 l 83 498 l 83 643 l 83 787 l 86 803 q 163 954 100 892 q 328 1032 231 1021 m 699 774 l 699 774 q 664 772 681 779 q 637 747 647 765 q 635 742 636 745 q 635 736 635 739 q 635 726 635 733 q 635 718 635 721 q 635 712 635 714 q 637 707 636 710 q 660 684 646 692 q 690 679 673 676 q 725 703 714 684 q 729 745 736 722 q 716 762 725 754 q 699 774 708 770 m 854 728 l 854 728 l 854 777 l 842 777 l 829 777 l 829 754 l 828 733 l 815 754 l 802 775 l 789 775 l 775 775 l 775 726 l 775 679 l 789 679 l 803 679 l 803 700 l 803 722 l 817 701 l 831 679 l 843 679 l 854 679 l 854 728 m 228 774 l 228 774 q 222 774 225 774 q 215 775 220 775 q 200 775 210 775 l 179 775 l 179 726 l 179 679 l 192 679 l 205 679 l 205 694 l 205 710 l 215 711 q 224 712 221 711 q 231 714 228 713 q 249 745 250 725 q 228 774 245 765 m 353 762 l 353 762 l 353 775 l 322 775 l 290 775 l 290 726 l 290 679 l 322 679 l 353 679 l 353 692 l 353 704 l 335 704 l 318 704 l 318 708 l 318 714 l 334 714 l 349 714 l 349 726 l 349 739 l 334 739 l 318 739 l 318 745 l 318 749 l 335 749 l 353 749 l 353 762 m 454 771 l 454 771 l 449 775 l 424 775 l 400 775 l 400 728 l 400 679 l 412 679 l 427 679 l 427 694 q 427 706 427 703 q 428 710 427 710 q 432 706 429 710 q 439 694 435 701 l 449 679 l 464 679 q 474 679 469 679 q 479 679 479 679 q 476 685 479 679 q 468 697 472 690 l 457 714 l 461 718 q 465 723 463 721 q 468 728 467 725 q 471 733 471 730 q 471 742 471 736 q 471 751 471 747 q 469 755 471 754 q 454 771 464 765 m 567 774 l 567 774 q 552 775 561 775 q 538 772 543 775 q 515 749 517 765 q 516 738 515 742 q 521 729 517 733 q 549 717 528 721 q 560 714 557 715 q 566 710 564 713 q 566 707 566 708 q 564 705 566 707 q 553 703 559 703 q 543 708 546 704 l 541 711 l 533 710 q 532 710 533 710 q 526 707 529 708 q 521 707 522 707 q 515 704 515 705 q 517 697 514 703 q 541 679 524 684 q 576 684 558 675 q 591 711 595 692 q 558 739 591 733 q 545 749 538 743 q 553 751 547 751 q 561 747 558 751 l 564 745 l 578 747 q 585 749 582 749 q 588 749 587 749 q 589 751 589 750 q 589 753 590 751 q 581 765 587 760 q 567 774 575 771 m 957 768 l 957 768 l 954 775 l 939 775 l 925 775 l 909 728 q 899 694 904 708 q 895 679 895 681 q 899 679 895 679 q 908 679 903 679 l 922 679 l 924 685 l 925 690 l 940 689 l 954 689 l 956 684 l 957 679 l 971 679 q 982 679 979 679 q 985 681 985 679 q 982 688 985 681 q 971 722 978 700 q 962 748 966 736 q 957 766 958 761 q 957 768 957 768 m 1050 741 l 1050 741 l 1050 775 l 1038 775 l 1023 775 l 1023 726 l 1023 679 l 1051 679 l 1079 679 l 1079 692 l 1079 704 l 1065 704 l 1050 704 l 1050 741 m 685 607 l 685 607 q 643 596 661 611 q 627 552 624 576 q 654 515 631 528 q 661 512 659 513 q 666 511 663 511 q 676 511 669 511 q 686 511 682 511 q 691 512 689 511 q 697 515 693 513 q 711 525 704 518 q 721 538 718 532 q 725 568 728 553 q 710 595 721 583 q 685 607 699 604 m 848 559 l 848 559 l 848 608 l 835 608 q 822 607 821 608 q 821 600 821 606 q 821 586 821 595 l 821 567 l 808 586 l 794 607 l 782 607 l 770 607 l 770 558 l 770 511 l 783 511 l 796 511 l 796 532 l 798 554 l 811 532 l 823 511 l 836 511 l 848 511 l 848 559 m 231 578 l 231 578 l 231 607 l 216 607 l 204 607 l 204 572 l 204 538 l 208 532 q 217 520 211 525 q 229 513 222 515 q 243 511 235 511 q 258 513 252 511 q 272 522 265 515 q 279 534 278 528 q 281 541 281 538 q 282 551 282 545 q 282 574 282 558 l 282 607 l 269 607 l 256 607 l 256 578 q 256 553 256 561 q 254 543 256 546 q 250 538 253 541 q 242 536 245 536 q 235 539 239 536 q 232 544 233 541 q 231 554 231 547 q 231 578 231 561 m 380 606 l 380 606 q 366 607 375 607 q 350 606 357 607 q 340 600 345 604 q 332 591 335 596 q 328 587 329 590 q 328 581 328 585 q 329 569 328 572 q 335 561 330 566 q 345 554 339 557 q 363 549 351 551 q 378 542 378 546 q 373 536 378 538 q 363 535 368 534 q 355 541 358 536 l 353 543 l 340 541 q 331 538 335 539 q 326 538 328 538 q 327 534 326 536 q 330 528 328 532 q 334 522 332 525 q 363 511 343 511 q 400 525 389 510 q 404 530 403 528 q 404 536 404 533 q 375 571 407 564 q 357 576 361 574 q 357 582 354 578 q 360 583 358 583 q 366 583 363 583 q 371 583 370 583 q 374 579 372 582 l 376 576 l 389 579 q 398 581 395 581 q 401 582 401 582 q 402 585 403 583 q 400 589 401 586 q 380 606 393 602 m 511 595 l 511 595 l 511 607 l 481 607 l 449 607 l 449 558 l 449 511 l 481 511 l 511 511 l 511 524 l 511 536 l 493 536 l 476 536 l 476 542 l 476 546 l 492 546 l 507 546 l 507 558 l 507 571 l 492 571 l 476 571 l 476 576 l 476 582 l 493 582 l 511 582 l 511 595 m 922 572 l 922 572 l 922 607 l 909 607 l 896 607 l 896 558 l 896 511 l 924 511 l 951 511 l 951 524 l 951 536 l 936 536 l 922 536 l 922 572 m 1002 595 l 1002 595 l 994 607 l 979 607 l 962 607 l 965 604 q 971 594 966 602 q 982 576 975 586 l 996 551 l 996 530 l 996 511 l 1008 511 l 1022 511 l 1022 530 l 1022 551 l 1036 576 q 1048 595 1043 587 q 1053 604 1053 603 l 1054 607 l 1039 607 l 1023 607 l 1017 595 q 1012 585 1014 589 q 1008 582 1010 582 q 1006 585 1008 582 q 1002 595 1004 589 m 673 749 l 673 749 q 699 743 689 754 q 703 717 708 732 q 681 704 694 703 q 661 721 667 705 q 663 737 660 729 q 673 749 667 745 m 205 742 l 205 742 l 205 749 l 212 749 q 220 748 218 749 q 221 743 221 747 q 219 738 221 739 q 212 734 216 736 l 205 734 l 205 742 m 427 742 l 427 742 l 427 749 l 435 749 q 443 748 441 749 q 444 742 444 747 q 433 734 444 734 l 427 734 l 427 742 m 937 729 l 937 729 q 939 736 937 733 q 940 737 940 739 q 942 732 940 737 q 943 726 943 729 l 947 714 l 940 714 l 933 714 l 933 718 q 934 721 933 718 q 936 728 935 724 q 937 729 936 729 m 667 581 l 667 581 q 685 580 676 585 q 697 566 694 575 q 693 545 700 553 q 675 536 686 536 q 657 547 664 536 q 655 567 652 557 q 667 581 659 576 m 195 170 l 195 170 q 212 171 203 172 q 227 165 221 170 q 231 161 229 164 q 235 155 233 158 q 236 151 236 153 q 235 151 236 151 q 232 150 235 150 q 229 151 231 150 q 227 154 228 151 q 209 163 221 163 q 191 155 197 164 q 183 135 182 149 q 193 115 184 121 q 214 113 201 110 q 225 120 221 115 q 229 129 229 125 l 229 132 l 220 132 l 210 132 l 210 136 l 210 140 l 224 140 l 236 140 l 236 122 l 236 106 l 233 106 q 229 107 229 106 q 232 114 229 109 q 233 117 233 117 q 232 118 233 118 q 231 117 232 118 q 228 114 229 115 q 207 104 221 104 q 179 121 189 104 q 177 125 178 123 q 176 129 176 126 q 176 138 176 132 q 176 146 176 143 q 177 150 176 149 q 179 154 178 151 q 195 170 184 165 m 452 168 l 452 168 q 461 171 454 171 l 468 171 l 468 167 l 468 163 l 463 163 q 457 162 458 163 q 454 160 456 161 q 454 156 454 158 q 453 153 453 154 l 453 150 l 458 150 l 464 150 l 464 146 l 464 142 l 457 142 q 451 142 453 142 q 447 140 449 142 q 448 140 447 140 q 450 138 449 139 q 452 135 452 136 q 453 131 453 134 q 453 119 453 127 l 453 106 l 449 106 l 444 106 l 444 123 l 444 142 l 441 142 q 439 142 440 142 q 439 146 439 143 q 439 149 439 149 q 441 150 440 150 q 444 151 444 150 q 444 154 444 151 q 452 168 444 163 m 566 138 l 566 138 l 566 171 l 570 171 l 574 171 l 574 138 l 574 106 l 570 106 l 566 106 l 566 138 m 604 138 l 604 138 l 604 171 l 608 171 l 612 171 l 612 138 l 612 106 l 608 106 l 604 106 l 604 138 m 704 168 l 704 168 q 713 171 707 171 l 720 171 l 720 167 l 720 163 l 714 163 q 709 162 711 163 q 707 160 707 161 q 705 156 705 158 q 704 153 704 154 l 704 150 l 710 150 l 717 150 l 717 146 l 717 142 l 708 142 q 702 142 704 142 q 700 140 700 142 q 699 140 699 140 q 701 138 700 139 q 703 135 703 136 q 704 131 704 134 q 704 119 704 127 l 704 106 l 700 106 l 696 106 l 696 123 l 696 142 l 694 142 q 692 142 692 142 q 692 146 692 143 q 692 149 692 149 q 694 150 692 150 q 696 151 696 150 q 696 154 696 151 q 704 168 696 163 m 342 155 l 342 155 l 342 161 l 346 161 l 350 161 l 350 155 l 350 150 l 355 150 l 359 150 l 359 146 l 359 142 l 353 142 q 347 138 340 142 q 349 136 349 138 q 349 133 349 135 q 350 125 350 131 l 350 114 l 355 113 l 361 113 l 361 109 l 361 106 l 354 106 q 349 106 350 106 q 345 109 347 106 l 342 111 l 342 126 l 342 142 l 339 142 q 336 142 336 142 q 335 146 335 143 q 336 149 335 149 q 339 150 336 150 q 341 150 340 150 q 342 151 342 150 q 342 155 342 153 m 884 155 l 884 155 l 884 161 l 888 161 l 890 161 l 890 155 l 890 150 l 896 150 l 901 150 l 901 146 l 901 142 l 895 142 q 888 142 889 142 q 886 140 886 142 q 887 140 886 140 q 889 138 888 139 q 890 137 889 138 q 890 134 890 136 q 890 127 890 132 q 892 115 890 118 q 897 113 893 113 q 901 113 900 113 q 903 112 903 113 q 903 109 903 111 l 903 106 l 897 106 q 891 106 893 106 q 888 109 889 106 l 884 111 l 884 126 l 884 142 l 880 142 q 878 142 879 142 q 878 146 878 143 q 878 149 878 149 q 880 150 879 150 q 883 150 882 150 q 884 151 884 150 q 884 155 884 153 m 1050 155 l 1050 155 l 1050 161 l 1054 161 l 1059 161 l 1059 155 l 1059 150 l 1063 150 l 1068 150 l 1068 146 l 1068 142 l 1061 142 q 1055 142 1057 142 q 1053 140 1053 142 q 1053 140 1053 140 q 1055 138 1054 139 q 1057 137 1057 138 q 1058 134 1057 136 q 1059 127 1059 132 q 1059 115 1059 118 q 1065 113 1060 113 q 1068 113 1067 113 q 1069 112 1069 113 q 1069 109 1069 111 l 1069 106 l 1064 106 q 1058 106 1060 106 q 1054 109 1055 106 l 1050 111 l 1050 126 l 1050 142 l 1047 142 q 1045 142 1046 142 q 1044 146 1044 143 q 1045 149 1044 149 q 1047 150 1046 150 q 1049 150 1048 150 q 1050 151 1050 150 q 1050 155 1050 153 m 282 149 l 282 149 q 301 146 293 153 q 311 129 310 140 l 311 125 l 293 125 q 280 124 283 125 q 276 122 277 123 q 278 118 275 121 q 287 112 281 113 q 298 115 293 111 q 303 119 301 118 q 308 119 306 119 q 310 118 310 119 q 307 114 310 117 q 301 109 304 111 q 297 106 298 106 q 286 105 292 104 q 277 107 281 106 q 268 129 267 115 q 282 149 269 143 m 297 140 l 297 140 q 287 142 292 143 q 278 136 282 142 q 277 134 278 135 q 277 132 277 132 q 280 132 277 132 q 288 131 283 131 q 297 132 293 131 q 301 132 301 132 q 302 134 302 132 q 300 138 301 136 q 297 140 298 139 m 754 149 l 754 149 q 762 150 758 150 q 771 149 766 150 q 783 126 783 143 q 780 113 783 119 q 770 106 777 107 q 758 104 764 103 q 747 110 751 106 q 741 121 743 114 q 741 135 739 127 q 746 143 742 139 q 754 149 750 147 m 770 140 l 770 140 q 751 138 758 146 q 750 118 745 131 q 759 112 753 113 q 771 114 765 111 q 775 128 775 119 q 770 140 775 136 m 828 149 l 828 149 q 840 149 835 151 q 848 142 846 147 q 850 136 850 140 q 850 122 850 132 l 850 106 l 847 106 l 843 106 l 843 121 q 843 132 843 127 q 842 138 843 136 q 840 140 842 139 q 836 142 839 142 q 828 140 832 143 q 823 135 823 139 q 821 119 822 131 l 821 106 l 817 106 l 814 106 l 814 127 l 814 150 l 818 150 q 821 149 821 150 q 819 144 821 147 q 817 142 818 143 q 817 139 817 140 l 817 136 l 818 139 q 823 145 821 143 q 828 149 825 147 m 991 149 l 991 149 q 997 150 994 150 q 1002 150 999 150 q 1015 144 1011 150 q 1018 126 1018 139 q 1018 119 1018 121 q 1018 115 1018 117 q 1019 114 1018 114 q 1021 111 1021 113 q 1021 107 1022 109 q 1019 106 1021 106 q 1013 113 1015 106 l 1010 117 l 1010 114 q 1006 106 1008 109 q 996 104 1003 104 q 985 109 989 104 q 981 118 981 113 q 989 127 982 123 q 994 130 990 129 q 1002 132 997 131 q 1007 133 1004 132 q 1010 134 1010 134 q 1010 135 1010 134 q 1008 138 1010 136 q 1004 142 1007 140 q 996 142 1000 143 q 990 138 991 142 q 988 136 989 136 q 985 136 987 136 q 982 137 982 136 q 983 142 982 138 q 987 146 985 144 q 991 149 989 147 m 1010 123 l 1010 123 q 1008 126 1010 126 q 1003 125 1007 126 q 1002 125 1003 125 q 994 122 997 123 q 991 120 991 121 q 989 119 990 119 q 989 117 989 118 q 997 111 989 111 q 1006 115 1002 111 q 1010 123 1010 119 m 493 132 l 493 132 l 493 150 l 497 150 l 501 150 l 501 134 q 501 121 501 125 q 502 117 501 118 q 503 114 503 115 q 513 113 507 111 q 521 118 518 114 q 522 124 522 121 q 522 136 522 127 l 524 150 l 526 150 l 530 150 l 530 132 q 530 123 530 126 q 530 117 530 119 q 531 115 530 115 q 533 114 532 114 q 534 111 534 113 q 534 107 534 109 q 533 106 534 106 q 528 108 530 106 q 524 114 525 110 q 522 115 522 115 q 521 111 522 114 q 517 106 519 107 q 510 104 515 104 q 494 111 500 104 q 494 118 494 114 q 493 132 493 122 m 196 49 l 196 49 q 199 50 197 49 q 204 50 201 50 l 210 49 l 210 45 l 210 40 l 204 40 q 198 39 200 40 q 195 37 196 39 q 193 33 193 35 q 192 29 192 32 l 192 25 l 197 25 l 204 25 l 204 20 l 204 16 l 195 16 q 188 16 191 16 q 184 14 184 16 q 185 13 184 14 q 187 11 186 12 l 192 8 l 192 -9 l 192 -28 l 186 -28 l 182 -28 l 182 -7 l 182 16 l 178 16 q 176 16 176 16 q 175 17 175 16 q 175 20 175 18 q 176 24 175 22 q 178 25 176 25 q 180 25 179 25 q 181 26 180 25 q 182 31 182 28 q 196 49 183 46 m 575 36 l 575 36 l 575 50 l 579 50 l 585 50 l 585 17 q 585 1 585 7 q 585 -9 585 -5 q 585 -15 585 -14 q 586 -17 586 -17 q 588 -18 587 -18 q 589 -18 589 -18 q 590 -20 590 -18 q 590 -24 590 -21 q 589 -26 590 -25 q 589 -28 589 -28 q 584 -26 587 -28 q 579 -22 581 -25 l 576 -20 l 572 -24 q 549 -28 561 -32 q 536 -12 539 -22 q 537 9 533 -1 q 550 24 541 20 q 553 26 551 25 q 557 26 555 26 q 567 24 561 26 q 575 17 572 21 q 578 18 583 8 q 576 22 576 20 q 576 27 576 24 q 575 36 575 31 m 568 12 l 568 12 q 561 16 566 16 q 551 14 555 17 q 545 -4 545 8 q 547 -9 546 -7 q 547 -14 547 -12 q 557 -20 551 -18 q 568 -17 562 -21 q 575 -2 575 -11 q 568 12 575 7 m 627 45 l 627 45 l 627 50 l 631 50 l 635 49 l 636 45 l 636 39 l 631 39 l 627 39 l 627 45 m 397 32 l 397 32 l 397 39 l 401 39 l 407 39 l 407 32 l 407 25 l 412 25 l 419 25 l 419 20 l 419 16 l 410 16 q 404 15 406 16 q 401 14 401 14 q 402 12 401 12 q 403 11 403 11 q 404 11 403 11 q 406 9 404 11 q 406 6 406 9 q 407 -4 407 3 q 408 -17 407 -16 q 410 -18 408 -18 q 415 -18 412 -18 l 419 -18 l 419 -24 l 419 -28 l 414 -28 q 404 -26 407 -28 q 400 -22 401 -25 q 398 -15 399 -20 q 397 -1 397 -9 l 397 16 l 395 16 q 393 16 393 16 q 391 17 392 16 q 390 20 390 18 q 391 24 390 22 q 393 25 392 25 q 395 25 393 25 l 397 25 l 397 32 m 1051 32 l 1051 32 l 1051 39 l 1055 39 l 1061 39 l 1061 32 l 1061 25 l 1067 25 l 1072 25 l 1072 20 l 1072 16 l 1064 16 q 1056 15 1057 16 q 1059 11 1054 14 q 1060 8 1060 9 q 1061 4 1060 7 q 1061 -4 1061 1 l 1061 -18 l 1068 -18 l 1074 -18 l 1074 -24 l 1074 -29 l 1067 -28 q 1059 -27 1061 -28 q 1055 -24 1057 -26 l 1051 -21 l 1051 -3 l 1051 16 l 1047 16 q 1045 16 1046 16 q 1044 17 1044 16 q 1044 20 1044 18 q 1044 24 1044 22 q 1045 25 1044 25 q 1047 25 1046 25 l 1051 25 l 1051 32 m 249 25 l 249 25 q 260 25 254 26 q 271 20 267 24 l 273 17 l 273 21 q 274 24 273 24 q 278 25 275 25 l 282 25 l 282 -7 q 282 -26 282 -20 q 282 -35 282 -32 q 281 -40 282 -39 q 279 -43 281 -41 q 277 -46 279 -45 q 273 -49 275 -47 q 270 -51 272 -50 q 264 -52 268 -52 q 254 -52 261 -52 l 239 -52 l 239 -47 l 239 -43 l 252 -43 q 261 -42 257 -43 q 267 -41 265 -41 q 273 -29 273 -37 q 274 -26 273 -28 q 277 -22 275 -24 q 273 -20 281 -12 q 261 -28 268 -25 q 248 -28 254 -31 q 239 -22 243 -26 q 235 -12 236 -17 q 233 -2 233 -8 q 235 8 233 4 q 239 18 236 14 q 249 25 243 22 m 265 14 l 265 14 q 259 16 264 16 q 252 16 254 17 q 243 3 244 12 q 245 -14 241 -5 q 258 -20 250 -21 q 271 -11 265 -20 q 272 1 273 -5 q 265 14 271 8 m 330 25 l 330 25 q 336 25 334 25 q 342 25 339 25 q 358 16 354 25 q 360 9 361 11 q 355 8 359 8 q 350 9 350 8 q 347 15 350 12 q 340 17 343 17 q 331 13 334 17 q 332 7 328 8 q 337 5 334 5 q 345 3 340 4 q 357 -3 354 0 q 361 -12 361 -7 q 361 -18 361 -16 q 358 -22 361 -20 q 337 -29 350 -31 q 319 -18 325 -28 q 318 -11 318 -12 q 322 -9 318 -9 q 327 -10 326 -9 q 328 -12 328 -11 q 328 -14 328 -12 q 332 -17 329 -16 q 334 -19 334 -18 q 337 -20 335 -20 q 342 -20 339 -20 q 348 -19 346 -20 q 350 -17 350 -18 q 352 -15 351 -16 q 353 -12 353 -14 q 338 -5 353 -9 q 330 -3 334 -4 q 325 0 326 -1 q 321 5 322 1 q 319 12 319 8 q 324 20 321 17 q 330 25 328 24 m 689 25 l 689 25 q 705 24 697 26 q 718 14 713 21 q 720 7 720 9 q 721 0 721 4 q 713 -24 722 -16 q 689 -28 701 -32 q 672 -9 676 -24 q 671 1 671 -4 q 673 11 671 7 q 681 20 676 16 q 689 25 685 24 m 703 16 l 703 16 q 692 15 697 17 q 684 9 688 14 q 681 1 681 5 q 681 -8 681 -4 q 694 -20 685 -18 q 710 -12 704 -21 q 712 3 714 -5 q 703 16 710 11 m 768 24 l 768 24 q 786 24 778 28 q 793 19 790 22 q 796 14 796 16 q 797 12 796 12 q 798 9 798 11 q 797 9 798 9 q 793 8 796 8 q 789 9 790 8 q 787 11 787 9 q 781 15 786 14 q 770 15 775 17 q 765 9 765 14 q 767 7 765 8 q 772 5 768 7 q 783 1 775 4 q 793 -2 790 0 q 798 -8 796 -4 q 794 -24 800 -18 q 777 -29 787 -29 q 762 -24 768 -29 q 755 -12 755 -20 q 756 -10 755 -11 q 760 -9 757 -9 q 764 -10 762 -9 q 765 -12 765 -11 q 778 -20 766 -20 q 789 -14 786 -20 q 787 -9 789 -11 q 779 -7 785 -8 q 765 -2 770 -4 q 758 3 761 0 q 756 6 757 4 q 757 11 755 8 q 768 24 757 21 m 901 22 l 901 22 q 906 25 904 24 q 909 26 908 26 q 921 22 916 26 q 928 12 926 18 q 928 5 928 11 q 929 -9 929 -1 l 929 -28 l 924 -28 l 920 -28 l 920 -12 q 919 6 920 0 q 916 14 918 12 q 905 15 911 17 q 897 8 900 14 q 895 5 896 7 q 895 -1 895 3 q 895 -11 895 -4 l 893 -28 l 889 -28 l 885 -28 l 885 -1 l 885 25 l 889 25 q 893 24 892 25 q 895 22 895 24 q 893 21 895 22 q 892 18 892 20 q 889 12 889 16 q 889 10 889 9 q 892 16 889 11 q 901 22 896 20 m 983 25 l 983 25 q 996 25 989 26 q 1007 18 1003 24 q 1013 11 1011 16 q 1015 1 1014 7 l 1015 -5 l 994 -5 q 983 -5 987 -5 q 977 -5 979 -5 q 975 -6 975 -5 q 974 -7 974 -7 q 977 -13 974 -9 q 982 -18 979 -16 q 992 -20 986 -21 q 1003 -14 999 -18 q 1004 -12 1003 -12 q 1008 -11 1006 -11 q 1013 -12 1013 -11 q 1011 -18 1014 -14 q 997 -28 1006 -25 q 981 -28 989 -31 q 964 -1 964 -21 q 983 25 965 20 m 997 14 l 997 14 q 990 16 994 16 q 983 16 986 17 q 978 11 981 14 q 975 5 975 8 l 974 3 l 989 3 q 999 3 996 3 q 1004 3 1003 3 q 1004 5 1004 4 q 1002 9 1004 7 q 997 14 1000 12 m 454 5 l 454 5 l 454 25 l 458 25 l 463 25 l 463 5 q 463 -5 463 -1 q 463 -12 463 -9 q 464 -15 464 -14 q 465 -17 464 -16 q 476 -20 469 -21 q 485 -12 482 -18 q 487 -9 486 -11 q 488 -3 488 -7 q 488 8 488 1 l 489 25 l 493 25 l 497 25 l 497 5 l 497 -16 l 500 -17 q 502 -20 501 -18 q 503 -24 503 -21 q 501 -28 503 -28 q 495 -26 498 -28 q 490 -20 492 -24 q 488 -18 489 -17 q 486 -24 486 -18 q 480 -28 485 -26 q 471 -29 476 -29 q 461 -26 465 -29 q 458 -24 460 -25 q 456 -20 457 -22 q 455 -15 456 -18 q 454 -8 454 -12 q 454 5 454 -4 m 627 -1 l 627 -1 l 627 25 l 631 25 l 635 24 l 636 -1 l 636 -28 l 631 -28 l 627 -28 l 627 -1 m 836 -17 l 836 -17 q 838 -16 836 -16 q 842 -16 840 -16 l 847 -16 l 847 -22 l 847 -28 l 842 -28 l 835 -28 l 835 -22 q 836 -18 835 -20 q 836 -17 836 -17 z "},"6":{"ha":1250,"x_min":83,"x_max":1166,"o":"m 328 1032 l 328 1032 q 420 1033 335 1032 q 631 1034 505 1034 l 926 1034 l 942 1031 q 1063 978 1008 1018 q 1085 957 1071 970 q 1107 932 1099 943 q 1160 827 1146 885 q 1161 822 1161 823 q 1164 807 1162 814 q 1166 787 1165 800 q 1166 748 1166 774 q 1166 676 1166 722 q 1166 652 1166 665 q 1166 563 1166 596 q 1166 514 1166 530 q 1165 489 1166 497 q 1162 472 1164 481 q 1084 332 1146 390 q 940 258 1026 273 l 924 256 l 632 256 q 486 254 543 254 q 397 255 429 254 q 347 256 364 256 q 323 256 330 256 q 307 258 315 257 q 307 260 307 258 q 147 351 211 277 q 86 482 100 407 l 83 498 l 83 643 l 83 787 l 86 803 q 163 954 100 892 q 328 1032 231 1021 m 699 774 l 699 774 q 664 772 681 779 q 637 747 647 765 q 635 742 636 745 q 635 736 635 739 q 635 726 635 733 q 635 718 635 721 q 635 712 635 714 q 637 707 636 710 q 660 684 646 692 q 690 679 673 676 q 725 703 714 684 q 729 745 736 722 q 716 762 725 754 q 699 774 708 770 m 854 728 l 854 728 l 854 777 l 842 777 l 829 777 l 829 754 l 828 733 l 815 754 l 802 775 l 789 775 l 775 775 l 775 726 l 775 679 l 789 679 l 803 679 l 803 700 l 803 722 l 817 701 l 831 679 l 843 679 l 854 679 l 854 728 m 228 774 l 228 774 q 222 774 225 774 q 215 775 220 775 q 200 775 210 775 l 179 775 l 179 726 l 179 679 l 192 679 l 205 679 l 205 694 l 205 710 l 215 711 q 224 712 221 711 q 231 714 228 713 q 249 745 250 725 q 228 774 245 765 m 353 762 l 353 762 l 353 775 l 322 775 l 290 775 l 290 726 l 290 679 l 322 679 l 353 679 l 353 692 l 353 704 l 335 704 l 318 704 l 318 708 l 318 714 l 334 714 l 349 714 l 349 726 l 349 739 l 334 739 l 318 739 l 318 745 l 318 749 l 335 749 l 353 749 l 353 762 m 454 771 l 454 771 l 449 775 l 424 775 l 400 775 l 400 728 l 400 679 l 412 679 l 427 679 l 427 694 q 427 706 427 703 q 428 710 427 710 q 432 706 429 710 q 439 694 435 701 l 449 679 l 464 679 q 474 679 469 679 q 479 679 479 679 q 476 685 479 679 q 468 697 472 690 l 457 714 l 461 718 q 465 723 463 721 q 468 728 467 725 q 471 733 471 730 q 471 742 471 736 q 471 751 471 747 q 469 755 471 754 q 454 771 464 765 m 567 774 l 567 774 q 552 775 561 775 q 538 772 543 775 q 515 749 517 765 q 516 738 515 742 q 521 729 517 733 q 549 717 528 721 q 560 714 557 715 q 566 710 564 713 q 566 707 566 708 q 564 705 566 707 q 553 703 559 703 q 543 708 546 704 l 541 711 l 533 710 q 532 710 533 710 q 526 707 529 708 q 521 707 522 707 q 515 704 515 705 q 517 697 514 703 q 541 679 524 684 q 576 684 558 675 q 591 711 595 692 q 558 739 591 733 q 545 749 538 743 q 553 751 547 751 q 561 747 558 751 l 564 745 l 578 747 q 585 749 582 749 q 588 749 587 749 q 589 751 589 750 q 589 753 590 751 q 581 765 587 760 q 567 774 575 771 m 957 768 l 957 768 l 954 775 l 939 775 l 925 775 l 909 728 q 899 694 904 708 q 895 679 895 681 q 899 679 895 679 q 908 679 903 679 l 922 679 l 924 685 l 925 690 l 940 689 l 954 689 l 956 684 l 957 679 l 971 679 q 982 679 979 679 q 985 681 985 679 q 982 688 985 681 q 971 722 978 700 q 962 748 966 736 q 957 766 958 761 q 957 768 957 768 m 1050 741 l 1050 741 l 1050 775 l 1038 775 l 1023 775 l 1023 726 l 1023 679 l 1051 679 l 1079 679 l 1079 692 l 1079 704 l 1065 704 l 1050 704 l 1050 741 m 685 607 l 685 607 q 643 596 661 611 q 627 552 624 576 q 654 515 631 528 q 661 512 659 513 q 666 511 663 511 q 676 511 669 511 q 686 511 682 511 q 691 512 689 511 q 697 515 693 513 q 711 525 704 518 q 721 538 718 532 q 725 568 728 553 q 710 595 721 583 q 685 607 699 604 m 848 559 l 848 559 l 848 608 l 835 608 q 822 607 821 608 q 821 600 821 606 q 821 586 821 595 l 821 567 l 808 586 l 794 607 l 782 607 l 770 607 l 770 558 l 770 511 l 783 511 l 796 511 l 796 532 l 798 554 l 811 532 l 823 511 l 836 511 l 848 511 l 848 559 m 231 578 l 231 578 l 231 607 l 216 607 l 204 607 l 204 572 l 204 538 l 208 532 q 217 520 211 525 q 229 513 222 515 q 243 511 235 511 q 258 513 252 511 q 272 522 265 515 q 279 534 278 528 q 281 541 281 538 q 282 551 282 545 q 282 574 282 558 l 282 607 l 269 607 l 256 607 l 256 578 q 256 553 256 561 q 254 543 256 546 q 250 538 253 541 q 242 536 245 536 q 235 539 239 536 q 232 544 233 541 q 231 554 231 547 q 231 578 231 561 m 380 606 l 380 606 q 366 607 375 607 q 350 606 357 607 q 340 600 345 604 q 332 591 335 596 q 328 587 329 590 q 328 581 328 585 q 329 569 328 572 q 335 561 330 566 q 345 554 339 557 q 363 549 351 551 q 378 542 378 546 q 373 536 378 538 q 363 535 368 534 q 355 541 358 536 l 353 543 l 340 541 q 331 538 335 539 q 326 538 328 538 q 327 534 326 536 q 330 528 328 532 q 334 522 332 525 q 363 511 343 511 q 400 525 389 510 q 404 530 403 528 q 404 536 404 533 q 375 571 407 564 q 357 576 361 574 q 357 582 354 578 q 360 583 358 583 q 366 583 363 583 q 371 583 370 583 q 374 579 372 582 l 376 576 l 389 579 q 398 581 395 581 q 401 582 401 582 q 402 585 403 583 q 400 589 401 586 q 380 606 393 602 m 511 595 l 511 595 l 511 607 l 481 607 l 449 607 l 449 558 l 449 511 l 481 511 l 511 511 l 511 524 l 511 536 l 493 536 l 476 536 l 476 542 l 476 546 l 492 546 l 507 546 l 507 558 l 507 571 l 492 571 l 476 571 l 476 576 l 476 582 l 493 582 l 511 582 l 511 595 m 922 572 l 922 572 l 922 607 l 909 607 l 896 607 l 896 558 l 896 511 l 924 511 l 951 511 l 951 524 l 951 536 l 936 536 l 922 536 l 922 572 m 1002 595 l 1002 595 l 994 607 l 979 607 l 962 607 l 965 604 q 971 594 966 602 q 982 576 975 586 l 996 551 l 996 530 l 996 511 l 1008 511 l 1022 511 l 1022 530 l 1022 551 l 1036 576 q 1048 595 1043 587 q 1053 604 1053 603 l 1054 607 l 1039 607 l 1023 607 l 1017 595 q 1012 585 1014 589 q 1008 582 1010 582 q 1006 585 1008 582 q 1002 595 1004 589 m 673 749 l 673 749 q 699 743 689 754 q 703 717 708 732 q 681 704 694 703 q 661 721 667 705 q 663 737 660 729 q 673 749 667 745 m 205 742 l 205 742 l 205 749 l 212 749 q 220 748 218 749 q 221 743 221 747 q 219 738 221 739 q 212 734 216 736 l 205 734 l 205 742 m 427 742 l 427 742 l 427 749 l 435 749 q 443 748 441 749 q 444 742 444 747 q 433 734 444 734 l 427 734 l 427 742 m 937 729 l 937 729 q 939 736 937 733 q 940 737 940 739 q 942 732 940 737 q 943 726 943 729 l 947 714 l 940 714 l 933 714 l 933 718 q 934 721 933 718 q 936 728 935 724 q 937 729 936 729 m 667 581 l 667 581 q 685 580 676 585 q 697 566 694 575 q 693 545 700 553 q 675 536 686 536 q 657 547 664 536 q 655 567 652 557 q 667 581 659 576 m 195 170 l 195 170 q 212 171 203 172 q 227 165 221 170 q 231 161 229 164 q 235 155 233 158 q 236 151 236 153 q 235 151 236 151 q 232 150 235 150 q 229 151 231 150 q 227 154 228 151 q 209 163 221 163 q 191 155 197 164 q 183 135 182 149 q 193 115 184 121 q 214 113 201 110 q 225 120 221 115 q 229 129 229 125 l 229 132 l 220 132 l 210 132 l 210 136 l 210 140 l 224 140 l 236 140 l 236 122 l 236 106 l 233 106 q 229 107 229 106 q 232 114 229 109 q 233 117 233 117 q 232 118 233 118 q 231 117 232 118 q 228 114 229 115 q 207 104 221 104 q 179 121 189 104 q 177 125 178 123 q 176 129 176 126 q 176 138 176 132 q 176 146 176 143 q 177 150 176 149 q 179 154 178 151 q 195 170 184 165 m 452 168 l 452 168 q 461 171 454 171 l 468 171 l 468 167 l 468 163 l 463 163 q 457 162 458 163 q 454 160 456 161 q 454 156 454 158 q 453 153 453 154 l 453 150 l 458 150 l 464 150 l 464 146 l 464 142 l 457 142 q 451 142 453 142 q 447 140 449 142 q 448 140 447 140 q 450 138 449 139 q 452 135 452 136 q 453 131 453 134 q 453 119 453 127 l 453 106 l 449 106 l 444 106 l 444 123 l 444 142 l 441 142 q 439 142 440 142 q 439 146 439 143 q 439 149 439 149 q 441 150 440 150 q 444 151 444 150 q 444 154 444 151 q 452 168 444 163 m 566 138 l 566 138 l 566 171 l 570 171 l 574 171 l 574 138 l 574 106 l 570 106 l 566 106 l 566 138 m 604 138 l 604 138 l 604 171 l 608 171 l 612 171 l 612 138 l 612 106 l 608 106 l 604 106 l 604 138 m 704 168 l 704 168 q 713 171 707 171 l 720 171 l 720 167 l 720 163 l 714 163 q 709 162 711 163 q 707 160 707 161 q 705 156 705 158 q 704 153 704 154 l 704 150 l 710 150 l 717 150 l 717 146 l 717 142 l 708 142 q 702 142 704 142 q 700 140 700 142 q 699 140 699 140 q 701 138 700 139 q 703 135 703 136 q 704 131 704 134 q 704 119 704 127 l 704 106 l 700 106 l 696 106 l 696 123 l 696 142 l 694 142 q 692 142 692 142 q 692 146 692 143 q 692 149 692 149 q 694 150 692 150 q 696 151 696 150 q 696 154 696 151 q 704 168 696 163 m 342 155 l 342 155 l 342 161 l 346 161 l 350 161 l 350 155 l 350 150 l 355 150 l 359 150 l 359 146 l 359 142 l 353 142 q 347 138 340 142 q 349 136 349 138 q 349 133 349 135 q 350 125 350 131 l 350 114 l 355 113 l 361 113 l 361 109 l 361 106 l 354 106 q 349 106 350 106 q 345 109 347 106 l 342 111 l 342 126 l 342 142 l 339 142 q 336 142 336 142 q 335 146 335 143 q 336 149 335 149 q 339 150 336 150 q 341 150 340 150 q 342 151 342 150 q 342 155 342 153 m 884 155 l 884 155 l 884 161 l 888 161 l 890 161 l 890 155 l 890 150 l 896 150 l 901 150 l 901 146 l 901 142 l 895 142 q 888 142 889 142 q 886 140 886 142 q 887 140 886 140 q 889 138 888 139 q 890 137 889 138 q 890 134 890 136 q 890 127 890 132 q 892 115 890 118 q 897 113 893 113 q 901 113 900 113 q 903 112 903 113 q 903 109 903 111 l 903 106 l 897 106 q 891 106 893 106 q 888 109 889 106 l 884 111 l 884 126 l 884 142 l 880 142 q 878 142 879 142 q 878 146 878 143 q 878 149 878 149 q 880 150 879 150 q 883 150 882 150 q 884 151 884 150 q 884 155 884 153 m 1050 155 l 1050 155 l 1050 161 l 1054 161 l 1059 161 l 1059 155 l 1059 150 l 1063 150 l 1068 150 l 1068 146 l 1068 142 l 1061 142 q 1055 142 1057 142 q 1053 140 1053 142 q 1053 140 1053 140 q 1055 138 1054 139 q 1057 137 1057 138 q 1058 134 1057 136 q 1059 127 1059 132 q 1059 115 1059 118 q 1065 113 1060 113 q 1068 113 1067 113 q 1069 112 1069 113 q 1069 109 1069 111 l 1069 106 l 1064 106 q 1058 106 1060 106 q 1054 109 1055 106 l 1050 111 l 1050 126 l 1050 142 l 1047 142 q 1045 142 1046 142 q 1044 146 1044 143 q 1045 149 1044 149 q 1047 150 1046 150 q 1049 150 1048 150 q 1050 151 1050 150 q 1050 155 1050 153 m 282 149 l 282 149 q 301 146 293 153 q 311 129 310 140 l 311 125 l 293 125 q 280 124 283 125 q 276 122 277 123 q 278 118 275 121 q 287 112 281 113 q 298 115 293 111 q 303 119 301 118 q 308 119 306 119 q 310 118 310 119 q 307 114 310 117 q 301 109 304 111 q 297 106 298 106 q 286 105 292 104 q 277 107 281 106 q 268 129 267 115 q 282 149 269 143 m 297 140 l 297 140 q 287 142 292 143 q 278 136 282 142 q 277 134 278 135 q 277 132 277 132 q 280 132 277 132 q 288 131 283 131 q 297 132 293 131 q 301 132 301 132 q 302 134 302 132 q 300 138 301 136 q 297 140 298 139 m 754 149 l 754 149 q 762 150 758 150 q 771 149 766 150 q 783 126 783 143 q 780 113 783 119 q 770 106 777 107 q 758 104 764 103 q 747 110 751 106 q 741 121 743 114 q 741 135 739 127 q 746 143 742 139 q 754 149 750 147 m 770 140 l 770 140 q 751 138 758 146 q 750 118 745 131 q 759 112 753 113 q 771 114 765 111 q 775 128 775 119 q 770 140 775 136 m 828 149 l 828 149 q 840 149 835 151 q 848 142 846 147 q 850 136 850 140 q 850 122 850 132 l 850 106 l 847 106 l 843 106 l 843 121 q 843 132 843 127 q 842 138 843 136 q 840 140 842 139 q 836 142 839 142 q 828 140 832 143 q 823 135 823 139 q 821 119 822 131 l 821 106 l 817 106 l 814 106 l 814 127 l 814 150 l 818 150 q 821 149 821 150 q 819 144 821 147 q 817 142 818 143 q 817 139 817 140 l 817 136 l 818 139 q 823 145 821 143 q 828 149 825 147 m 991 149 l 991 149 q 997 150 994 150 q 1002 150 999 150 q 1015 144 1011 150 q 1018 126 1018 139 q 1018 119 1018 121 q 1018 115 1018 117 q 1019 114 1018 114 q 1021 111 1021 113 q 1021 107 1022 109 q 1019 106 1021 106 q 1013 113 1015 106 l 1010 117 l 1010 114 q 1006 106 1008 109 q 996 104 1003 104 q 985 109 989 104 q 981 118 981 113 q 989 127 982 123 q 994 130 990 129 q 1002 132 997 131 q 1007 133 1004 132 q 1010 134 1010 134 q 1010 135 1010 134 q 1008 138 1010 136 q 1004 142 1007 140 q 996 142 1000 143 q 990 138 991 142 q 988 136 989 136 q 985 136 987 136 q 982 137 982 136 q 983 142 982 138 q 987 146 985 144 q 991 149 989 147 m 1010 123 l 1010 123 q 1008 126 1010 126 q 1003 125 1007 126 q 1002 125 1003 125 q 994 122 997 123 q 991 120 991 121 q 989 119 990 119 q 989 117 989 118 q 997 111 989 111 q 1006 115 1002 111 q 1010 123 1010 119 m 493 132 l 493 132 l 493 150 l 497 150 l 501 150 l 501 134 q 501 121 501 125 q 502 117 501 118 q 503 114 503 115 q 513 113 507 111 q 521 118 518 114 q 522 124 522 121 q 522 136 522 127 l 524 150 l 526 150 l 530 150 l 530 132 q 530 123 530 126 q 530 117 530 119 q 531 115 530 115 q 533 114 532 114 q 534 111 534 113 q 534 107 534 109 q 533 106 534 106 q 528 108 530 106 q 524 114 525 110 q 522 115 522 115 q 521 111 522 114 q 517 106 519 107 q 510 104 515 104 q 494 111 500 104 q 494 118 494 114 q 493 132 493 122 m 196 49 l 196 49 q 199 50 197 49 q 204 50 201 50 l 210 49 l 210 45 l 210 40 l 204 40 q 198 39 200 40 q 195 37 196 39 q 193 33 193 35 q 192 29 192 32 l 192 25 l 197 25 l 204 25 l 204 20 l 204 16 l 195 16 q 188 16 191 16 q 184 14 184 16 q 185 13 184 14 q 187 11 186 12 l 192 8 l 192 -9 l 192 -28 l 186 -28 l 182 -28 l 182 -7 l 182 16 l 178 16 q 176 16 176 16 q 175 17 175 16 q 175 20 175 18 q 176 24 175 22 q 178 25 176 25 q 180 25 179 25 q 181 26 180 25 q 182 31 182 28 q 196 49 183 46 m 575 36 l 575 36 l 575 50 l 579 50 l 585 50 l 585 17 q 585 1 585 7 q 585 -9 585 -5 q 585 -15 585 -14 q 586 -17 586 -17 q 588 -18 587 -18 q 589 -18 589 -18 q 590 -20 590 -18 q 590 -24 590 -21 q 589 -26 590 -25 q 589 -28 589 -28 q 584 -26 587 -28 q 579 -22 581 -25 l 576 -20 l 572 -24 q 549 -28 561 -32 q 536 -12 539 -22 q 537 9 533 -1 q 550 24 541 20 q 553 26 551 25 q 557 26 555 26 q 567 24 561 26 q 575 17 572 21 q 578 18 583 8 q 576 22 576 20 q 576 27 576 24 q 575 36 575 31 m 568 12 l 568 12 q 561 16 566 16 q 551 14 555 17 q 545 -4 545 8 q 547 -9 546 -7 q 547 -14 547 -12 q 557 -20 551 -18 q 568 -17 562 -21 q 575 -2 575 -11 q 568 12 575 7 m 627 45 l 627 45 l 627 50 l 631 50 l 635 49 l 636 45 l 636 39 l 631 39 l 627 39 l 627 45 m 397 32 l 397 32 l 397 39 l 401 39 l 407 39 l 407 32 l 407 25 l 412 25 l 419 25 l 419 20 l 419 16 l 410 16 q 404 15 406 16 q 401 14 401 14 q 402 12 401 12 q 403 11 403 11 q 404 11 403 11 q 406 9 404 11 q 406 6 406 9 q 407 -4 407 3 q 408 -17 407 -16 q 410 -18 408 -18 q 415 -18 412 -18 l 419 -18 l 419 -24 l 419 -28 l 414 -28 q 404 -26 407 -28 q 400 -22 401 -25 q 398 -15 399 -20 q 397 -1 397 -9 l 397 16 l 395 16 q 393 16 393 16 q 391 17 392 16 q 390 20 390 18 q 391 24 390 22 q 393 25 392 25 q 395 25 393 25 l 397 25 l 397 32 m 1051 32 l 1051 32 l 1051 39 l 1055 39 l 1061 39 l 1061 32 l 1061 25 l 1067 25 l 1072 25 l 1072 20 l 1072 16 l 1064 16 q 1056 15 1057 16 q 1059 11 1054 14 q 1060 8 1060 9 q 1061 4 1060 7 q 1061 -4 1061 1 l 1061 -18 l 1068 -18 l 1074 -18 l 1074 -24 l 1074 -29 l 1067 -28 q 1059 -27 1061 -28 q 1055 -24 1057 -26 l 1051 -21 l 1051 -3 l 1051 16 l 1047 16 q 1045 16 1046 16 q 1044 17 1044 16 q 1044 20 1044 18 q 1044 24 1044 22 q 1045 25 1044 25 q 1047 25 1046 25 l 1051 25 l 1051 32 m 249 25 l 249 25 q 260 25 254 26 q 271 20 267 24 l 273 17 l 273 21 q 274 24 273 24 q 278 25 275 25 l 282 25 l 282 -7 q 282 -26 282 -20 q 282 -35 282 -32 q 281 -40 282 -39 q 279 -43 281 -41 q 277 -46 279 -45 q 273 -49 275 -47 q 270 -51 272 -50 q 264 -52 268 -52 q 254 -52 261 -52 l 239 -52 l 239 -47 l 239 -43 l 252 -43 q 261 -42 257 -43 q 267 -41 265 -41 q 273 -29 273 -37 q 274 -26 273 -28 q 277 -22 275 -24 q 273 -20 281 -12 q 261 -28 268 -25 q 248 -28 254 -31 q 239 -22 243 -26 q 235 -12 236 -17 q 233 -2 233 -8 q 235 8 233 4 q 239 18 236 14 q 249 25 243 22 m 265 14 l 265 14 q 259 16 264 16 q 252 16 254 17 q 243 3 244 12 q 245 -14 241 -5 q 258 -20 250 -21 q 271 -11 265 -20 q 272 1 273 -5 q 265 14 271 8 m 330 25 l 330 25 q 336 25 334 25 q 342 25 339 25 q 358 16 354 25 q 360 9 361 11 q 355 8 359 8 q 350 9 350 8 q 347 15 350 12 q 340 17 343 17 q 331 13 334 17 q 332 7 328 8 q 337 5 334 5 q 345 3 340 4 q 357 -3 354 0 q 361 -12 361 -7 q 361 -18 361 -16 q 358 -22 361 -20 q 337 -29 350 -31 q 319 -18 325 -28 q 318 -11 318 -12 q 322 -9 318 -9 q 327 -10 326 -9 q 328 -12 328 -11 q 328 -14 328 -12 q 332 -17 329 -16 q 334 -19 334 -18 q 337 -20 335 -20 q 342 -20 339 -20 q 348 -19 346 -20 q 350 -17 350 -18 q 352 -15 351 -16 q 353 -12 353 -14 q 338 -5 353 -9 q 330 -3 334 -4 q 325 0 326 -1 q 321 5 322 1 q 319 12 319 8 q 324 20 321 17 q 330 25 328 24 m 689 25 l 689 25 q 705 24 697 26 q 718 14 713 21 q 720 7 720 9 q 721 0 721 4 q 713 -24 722 -16 q 689 -28 701 -32 q 672 -9 676 -24 q 671 1 671 -4 q 673 11 671 7 q 681 20 676 16 q 689 25 685 24 m 703 16 l 703 16 q 692 15 697 17 q 684 9 688 14 q 681 1 681 5 q 681 -8 681 -4 q 694 -20 685 -18 q 710 -12 704 -21 q 712 3 714 -5 q 703 16 710 11 m 768 24 l 768 24 q 786 24 778 28 q 793 19 790 22 q 796 14 796 16 q 797 12 796 12 q 798 9 798 11 q 797 9 798 9 q 793 8 796 8 q 789 9 790 8 q 787 11 787 9 q 781 15 786 14 q 770 15 775 17 q 765 9 765 14 q 767 7 765 8 q 772 5 768 7 q 783 1 775 4 q 793 -2 790 0 q 798 -8 796 -4 q 794 -24 800 -18 q 777 -29 787 -29 q 762 -24 768 -29 q 755 -12 755 -20 q 756 -10 755 -11 q 760 -9 757 -9 q 764 -10 762 -9 q 765 -12 765 -11 q 778 -20 766 -20 q 789 -14 786 -20 q 787 -9 789 -11 q 779 -7 785 -8 q 765 -2 770 -4 q 758 3 761 0 q 756 6 757 4 q 757 11 755 8 q 768 24 757 21 m 901 22 l 901 22 q 906 25 904 24 q 909 26 908 26 q 921 22 916 26 q 928 12 926 18 q 928 5 928 11 q 929 -9 929 -1 l 929 -28 l 924 -28 l 920 -28 l 920 -12 q 919 6 920 0 q 916 14 918 12 q 905 15 911 17 q 897 8 900 14 q 895 5 896 7 q 895 -1 895 3 q 895 -11 895 -4 l 893 -28 l 889 -28 l 885 -28 l 885 -1 l 885 25 l 889 25 q 893 24 892 25 q 895 22 895 24 q 893 21 895 22 q 892 18 892 20 q 889 12 889 16 q 889 10 889 9 q 892 16 889 11 q 901 22 896 20 m 983 25 l 983 25 q 996 25 989 26 q 1007 18 1003 24 q 1013 11 1011 16 q 1015 1 1014 7 l 1015 -5 l 994 -5 q 983 -5 987 -5 q 977 -5 979 -5 q 975 -6 975 -5 q 974 -7 974 -7 q 977 -13 974 -9 q 982 -18 979 -16 q 992 -20 986 -21 q 1003 -14 999 -18 q 1004 -12 1003 -12 q 1008 -11 1006 -11 q 1013 -12 1013 -11 q 1011 -18 1014 -14 q 997 -28 1006 -25 q 981 -28 989 -31 q 964 -1 964 -21 q 983 25 965 20 m 997 14 l 997 14 q 990 16 994 16 q 983 16 986 17 q 978 11 981 14 q 975 5 975 8 l 974 3 l 989 3 q 999 3 996 3 q 1004 3 1003 3 q 1004 5 1004 4 q 1002 9 1004 7 q 997 14 1000 12 m 454 5 l 454 5 l 454 25 l 458 25 l 463 25 l 463 5 q 463 -5 463 -1 q 463 -12 463 -9 q 464 -15 464 -14 q 465 -17 464 -16 q 476 -20 469 -21 q 485 -12 482 -18 q 487 -9 486 -11 q 488 -3 488 -7 q 488 8 488 1 l 489 25 l 493 25 l 497 25 l 497 5 l 497 -16 l 500 -17 q 502 -20 501 -18 q 503 -24 503 -21 q 501 -28 503 -28 q 495 -26 498 -28 q 490 -20 492 -24 q 488 -18 489 -17 q 486 -24 486 -18 q 480 -28 485 -26 q 471 -29 476 -29 q 461 -26 465 -29 q 458 -24 460 -25 q 456 -20 457 -22 q 455 -15 456 -18 q 454 -8 454 -12 q 454 5 454 -4 m 627 -1 l 627 -1 l 627 25 l 631 25 l 635 24 l 636 -1 l 636 -28 l 631 -28 l 627 -28 l 627 -1 m 836 -17 l 836 -17 q 838 -16 836 -16 q 842 -16 840 -16 l 847 -16 l 847 -22 l 847 -28 l 842 -28 l 835 -28 l 835 -22 q 836 -18 835 -20 q 836 -17 836 -17 z "},"7":{"ha":1250,"x_min":83,"x_max":1166,"o":"m 328 1032 l 328 1032 q 420 1033 335 1032 q 631 1034 505 1034 l 926 1034 l 942 1031 q 1063 978 1008 1018 q 1085 957 1071 970 q 1107 932 1099 943 q 1160 827 1146 885 q 1161 822 1161 823 q 1164 807 1162 814 q 1166 787 1165 800 q 1166 748 1166 774 q 1166 676 1166 722 q 1166 652 1166 665 q 1166 563 1166 596 q 1166 514 1166 530 q 1165 489 1166 497 q 1162 472 1164 481 q 1084 332 1146 390 q 940 258 1026 273 l 924 256 l 632 256 q 486 254 543 254 q 397 255 429 254 q 347 256 364 256 q 323 256 330 256 q 307 258 315 257 q 307 260 307 258 q 147 351 211 277 q 86 482 100 407 l 83 498 l 83 643 l 83 787 l 86 803 q 163 954 100 892 q 328 1032 231 1021 m 699 774 l 699 774 q 664 772 681 779 q 637 747 647 765 q 635 742 636 745 q 635 736 635 739 q 635 726 635 733 q 635 718 635 721 q 635 712 635 714 q 637 707 636 710 q 660 684 646 692 q 690 679 673 676 q 725 703 714 684 q 729 745 736 722 q 716 762 725 754 q 699 774 708 770 m 854 728 l 854 728 l 854 777 l 842 777 l 829 777 l 829 754 l 828 733 l 815 754 l 802 775 l 789 775 l 775 775 l 775 726 l 775 679 l 789 679 l 803 679 l 803 700 l 803 722 l 817 701 l 831 679 l 843 679 l 854 679 l 854 728 m 228 774 l 228 774 q 222 774 225 774 q 215 775 220 775 q 200 775 210 775 l 179 775 l 179 726 l 179 679 l 192 679 l 205 679 l 205 694 l 205 710 l 215 711 q 224 712 221 711 q 231 714 228 713 q 249 745 250 725 q 228 774 245 765 m 353 762 l 353 762 l 353 775 l 322 775 l 290 775 l 290 726 l 290 679 l 322 679 l 353 679 l 353 692 l 353 704 l 335 704 l 318 704 l 318 708 l 318 714 l 334 714 l 349 714 l 349 726 l 349 739 l 334 739 l 318 739 l 318 745 l 318 749 l 335 749 l 353 749 l 353 762 m 454 771 l 454 771 l 449 775 l 424 775 l 400 775 l 400 728 l 400 679 l 412 679 l 427 679 l 427 694 q 427 706 427 703 q 428 710 427 710 q 432 706 429 710 q 439 694 435 701 l 449 679 l 464 679 q 474 679 469 679 q 479 679 479 679 q 476 685 479 679 q 468 697 472 690 l 457 714 l 461 718 q 465 723 463 721 q 468 728 467 725 q 471 733 471 730 q 471 742 471 736 q 471 751 471 747 q 469 755 471 754 q 454 771 464 765 m 567 774 l 567 774 q 552 775 561 775 q 538 772 543 775 q 515 749 517 765 q 516 738 515 742 q 521 729 517 733 q 549 717 528 721 q 560 714 557 715 q 566 710 564 713 q 566 707 566 708 q 564 705 566 707 q 553 703 559 703 q 543 708 546 704 l 541 711 l 533 710 q 532 710 533 710 q 526 707 529 708 q 521 707 522 707 q 515 704 515 705 q 517 697 514 703 q 541 679 524 684 q 576 684 558 675 q 591 711 595 692 q 558 739 591 733 q 545 749 538 743 q 553 751 547 751 q 561 747 558 751 l 564 745 l 578 747 q 585 749 582 749 q 588 749 587 749 q 589 751 589 750 q 589 753 590 751 q 581 765 587 760 q 567 774 575 771 m 957 768 l 957 768 l 954 775 l 939 775 l 925 775 l 909 728 q 899 694 904 708 q 895 679 895 681 q 899 679 895 679 q 908 679 903 679 l 922 679 l 924 685 l 925 690 l 940 689 l 954 689 l 956 684 l 957 679 l 971 679 q 982 679 979 679 q 985 681 985 679 q 982 688 985 681 q 971 722 978 700 q 962 748 966 736 q 957 766 958 761 q 957 768 957 768 m 1050 741 l 1050 741 l 1050 775 l 1038 775 l 1023 775 l 1023 726 l 1023 679 l 1051 679 l 1079 679 l 1079 692 l 1079 704 l 1065 704 l 1050 704 l 1050 741 m 685 607 l 685 607 q 643 596 661 611 q 627 552 624 576 q 654 515 631 528 q 661 512 659 513 q 666 511 663 511 q 676 511 669 511 q 686 511 682 511 q 691 512 689 511 q 697 515 693 513 q 711 525 704 518 q 721 538 718 532 q 725 568 728 553 q 710 595 721 583 q 685 607 699 604 m 848 559 l 848 559 l 848 608 l 835 608 q 822 607 821 608 q 821 600 821 606 q 821 586 821 595 l 821 567 l 808 586 l 794 607 l 782 607 l 770 607 l 770 558 l 770 511 l 783 511 l 796 511 l 796 532 l 798 554 l 811 532 l 823 511 l 836 511 l 848 511 l 848 559 m 231 578 l 231 578 l 231 607 l 216 607 l 204 607 l 204 572 l 204 538 l 208 532 q 217 520 211 525 q 229 513 222 515 q 243 511 235 511 q 258 513 252 511 q 272 522 265 515 q 279 534 278 528 q 281 541 281 538 q 282 551 282 545 q 282 574 282 558 l 282 607 l 269 607 l 256 607 l 256 578 q 256 553 256 561 q 254 543 256 546 q 250 538 253 541 q 242 536 245 536 q 235 539 239 536 q 232 544 233 541 q 231 554 231 547 q 231 578 231 561 m 380 606 l 380 606 q 366 607 375 607 q 350 606 357 607 q 340 600 345 604 q 332 591 335 596 q 328 587 329 590 q 328 581 328 585 q 329 569 328 572 q 335 561 330 566 q 345 554 339 557 q 363 549 351 551 q 378 542 378 546 q 373 536 378 538 q 363 535 368 534 q 355 541 358 536 l 353 543 l 340 541 q 331 538 335 539 q 326 538 328 538 q 327 534 326 536 q 330 528 328 532 q 334 522 332 525 q 363 511 343 511 q 400 525 389 510 q 404 530 403 528 q 404 536 404 533 q 375 571 407 564 q 357 576 361 574 q 357 582 354 578 q 360 583 358 583 q 366 583 363 583 q 371 583 370 583 q 374 579 372 582 l 376 576 l 389 579 q 398 581 395 581 q 401 582 401 582 q 402 585 403 583 q 400 589 401 586 q 380 606 393 602 m 511 595 l 511 595 l 511 607 l 481 607 l 449 607 l 449 558 l 449 511 l 481 511 l 511 511 l 511 524 l 511 536 l 493 536 l 476 536 l 476 542 l 476 546 l 492 546 l 507 546 l 507 558 l 507 571 l 492 571 l 476 571 l 476 576 l 476 582 l 493 582 l 511 582 l 511 595 m 922 572 l 922 572 l 922 607 l 909 607 l 896 607 l 896 558 l 896 511 l 924 511 l 951 511 l 951 524 l 951 536 l 936 536 l 922 536 l 922 572 m 1002 595 l 1002 595 l 994 607 l 979 607 l 962 607 l 965 604 q 971 594 966 602 q 982 576 975 586 l 996 551 l 996 530 l 996 511 l 1008 511 l 1022 511 l 1022 530 l 1022 551 l 1036 576 q 1048 595 1043 587 q 1053 604 1053 603 l 1054 607 l 1039 607 l 1023 607 l 1017 595 q 1012 585 1014 589 q 1008 582 1010 582 q 1006 585 1008 582 q 1002 595 1004 589 m 673 749 l 673 749 q 699 743 689 754 q 703 717 708 732 q 681 704 694 703 q 661 721 667 705 q 663 737 660 729 q 673 749 667 745 m 205 742 l 205 742 l 205 749 l 212 749 q 220 748 218 749 q 221 743 221 747 q 219 738 221 739 q 212 734 216 736 l 205 734 l 205 742 m 427 742 l 427 742 l 427 749 l 435 749 q 443 748 441 749 q 444 742 444 747 q 433 734 444 734 l 427 734 l 427 742 m 937 729 l 937 729 q 939 736 937 733 q 940 737 940 739 q 942 732 940 737 q 943 726 943 729 l 947 714 l 940 714 l 933 714 l 933 718 q 934 721 933 718 q 936 728 935 724 q 937 729 936 729 m 667 581 l 667 581 q 685 580 676 585 q 697 566 694 575 q 693 545 700 553 q 675 536 686 536 q 657 547 664 536 q 655 567 652 557 q 667 581 659 576 m 195 170 l 195 170 q 212 171 203 172 q 227 165 221 170 q 231 161 229 164 q 235 155 233 158 q 236 151 236 153 q 235 151 236 151 q 232 150 235 150 q 229 151 231 150 q 227 154 228 151 q 209 163 221 163 q 191 155 197 164 q 183 135 182 149 q 193 115 184 121 q 214 113 201 110 q 225 120 221 115 q 229 129 229 125 l 229 132 l 220 132 l 210 132 l 210 136 l 210 140 l 224 140 l 236 140 l 236 122 l 236 106 l 233 106 q 229 107 229 106 q 232 114 229 109 q 233 117 233 117 q 232 118 233 118 q 231 117 232 118 q 228 114 229 115 q 207 104 221 104 q 179 121 189 104 q 177 125 178 123 q 176 129 176 126 q 176 138 176 132 q 176 146 176 143 q 177 150 176 149 q 179 154 178 151 q 195 170 184 165 m 452 168 l 452 168 q 461 171 454 171 l 468 171 l 468 167 l 468 163 l 463 163 q 457 162 458 163 q 454 160 456 161 q 454 156 454 158 q 453 153 453 154 l 453 150 l 458 150 l 464 150 l 464 146 l 464 142 l 457 142 q 451 142 453 142 q 447 140 449 142 q 448 140 447 140 q 450 138 449 139 q 452 135 452 136 q 453 131 453 134 q 453 119 453 127 l 453 106 l 449 106 l 444 106 l 444 123 l 444 142 l 441 142 q 439 142 440 142 q 439 146 439 143 q 439 149 439 149 q 441 150 440 150 q 444 151 444 150 q 444 154 444 151 q 452 168 444 163 m 566 138 l 566 138 l 566 171 l 570 171 l 574 171 l 574 138 l 574 106 l 570 106 l 566 106 l 566 138 m 604 138 l 604 138 l 604 171 l 608 171 l 612 171 l 612 138 l 612 106 l 608 106 l 604 106 l 604 138 m 704 168 l 704 168 q 713 171 707 171 l 720 171 l 720 167 l 720 163 l 714 163 q 709 162 711 163 q 707 160 707 161 q 705 156 705 158 q 704 153 704 154 l 704 150 l 710 150 l 717 150 l 717 146 l 717 142 l 708 142 q 702 142 704 142 q 700 140 700 142 q 699 140 699 140 q 701 138 700 139 q 703 135 703 136 q 704 131 704 134 q 704 119 704 127 l 704 106 l 700 106 l 696 106 l 696 123 l 696 142 l 694 142 q 692 142 692 142 q 692 146 692 143 q 692 149 692 149 q 694 150 692 150 q 696 151 696 150 q 696 154 696 151 q 704 168 696 163 m 342 155 l 342 155 l 342 161 l 346 161 l 350 161 l 350 155 l 350 150 l 355 150 l 359 150 l 359 146 l 359 142 l 353 142 q 347 138 340 142 q 349 136 349 138 q 349 133 349 135 q 350 125 350 131 l 350 114 l 355 113 l 361 113 l 361 109 l 361 106 l 354 106 q 349 106 350 106 q 345 109 347 106 l 342 111 l 342 126 l 342 142 l 339 142 q 336 142 336 142 q 335 146 335 143 q 336 149 335 149 q 339 150 336 150 q 341 150 340 150 q 342 151 342 150 q 342 155 342 153 m 884 155 l 884 155 l 884 161 l 888 161 l 890 161 l 890 155 l 890 150 l 896 150 l 901 150 l 901 146 l 901 142 l 895 142 q 888 142 889 142 q 886 140 886 142 q 887 140 886 140 q 889 138 888 139 q 890 137 889 138 q 890 134 890 136 q 890 127 890 132 q 892 115 890 118 q 897 113 893 113 q 901 113 900 113 q 903 112 903 113 q 903 109 903 111 l 903 106 l 897 106 q 891 106 893 106 q 888 109 889 106 l 884 111 l 884 126 l 884 142 l 880 142 q 878 142 879 142 q 878 146 878 143 q 878 149 878 149 q 880 150 879 150 q 883 150 882 150 q 884 151 884 150 q 884 155 884 153 m 1050 155 l 1050 155 l 1050 161 l 1054 161 l 1059 161 l 1059 155 l 1059 150 l 1063 150 l 1068 150 l 1068 146 l 1068 142 l 1061 142 q 1055 142 1057 142 q 1053 140 1053 142 q 1053 140 1053 140 q 1055 138 1054 139 q 1057 137 1057 138 q 1058 134 1057 136 q 1059 127 1059 132 q 1059 115 1059 118 q 1065 113 1060 113 q 1068 113 1067 113 q 1069 112 1069 113 q 1069 109 1069 111 l 1069 106 l 1064 106 q 1058 106 1060 106 q 1054 109 1055 106 l 1050 111 l 1050 126 l 1050 142 l 1047 142 q 1045 142 1046 142 q 1044 146 1044 143 q 1045 149 1044 149 q 1047 150 1046 150 q 1049 150 1048 150 q 1050 151 1050 150 q 1050 155 1050 153 m 282 149 l 282 149 q 301 146 293 153 q 311 129 310 140 l 311 125 l 293 125 q 280 124 283 125 q 276 122 277 123 q 278 118 275 121 q 287 112 281 113 q 298 115 293 111 q 303 119 301 118 q 308 119 306 119 q 310 118 310 119 q 307 114 310 117 q 301 109 304 111 q 297 106 298 106 q 286 105 292 104 q 277 107 281 106 q 268 129 267 115 q 282 149 269 143 m 297 140 l 297 140 q 287 142 292 143 q 278 136 282 142 q 277 134 278 135 q 277 132 277 132 q 280 132 277 132 q 288 131 283 131 q 297 132 293 131 q 301 132 301 132 q 302 134 302 132 q 300 138 301 136 q 297 140 298 139 m 754 149 l 754 149 q 762 150 758 150 q 771 149 766 150 q 783 126 783 143 q 780 113 783 119 q 770 106 777 107 q 758 104 764 103 q 747 110 751 106 q 741 121 743 114 q 741 135 739 127 q 746 143 742 139 q 754 149 750 147 m 770 140 l 770 140 q 751 138 758 146 q 750 118 745 131 q 759 112 753 113 q 771 114 765 111 q 775 128 775 119 q 770 140 775 136 m 828 149 l 828 149 q 840 149 835 151 q 848 142 846 147 q 850 136 850 140 q 850 122 850 132 l 850 106 l 847 106 l 843 106 l 843 121 q 843 132 843 127 q 842 138 843 136 q 840 140 842 139 q 836 142 839 142 q 828 140 832 143 q 823 135 823 139 q 821 119 822 131 l 821 106 l 817 106 l 814 106 l 814 127 l 814 150 l 818 150 q 821 149 821 150 q 819 144 821 147 q 817 142 818 143 q 817 139 817 140 l 817 136 l 818 139 q 823 145 821 143 q 828 149 825 147 m 991 149 l 991 149 q 997 150 994 150 q 1002 150 999 150 q 1015 144 1011 150 q 1018 126 1018 139 q 1018 119 1018 121 q 1018 115 1018 117 q 1019 114 1018 114 q 1021 111 1021 113 q 1021 107 1022 109 q 1019 106 1021 106 q 1013 113 1015 106 l 1010 117 l 1010 114 q 1006 106 1008 109 q 996 104 1003 104 q 985 109 989 104 q 981 118 981 113 q 989 127 982 123 q 994 130 990 129 q 1002 132 997 131 q 1007 133 1004 132 q 1010 134 1010 134 q 1010 135 1010 134 q 1008 138 1010 136 q 1004 142 1007 140 q 996 142 1000 143 q 990 138 991 142 q 988 136 989 136 q 985 136 987 136 q 982 137 982 136 q 983 142 982 138 q 987 146 985 144 q 991 149 989 147 m 1010 123 l 1010 123 q 1008 126 1010 126 q 1003 125 1007 126 q 1002 125 1003 125 q 994 122 997 123 q 991 120 991 121 q 989 119 990 119 q 989 117 989 118 q 997 111 989 111 q 1006 115 1002 111 q 1010 123 1010 119 m 493 132 l 493 132 l 493 150 l 497 150 l 501 150 l 501 134 q 501 121 501 125 q 502 117 501 118 q 503 114 503 115 q 513 113 507 111 q 521 118 518 114 q 522 124 522 121 q 522 136 522 127 l 524 150 l 526 150 l 530 150 l 530 132 q 530 123 530 126 q 530 117 530 119 q 531 115 530 115 q 533 114 532 114 q 534 111 534 113 q 534 107 534 109 q 533 106 534 106 q 528 108 530 106 q 524 114 525 110 q 522 115 522 115 q 521 111 522 114 q 517 106 519 107 q 510 104 515 104 q 494 111 500 104 q 494 118 494 114 q 493 132 493 122 m 196 49 l 196 49 q 199 50 197 49 q 204 50 201 50 l 210 49 l 210 45 l 210 40 l 204 40 q 198 39 200 40 q 195 37 196 39 q 193 33 193 35 q 192 29 192 32 l 192 25 l 197 25 l 204 25 l 204 20 l 204 16 l 195 16 q 188 16 191 16 q 184 14 184 16 q 185 13 184 14 q 187 11 186 12 l 192 8 l 192 -9 l 192 -28 l 186 -28 l 182 -28 l 182 -7 l 182 16 l 178 16 q 176 16 176 16 q 175 17 175 16 q 175 20 175 18 q 176 24 175 22 q 178 25 176 25 q 180 25 179 25 q 181 26 180 25 q 182 31 182 28 q 196 49 183 46 m 575 36 l 575 36 l 575 50 l 579 50 l 585 50 l 585 17 q 585 1 585 7 q 585 -9 585 -5 q 585 -15 585 -14 q 586 -17 586 -17 q 588 -18 587 -18 q 589 -18 589 -18 q 590 -20 590 -18 q 590 -24 590 -21 q 589 -26 590 -25 q 589 -28 589 -28 q 584 -26 587 -28 q 579 -22 581 -25 l 576 -20 l 572 -24 q 549 -28 561 -32 q 536 -12 539 -22 q 537 9 533 -1 q 550 24 541 20 q 553 26 551 25 q 557 26 555 26 q 567 24 561 26 q 575 17 572 21 q 578 18 583 8 q 576 22 576 20 q 576 27 576 24 q 575 36 575 31 m 568 12 l 568 12 q 561 16 566 16 q 551 14 555 17 q 545 -4 545 8 q 547 -9 546 -7 q 547 -14 547 -12 q 557 -20 551 -18 q 568 -17 562 -21 q 575 -2 575 -11 q 568 12 575 7 m 627 45 l 627 45 l 627 50 l 631 50 l 635 49 l 636 45 l 636 39 l 631 39 l 627 39 l 627 45 m 397 32 l 397 32 l 397 39 l 401 39 l 407 39 l 407 32 l 407 25 l 412 25 l 419 25 l 419 20 l 419 16 l 410 16 q 404 15 406 16 q 401 14 401 14 q 402 12 401 12 q 403 11 403 11 q 404 11 403 11 q 406 9 404 11 q 406 6 406 9 q 407 -4 407 3 q 408 -17 407 -16 q 410 -18 408 -18 q 415 -18 412 -18 l 419 -18 l 419 -24 l 419 -28 l 414 -28 q 404 -26 407 -28 q 400 -22 401 -25 q 398 -15 399 -20 q 397 -1 397 -9 l 397 16 l 395 16 q 393 16 393 16 q 391 17 392 16 q 390 20 390 18 q 391 24 390 22 q 393 25 392 25 q 395 25 393 25 l 397 25 l 397 32 m 1051 32 l 1051 32 l 1051 39 l 1055 39 l 1061 39 l 1061 32 l 1061 25 l 1067 25 l 1072 25 l 1072 20 l 1072 16 l 1064 16 q 1056 15 1057 16 q 1059 11 1054 14 q 1060 8 1060 9 q 1061 4 1060 7 q 1061 -4 1061 1 l 1061 -18 l 1068 -18 l 1074 -18 l 1074 -24 l 1074 -29 l 1067 -28 q 1059 -27 1061 -28 q 1055 -24 1057 -26 l 1051 -21 l 1051 -3 l 1051 16 l 1047 16 q 1045 16 1046 16 q 1044 17 1044 16 q 1044 20 1044 18 q 1044 24 1044 22 q 1045 25 1044 25 q 1047 25 1046 25 l 1051 25 l 1051 32 m 249 25 l 249 25 q 260 25 254 26 q 271 20 267 24 l 273 17 l 273 21 q 274 24 273 24 q 278 25 275 25 l 282 25 l 282 -7 q 282 -26 282 -20 q 282 -35 282 -32 q 281 -40 282 -39 q 279 -43 281 -41 q 277 -46 279 -45 q 273 -49 275 -47 q 270 -51 272 -50 q 264 -52 268 -52 q 254 -52 261 -52 l 239 -52 l 239 -47 l 239 -43 l 252 -43 q 261 -42 257 -43 q 267 -41 265 -41 q 273 -29 273 -37 q 274 -26 273 -28 q 277 -22 275 -24 q 273 -20 281 -12 q 261 -28 268 -25 q 248 -28 254 -31 q 239 -22 243 -26 q 235 -12 236 -17 q 233 -2 233 -8 q 235 8 233 4 q 239 18 236 14 q 249 25 243 22 m 265 14 l 265 14 q 259 16 264 16 q 252 16 254 17 q 243 3 244 12 q 245 -14 241 -5 q 258 -20 250 -21 q 271 -11 265 -20 q 272 1 273 -5 q 265 14 271 8 m 330 25 l 330 25 q 336 25 334 25 q 342 25 339 25 q 358 16 354 25 q 360 9 361 11 q 355 8 359 8 q 350 9 350 8 q 347 15 350 12 q 340 17 343 17 q 331 13 334 17 q 332 7 328 8 q 337 5 334 5 q 345 3 340 4 q 357 -3 354 0 q 361 -12 361 -7 q 361 -18 361 -16 q 358 -22 361 -20 q 337 -29 350 -31 q 319 -18 325 -28 q 318 -11 318 -12 q 322 -9 318 -9 q 327 -10 326 -9 q 328 -12 328 -11 q 328 -14 328 -12 q 332 -17 329 -16 q 334 -19 334 -18 q 337 -20 335 -20 q 342 -20 339 -20 q 348 -19 346 -20 q 350 -17 350 -18 q 352 -15 351 -16 q 353 -12 353 -14 q 338 -5 353 -9 q 330 -3 334 -4 q 325 0 326 -1 q 321 5 322 1 q 319 12 319 8 q 324 20 321 17 q 330 25 328 24 m 689 25 l 689 25 q 705 24 697 26 q 718 14 713 21 q 720 7 720 9 q 721 0 721 4 q 713 -24 722 -16 q 689 -28 701 -32 q 672 -9 676 -24 q 671 1 671 -4 q 673 11 671 7 q 681 20 676 16 q 689 25 685 24 m 703 16 l 703 16 q 692 15 697 17 q 684 9 688 14 q 681 1 681 5 q 681 -8 681 -4 q 694 -20 685 -18 q 710 -12 704 -21 q 712 3 714 -5 q 703 16 710 11 m 768 24 l 768 24 q 786 24 778 28 q 793 19 790 22 q 796 14 796 16 q 797 12 796 12 q 798 9 798 11 q 797 9 798 9 q 793 8 796 8 q 789 9 790 8 q 787 11 787 9 q 781 15 786 14 q 770 15 775 17 q 765 9 765 14 q 767 7 765 8 q 772 5 768 7 q 783 1 775 4 q 793 -2 790 0 q 798 -8 796 -4 q 794 -24 800 -18 q 777 -29 787 -29 q 762 -24 768 -29 q 755 -12 755 -20 q 756 -10 755 -11 q 760 -9 757 -9 q 764 -10 762 -9 q 765 -12 765 -11 q 778 -20 766 -20 q 789 -14 786 -20 q 787 -9 789 -11 q 779 -7 785 -8 q 765 -2 770 -4 q 758 3 761 0 q 756 6 757 4 q 757 11 755 8 q 768 24 757 21 m 901 22 l 901 22 q 906 25 904 24 q 909 26 908 26 q 921 22 916 26 q 928 12 926 18 q 928 5 928 11 q 929 -9 929 -1 l 929 -28 l 924 -28 l 920 -28 l 920 -12 q 919 6 920 0 q 916 14 918 12 q 905 15 911 17 q 897 8 900 14 q 895 5 896 7 q 895 -1 895 3 q 895 -11 895 -4 l 893 -28 l 889 -28 l 885 -28 l 885 -1 l 885 25 l 889 25 q 893 24 892 25 q 895 22 895 24 q 893 21 895 22 q 892 18 892 20 q 889 12 889 16 q 889 10 889 9 q 892 16 889 11 q 901 22 896 20 m 983 25 l 983 25 q 996 25 989 26 q 1007 18 1003 24 q 1013 11 1011 16 q 1015 1 1014 7 l 1015 -5 l 994 -5 q 983 -5 987 -5 q 977 -5 979 -5 q 975 -6 975 -5 q 974 -7 974 -7 q 977 -13 974 -9 q 982 -18 979 -16 q 992 -20 986 -21 q 1003 -14 999 -18 q 1004 -12 1003 -12 q 1008 -11 1006 -11 q 1013 -12 1013 -11 q 1011 -18 1014 -14 q 997 -28 1006 -25 q 981 -28 989 -31 q 964 -1 964 -21 q 983 25 965 20 m 997 14 l 997 14 q 990 16 994 16 q 983 16 986 17 q 978 11 981 14 q 975 5 975 8 l 974 3 l 989 3 q 999 3 996 3 q 1004 3 1003 3 q 1004 5 1004 4 q 1002 9 1004 7 q 997 14 1000 12 m 454 5 l 454 5 l 454 25 l 458 25 l 463 25 l 463 5 q 463 -5 463 -1 q 463 -12 463 -9 q 464 -15 464 -14 q 465 -17 464 -16 q 476 -20 469 -21 q 485 -12 482 -18 q 487 -9 486 -11 q 488 -3 488 -7 q 488 8 488 1 l 489 25 l 493 25 l 497 25 l 497 5 l 497 -16 l 500 -17 q 502 -20 501 -18 q 503 -24 503 -21 q 501 -28 503 -28 q 495 -26 498 -28 q 490 -20 492 -24 q 488 -18 489 -17 q 486 -24 486 -18 q 480 -28 485 -26 q 471 -29 476 -29 q 461 -26 465 -29 q 458 -24 460 -25 q 456 -20 457 -22 q 455 -15 456 -18 q 454 -8 454 -12 q 454 5 454 -4 m 627 -1 l 627 -1 l 627 25 l 631 25 l 635 24 l 636 -1 l 636 -28 l 631 -28 l 627 -28 l 627 -1 m 836 -17 l 836 -17 q 838 -16 836 -16 q 842 -16 840 -16 l 847 -16 l 847 -22 l 847 -28 l 842 -28 l 835 -28 l 835 -22 q 836 -18 835 -20 q 836 -17 836 -17 z "},"8":{"ha":1250,"x_min":83,"x_max":1166,"o":"m 328 1032 l 328 1032 q 420 1033 335 1032 q 631 1034 505 1034 l 926 1034 l 942 1031 q 1063 978 1008 1018 q 1085 957 1071 970 q 1107 932 1099 943 q 1160 827 1146 885 q 1161 822 1161 823 q 1164 807 1162 814 q 1166 787 1165 800 q 1166 748 1166 774 q 1166 676 1166 722 q 1166 652 1166 665 q 1166 563 1166 596 q 1166 514 1166 530 q 1165 489 1166 497 q 1162 472 1164 481 q 1084 332 1146 390 q 940 258 1026 273 l 924 256 l 632 256 q 486 254 543 254 q 397 255 429 254 q 347 256 364 256 q 323 256 330 256 q 307 258 315 257 q 307 260 307 258 q 147 351 211 277 q 86 482 100 407 l 83 498 l 83 643 l 83 787 l 86 803 q 163 954 100 892 q 328 1032 231 1021 m 699 774 l 699 774 q 664 772 681 779 q 637 747 647 765 q 635 742 636 745 q 635 736 635 739 q 635 726 635 733 q 635 718 635 721 q 635 712 635 714 q 637 707 636 710 q 660 684 646 692 q 690 679 673 676 q 725 703 714 684 q 729 745 736 722 q 716 762 725 754 q 699 774 708 770 m 854 728 l 854 728 l 854 777 l 842 777 l 829 777 l 829 754 l 828 733 l 815 754 l 802 775 l 789 775 l 775 775 l 775 726 l 775 679 l 789 679 l 803 679 l 803 700 l 803 722 l 817 701 l 831 679 l 843 679 l 854 679 l 854 728 m 228 774 l 228 774 q 222 774 225 774 q 215 775 220 775 q 200 775 210 775 l 179 775 l 179 726 l 179 679 l 192 679 l 205 679 l 205 694 l 205 710 l 215 711 q 224 712 221 711 q 231 714 228 713 q 249 745 250 725 q 228 774 245 765 m 353 762 l 353 762 l 353 775 l 322 775 l 290 775 l 290 726 l 290 679 l 322 679 l 353 679 l 353 692 l 353 704 l 335 704 l 318 704 l 318 708 l 318 714 l 334 714 l 349 714 l 349 726 l 349 739 l 334 739 l 318 739 l 318 745 l 318 749 l 335 749 l 353 749 l 353 762 m 454 771 l 454 771 l 449 775 l 424 775 l 400 775 l 400 728 l 400 679 l 412 679 l 427 679 l 427 694 q 427 706 427 703 q 428 710 427 710 q 432 706 429 710 q 439 694 435 701 l 449 679 l 464 679 q 474 679 469 679 q 479 679 479 679 q 476 685 479 679 q 468 697 472 690 l 457 714 l 461 718 q 465 723 463 721 q 468 728 467 725 q 471 733 471 730 q 471 742 471 736 q 471 751 471 747 q 469 755 471 754 q 454 771 464 765 m 567 774 l 567 774 q 552 775 561 775 q 538 772 543 775 q 515 749 517 765 q 516 738 515 742 q 521 729 517 733 q 549 717 528 721 q 560 714 557 715 q 566 710 564 713 q 566 707 566 708 q 564 705 566 707 q 553 703 559 703 q 543 708 546 704 l 541 711 l 533 710 q 532 710 533 710 q 526 707 529 708 q 521 707 522 707 q 515 704 515 705 q 517 697 514 703 q 541 679 524 684 q 576 684 558 675 q 591 711 595 692 q 558 739 591 733 q 545 749 538 743 q 553 751 547 751 q 561 747 558 751 l 564 745 l 578 747 q 585 749 582 749 q 588 749 587 749 q 589 751 589 750 q 589 753 590 751 q 581 765 587 760 q 567 774 575 771 m 957 768 l 957 768 l 954 775 l 939 775 l 925 775 l 909 728 q 899 694 904 708 q 895 679 895 681 q 899 679 895 679 q 908 679 903 679 l 922 679 l 924 685 l 925 690 l 940 689 l 954 689 l 956 684 l 957 679 l 971 679 q 982 679 979 679 q 985 681 985 679 q 982 688 985 681 q 971 722 978 700 q 962 748 966 736 q 957 766 958 761 q 957 768 957 768 m 1050 741 l 1050 741 l 1050 775 l 1038 775 l 1023 775 l 1023 726 l 1023 679 l 1051 679 l 1079 679 l 1079 692 l 1079 704 l 1065 704 l 1050 704 l 1050 741 m 685 607 l 685 607 q 643 596 661 611 q 627 552 624 576 q 654 515 631 528 q 661 512 659 513 q 666 511 663 511 q 676 511 669 511 q 686 511 682 511 q 691 512 689 511 q 697 515 693 513 q 711 525 704 518 q 721 538 718 532 q 725 568 728 553 q 710 595 721 583 q 685 607 699 604 m 848 559 l 848 559 l 848 608 l 835 608 q 822 607 821 608 q 821 600 821 606 q 821 586 821 595 l 821 567 l 808 586 l 794 607 l 782 607 l 770 607 l 770 558 l 770 511 l 783 511 l 796 511 l 796 532 l 798 554 l 811 532 l 823 511 l 836 511 l 848 511 l 848 559 m 231 578 l 231 578 l 231 607 l 216 607 l 204 607 l 204 572 l 204 538 l 208 532 q 217 520 211 525 q 229 513 222 515 q 243 511 235 511 q 258 513 252 511 q 272 522 265 515 q 279 534 278 528 q 281 541 281 538 q 282 551 282 545 q 282 574 282 558 l 282 607 l 269 607 l 256 607 l 256 578 q 256 553 256 561 q 254 543 256 546 q 250 538 253 541 q 242 536 245 536 q 235 539 239 536 q 232 544 233 541 q 231 554 231 547 q 231 578 231 561 m 380 606 l 380 606 q 366 607 375 607 q 350 606 357 607 q 340 600 345 604 q 332 591 335 596 q 328 587 329 590 q 328 581 328 585 q 329 569 328 572 q 335 561 330 566 q 345 554 339 557 q 363 549 351 551 q 378 542 378 546 q 373 536 378 538 q 363 535 368 534 q 355 541 358 536 l 353 543 l 340 541 q 331 538 335 539 q 326 538 328 538 q 327 534 326 536 q 330 528 328 532 q 334 522 332 525 q 363 511 343 511 q 400 525 389 510 q 404 530 403 528 q 404 536 404 533 q 375 571 407 564 q 357 576 361 574 q 357 582 354 578 q 360 583 358 583 q 366 583 363 583 q 371 583 370 583 q 374 579 372 582 l 376 576 l 389 579 q 398 581 395 581 q 401 582 401 582 q 402 585 403 583 q 400 589 401 586 q 380 606 393 602 m 511 595 l 511 595 l 511 607 l 481 607 l 449 607 l 449 558 l 449 511 l 481 511 l 511 511 l 511 524 l 511 536 l 493 536 l 476 536 l 476 542 l 476 546 l 492 546 l 507 546 l 507 558 l 507 571 l 492 571 l 476 571 l 476 576 l 476 582 l 493 582 l 511 582 l 511 595 m 922 572 l 922 572 l 922 607 l 909 607 l 896 607 l 896 558 l 896 511 l 924 511 l 951 511 l 951 524 l 951 536 l 936 536 l 922 536 l 922 572 m 1002 595 l 1002 595 l 994 607 l 979 607 l 962 607 l 965 604 q 971 594 966 602 q 982 576 975 586 l 996 551 l 996 530 l 996 511 l 1008 511 l 1022 511 l 1022 530 l 1022 551 l 1036 576 q 1048 595 1043 587 q 1053 604 1053 603 l 1054 607 l 1039 607 l 1023 607 l 1017 595 q 1012 585 1014 589 q 1008 582 1010 582 q 1006 585 1008 582 q 1002 595 1004 589 m 673 749 l 673 749 q 699 743 689 754 q 703 717 708 732 q 681 704 694 703 q 661 721 667 705 q 663 737 660 729 q 673 749 667 745 m 205 742 l 205 742 l 205 749 l 212 749 q 220 748 218 749 q 221 743 221 747 q 219 738 221 739 q 212 734 216 736 l 205 734 l 205 742 m 427 742 l 427 742 l 427 749 l 435 749 q 443 748 441 749 q 444 742 444 747 q 433 734 444 734 l 427 734 l 427 742 m 937 729 l 937 729 q 939 736 937 733 q 940 737 940 739 q 942 732 940 737 q 943 726 943 729 l 947 714 l 940 714 l 933 714 l 933 718 q 934 721 933 718 q 936 728 935 724 q 937 729 936 729 m 667 581 l 667 581 q 685 580 676 585 q 697 566 694 575 q 693 545 700 553 q 675 536 686 536 q 657 547 664 536 q 655 567 652 557 q 667 581 659 576 m 195 170 l 195 170 q 212 171 203 172 q 227 165 221 170 q 231 161 229 164 q 235 155 233 158 q 236 151 236 153 q 235 151 236 151 q 232 150 235 150 q 229 151 231 150 q 227 154 228 151 q 209 163 221 163 q 191 155 197 164 q 183 135 182 149 q 193 115 184 121 q 214 113 201 110 q 225 120 221 115 q 229 129 229 125 l 229 132 l 220 132 l 210 132 l 210 136 l 210 140 l 224 140 l 236 140 l 236 122 l 236 106 l 233 106 q 229 107 229 106 q 232 114 229 109 q 233 117 233 117 q 232 118 233 118 q 231 117 232 118 q 228 114 229 115 q 207 104 221 104 q 179 121 189 104 q 177 125 178 123 q 176 129 176 126 q 176 138 176 132 q 176 146 176 143 q 177 150 176 149 q 179 154 178 151 q 195 170 184 165 m 452 168 l 452 168 q 461 171 454 171 l 468 171 l 468 167 l 468 163 l 463 163 q 457 162 458 163 q 454 160 456 161 q 454 156 454 158 q 453 153 453 154 l 453 150 l 458 150 l 464 150 l 464 146 l 464 142 l 457 142 q 451 142 453 142 q 447 140 449 142 q 448 140 447 140 q 450 138 449 139 q 452 135 452 136 q 453 131 453 134 q 453 119 453 127 l 453 106 l 449 106 l 444 106 l 444 123 l 444 142 l 441 142 q 439 142 440 142 q 439 146 439 143 q 439 149 439 149 q 441 150 440 150 q 444 151 444 150 q 444 154 444 151 q 452 168 444 163 m 566 138 l 566 138 l 566 171 l 570 171 l 574 171 l 574 138 l 574 106 l 570 106 l 566 106 l 566 138 m 604 138 l 604 138 l 604 171 l 608 171 l 612 171 l 612 138 l 612 106 l 608 106 l 604 106 l 604 138 m 704 168 l 704 168 q 713 171 707 171 l 720 171 l 720 167 l 720 163 l 714 163 q 709 162 711 163 q 707 160 707 161 q 705 156 705 158 q 704 153 704 154 l 704 150 l 710 150 l 717 150 l 717 146 l 717 142 l 708 142 q 702 142 704 142 q 700 140 700 142 q 699 140 699 140 q 701 138 700 139 q 703 135 703 136 q 704 131 704 134 q 704 119 704 127 l 704 106 l 700 106 l 696 106 l 696 123 l 696 142 l 694 142 q 692 142 692 142 q 692 146 692 143 q 692 149 692 149 q 694 150 692 150 q 696 151 696 150 q 696 154 696 151 q 704 168 696 163 m 342 155 l 342 155 l 342 161 l 346 161 l 350 161 l 350 155 l 350 150 l 355 150 l 359 150 l 359 146 l 359 142 l 353 142 q 347 138 340 142 q 349 136 349 138 q 349 133 349 135 q 350 125 350 131 l 350 114 l 355 113 l 361 113 l 361 109 l 361 106 l 354 106 q 349 106 350 106 q 345 109 347 106 l 342 111 l 342 126 l 342 142 l 339 142 q 336 142 336 142 q 335 146 335 143 q 336 149 335 149 q 339 150 336 150 q 341 150 340 150 q 342 151 342 150 q 342 155 342 153 m 884 155 l 884 155 l 884 161 l 888 161 l 890 161 l 890 155 l 890 150 l 896 150 l 901 150 l 901 146 l 901 142 l 895 142 q 888 142 889 142 q 886 140 886 142 q 887 140 886 140 q 889 138 888 139 q 890 137 889 138 q 890 134 890 136 q 890 127 890 132 q 892 115 890 118 q 897 113 893 113 q 901 113 900 113 q 903 112 903 113 q 903 109 903 111 l 903 106 l 897 106 q 891 106 893 106 q 888 109 889 106 l 884 111 l 884 126 l 884 142 l 880 142 q 878 142 879 142 q 878 146 878 143 q 878 149 878 149 q 880 150 879 150 q 883 150 882 150 q 884 151 884 150 q 884 155 884 153 m 1050 155 l 1050 155 l 1050 161 l 1054 161 l 1059 161 l 1059 155 l 1059 150 l 1063 150 l 1068 150 l 1068 146 l 1068 142 l 1061 142 q 1055 142 1057 142 q 1053 140 1053 142 q 1053 140 1053 140 q 1055 138 1054 139 q 1057 137 1057 138 q 1058 134 1057 136 q 1059 127 1059 132 q 1059 115 1059 118 q 1065 113 1060 113 q 1068 113 1067 113 q 1069 112 1069 113 q 1069 109 1069 111 l 1069 106 l 1064 106 q 1058 106 1060 106 q 1054 109 1055 106 l 1050 111 l 1050 126 l 1050 142 l 1047 142 q 1045 142 1046 142 q 1044 146 1044 143 q 1045 149 1044 149 q 1047 150 1046 150 q 1049 150 1048 150 q 1050 151 1050 150 q 1050 155 1050 153 m 282 149 l 282 149 q 301 146 293 153 q 311 129 310 140 l 311 125 l 293 125 q 280 124 283 125 q 276 122 277 123 q 278 118 275 121 q 287 112 281 113 q 298 115 293 111 q 303 119 301 118 q 308 119 306 119 q 310 118 310 119 q 307 114 310 117 q 301 109 304 111 q 297 106 298 106 q 286 105 292 104 q 277 107 281 106 q 268 129 267 115 q 282 149 269 143 m 297 140 l 297 140 q 287 142 292 143 q 278 136 282 142 q 277 134 278 135 q 277 132 277 132 q 280 132 277 132 q 288 131 283 131 q 297 132 293 131 q 301 132 301 132 q 302 134 302 132 q 300 138 301 136 q 297 140 298 139 m 754 149 l 754 149 q 762 150 758 150 q 771 149 766 150 q 783 126 783 143 q 780 113 783 119 q 770 106 777 107 q 758 104 764 103 q 747 110 751 106 q 741 121 743 114 q 741 135 739 127 q 746 143 742 139 q 754 149 750 147 m 770 140 l 770 140 q 751 138 758 146 q 750 118 745 131 q 759 112 753 113 q 771 114 765 111 q 775 128 775 119 q 770 140 775 136 m 828 149 l 828 149 q 840 149 835 151 q 848 142 846 147 q 850 136 850 140 q 850 122 850 132 l 850 106 l 847 106 l 843 106 l 843 121 q 843 132 843 127 q 842 138 843 136 q 840 140 842 139 q 836 142 839 142 q 828 140 832 143 q 823 135 823 139 q 821 119 822 131 l 821 106 l 817 106 l 814 106 l 814 127 l 814 150 l 818 150 q 821 149 821 150 q 819 144 821 147 q 817 142 818 143 q 817 139 817 140 l 817 136 l 818 139 q 823 145 821 143 q 828 149 825 147 m 991 149 l 991 149 q 997 150 994 150 q 1002 150 999 150 q 1015 144 1011 150 q 1018 126 1018 139 q 1018 119 1018 121 q 1018 115 1018 117 q 1019 114 1018 114 q 1021 111 1021 113 q 1021 107 1022 109 q 1019 106 1021 106 q 1013 113 1015 106 l 1010 117 l 1010 114 q 1006 106 1008 109 q 996 104 1003 104 q 985 109 989 104 q 981 118 981 113 q 989 127 982 123 q 994 130 990 129 q 1002 132 997 131 q 1007 133 1004 132 q 1010 134 1010 134 q 1010 135 1010 134 q 1008 138 1010 136 q 1004 142 1007 140 q 996 142 1000 143 q 990 138 991 142 q 988 136 989 136 q 985 136 987 136 q 982 137 982 136 q 983 142 982 138 q 987 146 985 144 q 991 149 989 147 m 1010 123 l 1010 123 q 1008 126 1010 126 q 1003 125 1007 126 q 1002 125 1003 125 q 994 122 997 123 q 991 120 991 121 q 989 119 990 119 q 989 117 989 118 q 997 111 989 111 q 1006 115 1002 111 q 1010 123 1010 119 m 493 132 l 493 132 l 493 150 l 497 150 l 501 150 l 501 134 q 501 121 501 125 q 502 117 501 118 q 503 114 503 115 q 513 113 507 111 q 521 118 518 114 q 522 124 522 121 q 522 136 522 127 l 524 150 l 526 150 l 530 150 l 530 132 q 530 123 530 126 q 530 117 530 119 q 531 115 530 115 q 533 114 532 114 q 534 111 534 113 q 534 107 534 109 q 533 106 534 106 q 528 108 530 106 q 524 114 525 110 q 522 115 522 115 q 521 111 522 114 q 517 106 519 107 q 510 104 515 104 q 494 111 500 104 q 494 118 494 114 q 493 132 493 122 m 196 49 l 196 49 q 199 50 197 49 q 204 50 201 50 l 210 49 l 210 45 l 210 40 l 204 40 q 198 39 200 40 q 195 37 196 39 q 193 33 193 35 q 192 29 192 32 l 192 25 l 197 25 l 204 25 l 204 20 l 204 16 l 195 16 q 188 16 191 16 q 184 14 184 16 q 185 13 184 14 q 187 11 186 12 l 192 8 l 192 -9 l 192 -28 l 186 -28 l 182 -28 l 182 -7 l 182 16 l 178 16 q 176 16 176 16 q 175 17 175 16 q 175 20 175 18 q 176 24 175 22 q 178 25 176 25 q 180 25 179 25 q 181 26 180 25 q 182 31 182 28 q 196 49 183 46 m 575 36 l 575 36 l 575 50 l 579 50 l 585 50 l 585 17 q 585 1 585 7 q 585 -9 585 -5 q 585 -15 585 -14 q 586 -17 586 -17 q 588 -18 587 -18 q 589 -18 589 -18 q 590 -20 590 -18 q 590 -24 590 -21 q 589 -26 590 -25 q 589 -28 589 -28 q 584 -26 587 -28 q 579 -22 581 -25 l 576 -20 l 572 -24 q 549 -28 561 -32 q 536 -12 539 -22 q 537 9 533 -1 q 550 24 541 20 q 553 26 551 25 q 557 26 555 26 q 567 24 561 26 q 575 17 572 21 q 578 18 583 8 q 576 22 576 20 q 576 27 576 24 q 575 36 575 31 m 568 12 l 568 12 q 561 16 566 16 q 551 14 555 17 q 545 -4 545 8 q 547 -9 546 -7 q 547 -14 547 -12 q 557 -20 551 -18 q 568 -17 562 -21 q 575 -2 575 -11 q 568 12 575 7 m 627 45 l 627 45 l 627 50 l 631 50 l 635 49 l 636 45 l 636 39 l 631 39 l 627 39 l 627 45 m 397 32 l 397 32 l 397 39 l 401 39 l 407 39 l 407 32 l 407 25 l 412 25 l 419 25 l 419 20 l 419 16 l 410 16 q 404 15 406 16 q 401 14 401 14 q 402 12 401 12 q 403 11 403 11 q 404 11 403 11 q 406 9 404 11 q 406 6 406 9 q 407 -4 407 3 q 408 -17 407 -16 q 410 -18 408 -18 q 415 -18 412 -18 l 419 -18 l 419 -24 l 419 -28 l 414 -28 q 404 -26 407 -28 q 400 -22 401 -25 q 398 -15 399 -20 q 397 -1 397 -9 l 397 16 l 395 16 q 393 16 393 16 q 391 17 392 16 q 390 20 390 18 q 391 24 390 22 q 393 25 392 25 q 395 25 393 25 l 397 25 l 397 32 m 1051 32 l 1051 32 l 1051 39 l 1055 39 l 1061 39 l 1061 32 l 1061 25 l 1067 25 l 1072 25 l 1072 20 l 1072 16 l 1064 16 q 1056 15 1057 16 q 1059 11 1054 14 q 1060 8 1060 9 q 1061 4 1060 7 q 1061 -4 1061 1 l 1061 -18 l 1068 -18 l 1074 -18 l 1074 -24 l 1074 -29 l 1067 -28 q 1059 -27 1061 -28 q 1055 -24 1057 -26 l 1051 -21 l 1051 -3 l 1051 16 l 1047 16 q 1045 16 1046 16 q 1044 17 1044 16 q 1044 20 1044 18 q 1044 24 1044 22 q 1045 25 1044 25 q 1047 25 1046 25 l 1051 25 l 1051 32 m 249 25 l 249 25 q 260 25 254 26 q 271 20 267 24 l 273 17 l 273 21 q 274 24 273 24 q 278 25 275 25 l 282 25 l 282 -7 q 282 -26 282 -20 q 282 -35 282 -32 q 281 -40 282 -39 q 279 -43 281 -41 q 277 -46 279 -45 q 273 -49 275 -47 q 270 -51 272 -50 q 264 -52 268 -52 q 254 -52 261 -52 l 239 -52 l 239 -47 l 239 -43 l 252 -43 q 261 -42 257 -43 q 267 -41 265 -41 q 273 -29 273 -37 q 274 -26 273 -28 q 277 -22 275 -24 q 273 -20 281 -12 q 261 -28 268 -25 q 248 -28 254 -31 q 239 -22 243 -26 q 235 -12 236 -17 q 233 -2 233 -8 q 235 8 233 4 q 239 18 236 14 q 249 25 243 22 m 265 14 l 265 14 q 259 16 264 16 q 252 16 254 17 q 243 3 244 12 q 245 -14 241 -5 q 258 -20 250 -21 q 271 -11 265 -20 q 272 1 273 -5 q 265 14 271 8 m 330 25 l 330 25 q 336 25 334 25 q 342 25 339 25 q 358 16 354 25 q 360 9 361 11 q 355 8 359 8 q 350 9 350 8 q 347 15 350 12 q 340 17 343 17 q 331 13 334 17 q 332 7 328 8 q 337 5 334 5 q 345 3 340 4 q 357 -3 354 0 q 361 -12 361 -7 q 361 -18 361 -16 q 358 -22 361 -20 q 337 -29 350 -31 q 319 -18 325 -28 q 318 -11 318 -12 q 322 -9 318 -9 q 327 -10 326 -9 q 328 -12 328 -11 q 328 -14 328 -12 q 332 -17 329 -16 q 334 -19 334 -18 q 337 -20 335 -20 q 342 -20 339 -20 q 348 -19 346 -20 q 350 -17 350 -18 q 352 -15 351 -16 q 353 -12 353 -14 q 338 -5 353 -9 q 330 -3 334 -4 q 325 0 326 -1 q 321 5 322 1 q 319 12 319 8 q 324 20 321 17 q 330 25 328 24 m 689 25 l 689 25 q 705 24 697 26 q 718 14 713 21 q 720 7 720 9 q 721 0 721 4 q 713 -24 722 -16 q 689 -28 701 -32 q 672 -9 676 -24 q 671 1 671 -4 q 673 11 671 7 q 681 20 676 16 q 689 25 685 24 m 703 16 l 703 16 q 692 15 697 17 q 684 9 688 14 q 681 1 681 5 q 681 -8 681 -4 q 694 -20 685 -18 q 710 -12 704 -21 q 712 3 714 -5 q 703 16 710 11 m 768 24 l 768 24 q 786 24 778 28 q 793 19 790 22 q 796 14 796 16 q 797 12 796 12 q 798 9 798 11 q 797 9 798 9 q 793 8 796 8 q 789 9 790 8 q 787 11 787 9 q 781 15 786 14 q 770 15 775 17 q 765 9 765 14 q 767 7 765 8 q 772 5 768 7 q 783 1 775 4 q 793 -2 790 0 q 798 -8 796 -4 q 794 -24 800 -18 q 777 -29 787 -29 q 762 -24 768 -29 q 755 -12 755 -20 q 756 -10 755 -11 q 760 -9 757 -9 q 764 -10 762 -9 q 765 -12 765 -11 q 778 -20 766 -20 q 789 -14 786 -20 q 787 -9 789 -11 q 779 -7 785 -8 q 765 -2 770 -4 q 758 3 761 0 q 756 6 757 4 q 757 11 755 8 q 768 24 757 21 m 901 22 l 901 22 q 906 25 904 24 q 909 26 908 26 q 921 22 916 26 q 928 12 926 18 q 928 5 928 11 q 929 -9 929 -1 l 929 -28 l 924 -28 l 920 -28 l 920 -12 q 919 6 920 0 q 916 14 918 12 q 905 15 911 17 q 897 8 900 14 q 895 5 896 7 q 895 -1 895 3 q 895 -11 895 -4 l 893 -28 l 889 -28 l 885 -28 l 885 -1 l 885 25 l 889 25 q 893 24 892 25 q 895 22 895 24 q 893 21 895 22 q 892 18 892 20 q 889 12 889 16 q 889 10 889 9 q 892 16 889 11 q 901 22 896 20 m 983 25 l 983 25 q 996 25 989 26 q 1007 18 1003 24 q 1013 11 1011 16 q 1015 1 1014 7 l 1015 -5 l 994 -5 q 983 -5 987 -5 q 977 -5 979 -5 q 975 -6 975 -5 q 974 -7 974 -7 q 977 -13 974 -9 q 982 -18 979 -16 q 992 -20 986 -21 q 1003 -14 999 -18 q 1004 -12 1003 -12 q 1008 -11 1006 -11 q 1013 -12 1013 -11 q 1011 -18 1014 -14 q 997 -28 1006 -25 q 981 -28 989 -31 q 964 -1 964 -21 q 983 25 965 20 m 997 14 l 997 14 q 990 16 994 16 q 983 16 986 17 q 978 11 981 14 q 975 5 975 8 l 974 3 l 989 3 q 999 3 996 3 q 1004 3 1003 3 q 1004 5 1004 4 q 1002 9 1004 7 q 997 14 1000 12 m 454 5 l 454 5 l 454 25 l 458 25 l 463 25 l 463 5 q 463 -5 463 -1 q 463 -12 463 -9 q 464 -15 464 -14 q 465 -17 464 -16 q 476 -20 469 -21 q 485 -12 482 -18 q 487 -9 486 -11 q 488 -3 488 -7 q 488 8 488 1 l 489 25 l 493 25 l 497 25 l 497 5 l 497 -16 l 500 -17 q 502 -20 501 -18 q 503 -24 503 -21 q 501 -28 503 -28 q 495 -26 498 -28 q 490 -20 492 -24 q 488 -18 489 -17 q 486 -24 486 -18 q 480 -28 485 -26 q 471 -29 476 -29 q 461 -26 465 -29 q 458 -24 460 -25 q 456 -20 457 -22 q 455 -15 456 -18 q 454 -8 454 -12 q 454 5 454 -4 m 627 -1 l 627 -1 l 627 25 l 631 25 l 635 24 l 636 -1 l 636 -28 l 631 -28 l 627 -28 l 627 -1 m 836 -17 l 836 -17 q 838 -16 836 -16 q 842 -16 840 -16 l 847 -16 l 847 -22 l 847 -28 l 842 -28 l 835 -28 l 835 -22 q 836 -18 835 -20 q 836 -17 836 -17 z "},"9":{"ha":1250,"x_min":83,"x_max":1166,"o":"m 328 1032 l 328 1032 q 420 1033 335 1032 q 631 1034 505 1034 l 926 1034 l 942 1031 q 1063 978 1008 1018 q 1085 957 1071 970 q 1107 932 1099 943 q 1160 827 1146 885 q 1161 822 1161 823 q 1164 807 1162 814 q 1166 787 1165 800 q 1166 748 1166 774 q 1166 676 1166 722 q 1166 652 1166 665 q 1166 563 1166 596 q 1166 514 1166 530 q 1165 489 1166 497 q 1162 472 1164 481 q 1084 332 1146 390 q 940 258 1026 273 l 924 256 l 632 256 q 486 254 543 254 q 397 255 429 254 q 347 256 364 256 q 323 256 330 256 q 307 258 315 257 q 307 260 307 258 q 147 351 211 277 q 86 482 100 407 l 83 498 l 83 643 l 83 787 l 86 803 q 163 954 100 892 q 328 1032 231 1021 m 699 774 l 699 774 q 664 772 681 779 q 637 747 647 765 q 635 742 636 745 q 635 736 635 739 q 635 726 635 733 q 635 718 635 721 q 635 712 635 714 q 637 707 636 710 q 660 684 646 692 q 690 679 673 676 q 725 703 714 684 q 729 745 736 722 q 716 762 725 754 q 699 774 708 770 m 854 728 l 854 728 l 854 777 l 842 777 l 829 777 l 829 754 l 828 733 l 815 754 l 802 775 l 789 775 l 775 775 l 775 726 l 775 679 l 789 679 l 803 679 l 803 700 l 803 722 l 817 701 l 831 679 l 843 679 l 854 679 l 854 728 m 228 774 l 228 774 q 222 774 225 774 q 215 775 220 775 q 200 775 210 775 l 179 775 l 179 726 l 179 679 l 192 679 l 205 679 l 205 694 l 205 710 l 215 711 q 224 712 221 711 q 231 714 228 713 q 249 745 250 725 q 228 774 245 765 m 353 762 l 353 762 l 353 775 l 322 775 l 290 775 l 290 726 l 290 679 l 322 679 l 353 679 l 353 692 l 353 704 l 335 704 l 318 704 l 318 708 l 318 714 l 334 714 l 349 714 l 349 726 l 349 739 l 334 739 l 318 739 l 318 745 l 318 749 l 335 749 l 353 749 l 353 762 m 454 771 l 454 771 l 449 775 l 424 775 l 400 775 l 400 728 l 400 679 l 412 679 l 427 679 l 427 694 q 427 706 427 703 q 428 710 427 710 q 432 706 429 710 q 439 694 435 701 l 449 679 l 464 679 q 474 679 469 679 q 479 679 479 679 q 476 685 479 679 q 468 697 472 690 l 457 714 l 461 718 q 465 723 463 721 q 468 728 467 725 q 471 733 471 730 q 471 742 471 736 q 471 751 471 747 q 469 755 471 754 q 454 771 464 765 m 567 774 l 567 774 q 552 775 561 775 q 538 772 543 775 q 515 749 517 765 q 516 738 515 742 q 521 729 517 733 q 549 717 528 721 q 560 714 557 715 q 566 710 564 713 q 566 707 566 708 q 564 705 566 707 q 553 703 559 703 q 543 708 546 704 l 541 711 l 533 710 q 532 710 533 710 q 526 707 529 708 q 521 707 522 707 q 515 704 515 705 q 517 697 514 703 q 541 679 524 684 q 576 684 558 675 q 591 711 595 692 q 558 739 591 733 q 545 749 538 743 q 553 751 547 751 q 561 747 558 751 l 564 745 l 578 747 q 585 749 582 749 q 588 749 587 749 q 589 751 589 750 q 589 753 590 751 q 581 765 587 760 q 567 774 575 771 m 957 768 l 957 768 l 954 775 l 939 775 l 925 775 l 909 728 q 899 694 904 708 q 895 679 895 681 q 899 679 895 679 q 908 679 903 679 l 922 679 l 924 685 l 925 690 l 940 689 l 954 689 l 956 684 l 957 679 l 971 679 q 982 679 979 679 q 985 681 985 679 q 982 688 985 681 q 971 722 978 700 q 962 748 966 736 q 957 766 958 761 q 957 768 957 768 m 1050 741 l 1050 741 l 1050 775 l 1038 775 l 1023 775 l 1023 726 l 1023 679 l 1051 679 l 1079 679 l 1079 692 l 1079 704 l 1065 704 l 1050 704 l 1050 741 m 685 607 l 685 607 q 643 596 661 611 q 627 552 624 576 q 654 515 631 528 q 661 512 659 513 q 666 511 663 511 q 676 511 669 511 q 686 511 682 511 q 691 512 689 511 q 697 515 693 513 q 711 525 704 518 q 721 538 718 532 q 725 568 728 553 q 710 595 721 583 q 685 607 699 604 m 848 559 l 848 559 l 848 608 l 835 608 q 822 607 821 608 q 821 600 821 606 q 821 586 821 595 l 821 567 l 808 586 l 794 607 l 782 607 l 770 607 l 770 558 l 770 511 l 783 511 l 796 511 l 796 532 l 798 554 l 811 532 l 823 511 l 836 511 l 848 511 l 848 559 m 231 578 l 231 578 l 231 607 l 216 607 l 204 607 l 204 572 l 204 538 l 208 532 q 217 520 211 525 q 229 513 222 515 q 243 511 235 511 q 258 513 252 511 q 272 522 265 515 q 279 534 278 528 q 281 541 281 538 q 282 551 282 545 q 282 574 282 558 l 282 607 l 269 607 l 256 607 l 256 578 q 256 553 256 561 q 254 543 256 546 q 250 538 253 541 q 242 536 245 536 q 235 539 239 536 q 232 544 233 541 q 231 554 231 547 q 231 578 231 561 m 380 606 l 380 606 q 366 607 375 607 q 350 606 357 607 q 340 600 345 604 q 332 591 335 596 q 328 587 329 590 q 328 581 328 585 q 329 569 328 572 q 335 561 330 566 q 345 554 339 557 q 363 549 351 551 q 378 542 378 546 q 373 536 378 538 q 363 535 368 534 q 355 541 358 536 l 353 543 l 340 541 q 331 538 335 539 q 326 538 328 538 q 327 534 326 536 q 330 528 328 532 q 334 522 332 525 q 363 511 343 511 q 400 525 389 510 q 404 530 403 528 q 404 536 404 533 q 375 571 407 564 q 357 576 361 574 q 357 582 354 578 q 360 583 358 583 q 366 583 363 583 q 371 583 370 583 q 374 579 372 582 l 376 576 l 389 579 q 398 581 395 581 q 401 582 401 582 q 402 585 403 583 q 400 589 401 586 q 380 606 393 602 m 511 595 l 511 595 l 511 607 l 481 607 l 449 607 l 449 558 l 449 511 l 481 511 l 511 511 l 511 524 l 511 536 l 493 536 l 476 536 l 476 542 l 476 546 l 492 546 l 507 546 l 507 558 l 507 571 l 492 571 l 476 571 l 476 576 l 476 582 l 493 582 l 511 582 l 511 595 m 922 572 l 922 572 l 922 607 l 909 607 l 896 607 l 896 558 l 896 511 l 924 511 l 951 511 l 951 524 l 951 536 l 936 536 l 922 536 l 922 572 m 1002 595 l 1002 595 l 994 607 l 979 607 l 962 607 l 965 604 q 971 594 966 602 q 982 576 975 586 l 996 551 l 996 530 l 996 511 l 1008 511 l 1022 511 l 1022 530 l 1022 551 l 1036 576 q 1048 595 1043 587 q 1053 604 1053 603 l 1054 607 l 1039 607 l 1023 607 l 1017 595 q 1012 585 1014 589 q 1008 582 1010 582 q 1006 585 1008 582 q 1002 595 1004 589 m 673 749 l 673 749 q 699 743 689 754 q 703 717 708 732 q 681 704 694 703 q 661 721 667 705 q 663 737 660 729 q 673 749 667 745 m 205 742 l 205 742 l 205 749 l 212 749 q 220 748 218 749 q 221 743 221 747 q 219 738 221 739 q 212 734 216 736 l 205 734 l 205 742 m 427 742 l 427 742 l 427 749 l 435 749 q 443 748 441 749 q 444 742 444 747 q 433 734 444 734 l 427 734 l 427 742 m 937 729 l 937 729 q 939 736 937 733 q 940 737 940 739 q 942 732 940 737 q 943 726 943 729 l 947 714 l 940 714 l 933 714 l 933 718 q 934 721 933 718 q 936 728 935 724 q 937 729 936 729 m 667 581 l 667 581 q 685 580 676 585 q 697 566 694 575 q 693 545 700 553 q 675 536 686 536 q 657 547 664 536 q 655 567 652 557 q 667 581 659 576 m 195 170 l 195 170 q 212 171 203 172 q 227 165 221 170 q 231 161 229 164 q 235 155 233 158 q 236 151 236 153 q 235 151 236 151 q 232 150 235 150 q 229 151 231 150 q 227 154 228 151 q 209 163 221 163 q 191 155 197 164 q 183 135 182 149 q 193 115 184 121 q 214 113 201 110 q 225 120 221 115 q 229 129 229 125 l 229 132 l 220 132 l 210 132 l 210 136 l 210 140 l 224 140 l 236 140 l 236 122 l 236 106 l 233 106 q 229 107 229 106 q 232 114 229 109 q 233 117 233 117 q 232 118 233 118 q 231 117 232 118 q 228 114 229 115 q 207 104 221 104 q 179 121 189 104 q 177 125 178 123 q 176 129 176 126 q 176 138 176 132 q 176 146 176 143 q 177 150 176 149 q 179 154 178 151 q 195 170 184 165 m 452 168 l 452 168 q 461 171 454 171 l 468 171 l 468 167 l 468 163 l 463 163 q 457 162 458 163 q 454 160 456 161 q 454 156 454 158 q 453 153 453 154 l 453 150 l 458 150 l 464 150 l 464 146 l 464 142 l 457 142 q 451 142 453 142 q 447 140 449 142 q 448 140 447 140 q 450 138 449 139 q 452 135 452 136 q 453 131 453 134 q 453 119 453 127 l 453 106 l 449 106 l 444 106 l 444 123 l 444 142 l 441 142 q 439 142 440 142 q 439 146 439 143 q 439 149 439 149 q 441 150 440 150 q 444 151 444 150 q 444 154 444 151 q 452 168 444 163 m 566 138 l 566 138 l 566 171 l 570 171 l 574 171 l 574 138 l 574 106 l 570 106 l 566 106 l 566 138 m 604 138 l 604 138 l 604 171 l 608 171 l 612 171 l 612 138 l 612 106 l 608 106 l 604 106 l 604 138 m 704 168 l 704 168 q 713 171 707 171 l 720 171 l 720 167 l 720 163 l 714 163 q 709 162 711 163 q 707 160 707 161 q 705 156 705 158 q 704 153 704 154 l 704 150 l 710 150 l 717 150 l 717 146 l 717 142 l 708 142 q 702 142 704 142 q 700 140 700 142 q 699 140 699 140 q 701 138 700 139 q 703 135 703 136 q 704 131 704 134 q 704 119 704 127 l 704 106 l 700 106 l 696 106 l 696 123 l 696 142 l 694 142 q 692 142 692 142 q 692 146 692 143 q 692 149 692 149 q 694 150 692 150 q 696 151 696 150 q 696 154 696 151 q 704 168 696 163 m 342 155 l 342 155 l 342 161 l 346 161 l 350 161 l 350 155 l 350 150 l 355 150 l 359 150 l 359 146 l 359 142 l 353 142 q 347 138 340 142 q 349 136 349 138 q 349 133 349 135 q 350 125 350 131 l 350 114 l 355 113 l 361 113 l 361 109 l 361 106 l 354 106 q 349 106 350 106 q 345 109 347 106 l 342 111 l 342 126 l 342 142 l 339 142 q 336 142 336 142 q 335 146 335 143 q 336 149 335 149 q 339 150 336 150 q 341 150 340 150 q 342 151 342 150 q 342 155 342 153 m 884 155 l 884 155 l 884 161 l 888 161 l 890 161 l 890 155 l 890 150 l 896 150 l 901 150 l 901 146 l 901 142 l 895 142 q 888 142 889 142 q 886 140 886 142 q 887 140 886 140 q 889 138 888 139 q 890 137 889 138 q 890 134 890 136 q 890 127 890 132 q 892 115 890 118 q 897 113 893 113 q 901 113 900 113 q 903 112 903 113 q 903 109 903 111 l 903 106 l 897 106 q 891 106 893 106 q 888 109 889 106 l 884 111 l 884 126 l 884 142 l 880 142 q 878 142 879 142 q 878 146 878 143 q 878 149 878 149 q 880 150 879 150 q 883 150 882 150 q 884 151 884 150 q 884 155 884 153 m 1050 155 l 1050 155 l 1050 161 l 1054 161 l 1059 161 l 1059 155 l 1059 150 l 1063 150 l 1068 150 l 1068 146 l 1068 142 l 1061 142 q 1055 142 1057 142 q 1053 140 1053 142 q 1053 140 1053 140 q 1055 138 1054 139 q 1057 137 1057 138 q 1058 134 1057 136 q 1059 127 1059 132 q 1059 115 1059 118 q 1065 113 1060 113 q 1068 113 1067 113 q 1069 112 1069 113 q 1069 109 1069 111 l 1069 106 l 1064 106 q 1058 106 1060 106 q 1054 109 1055 106 l 1050 111 l 1050 126 l 1050 142 l 1047 142 q 1045 142 1046 142 q 1044 146 1044 143 q 1045 149 1044 149 q 1047 150 1046 150 q 1049 150 1048 150 q 1050 151 1050 150 q 1050 155 1050 153 m 282 149 l 282 149 q 301 146 293 153 q 311 129 310 140 l 311 125 l 293 125 q 280 124 283 125 q 276 122 277 123 q 278 118 275 121 q 287 112 281 113 q 298 115 293 111 q 303 119 301 118 q 308 119 306 119 q 310 118 310 119 q 307 114 310 117 q 301 109 304 111 q 297 106 298 106 q 286 105 292 104 q 277 107 281 106 q 268 129 267 115 q 282 149 269 143 m 297 140 l 297 140 q 287 142 292 143 q 278 136 282 142 q 277 134 278 135 q 277 132 277 132 q 280 132 277 132 q 288 131 283 131 q 297 132 293 131 q 301 132 301 132 q 302 134 302 132 q 300 138 301 136 q 297 140 298 139 m 754 149 l 754 149 q 762 150 758 150 q 771 149 766 150 q 783 126 783 143 q 780 113 783 119 q 770 106 777 107 q 758 104 764 103 q 747 110 751 106 q 741 121 743 114 q 741 135 739 127 q 746 143 742 139 q 754 149 750 147 m 770 140 l 770 140 q 751 138 758 146 q 750 118 745 131 q 759 112 753 113 q 771 114 765 111 q 775 128 775 119 q 770 140 775 136 m 828 149 l 828 149 q 840 149 835 151 q 848 142 846 147 q 850 136 850 140 q 850 122 850 132 l 850 106 l 847 106 l 843 106 l 843 121 q 843 132 843 127 q 842 138 843 136 q 840 140 842 139 q 836 142 839 142 q 828 140 832 143 q 823 135 823 139 q 821 119 822 131 l 821 106 l 817 106 l 814 106 l 814 127 l 814 150 l 818 150 q 821 149 821 150 q 819 144 821 147 q 817 142 818 143 q 817 139 817 140 l 817 136 l 818 139 q 823 145 821 143 q 828 149 825 147 m 991 149 l 991 149 q 997 150 994 150 q 1002 150 999 150 q 1015 144 1011 150 q 1018 126 1018 139 q 1018 119 1018 121 q 1018 115 1018 117 q 1019 114 1018 114 q 1021 111 1021 113 q 1021 107 1022 109 q 1019 106 1021 106 q 1013 113 1015 106 l 1010 117 l 1010 114 q 1006 106 1008 109 q 996 104 1003 104 q 985 109 989 104 q 981 118 981 113 q 989 127 982 123 q 994 130 990 129 q 1002 132 997 131 q 1007 133 1004 132 q 1010 134 1010 134 q 1010 135 1010 134 q 1008 138 1010 136 q 1004 142 1007 140 q 996 142 1000 143 q 990 138 991 142 q 988 136 989 136 q 985 136 987 136 q 982 137 982 136 q 983 142 982 138 q 987 146 985 144 q 991 149 989 147 m 1010 123 l 1010 123 q 1008 126 1010 126 q 1003 125 1007 126 q 1002 125 1003 125 q 994 122 997 123 q 991 120 991 121 q 989 119 990 119 q 989 117 989 118 q 997 111 989 111 q 1006 115 1002 111 q 1010 123 1010 119 m 493 132 l 493 132 l 493 150 l 497 150 l 501 150 l 501 134 q 501 121 501 125 q 502 117 501 118 q 503 114 503 115 q 513 113 507 111 q 521 118 518 114 q 522 124 522 121 q 522 136 522 127 l 524 150 l 526 150 l 530 150 l 530 132 q 530 123 530 126 q 530 117 530 119 q 531 115 530 115 q 533 114 532 114 q 534 111 534 113 q 534 107 534 109 q 533 106 534 106 q 528 108 530 106 q 524 114 525 110 q 522 115 522 115 q 521 111 522 114 q 517 106 519 107 q 510 104 515 104 q 494 111 500 104 q 494 118 494 114 q 493 132 493 122 m 196 49 l 196 49 q 199 50 197 49 q 204 50 201 50 l 210 49 l 210 45 l 210 40 l 204 40 q 198 39 200 40 q 195 37 196 39 q 193 33 193 35 q 192 29 192 32 l 192 25 l 197 25 l 204 25 l 204 20 l 204 16 l 195 16 q 188 16 191 16 q 184 14 184 16 q 185 13 184 14 q 187 11 186 12 l 192 8 l 192 -9 l 192 -28 l 186 -28 l 182 -28 l 182 -7 l 182 16 l 178 16 q 176 16 176 16 q 175 17 175 16 q 175 20 175 18 q 176 24 175 22 q 178 25 176 25 q 180 25 179 25 q 181 26 180 25 q 182 31 182 28 q 196 49 183 46 m 575 36 l 575 36 l 575 50 l 579 50 l 585 50 l 585 17 q 585 1 585 7 q 585 -9 585 -5 q 585 -15 585 -14 q 586 -17 586 -17 q 588 -18 587 -18 q 589 -18 589 -18 q 590 -20 590 -18 q 590 -24 590 -21 q 589 -26 590 -25 q 589 -28 589 -28 q 584 -26 587 -28 q 579 -22 581 -25 l 576 -20 l 572 -24 q 549 -28 561 -32 q 536 -12 539 -22 q 537 9 533 -1 q 550 24 541 20 q 553 26 551 25 q 557 26 555 26 q 567 24 561 26 q 575 17 572 21 q 578 18 583 8 q 576 22 576 20 q 576 27 576 24 q 575 36 575 31 m 568 12 l 568 12 q 561 16 566 16 q 551 14 555 17 q 545 -4 545 8 q 547 -9 546 -7 q 547 -14 547 -12 q 557 -20 551 -18 q 568 -17 562 -21 q 575 -2 575 -11 q 568 12 575 7 m 627 45 l 627 45 l 627 50 l 631 50 l 635 49 l 636 45 l 636 39 l 631 39 l 627 39 l 627 45 m 397 32 l 397 32 l 397 39 l 401 39 l 407 39 l 407 32 l 407 25 l 412 25 l 419 25 l 419 20 l 419 16 l 410 16 q 404 15 406 16 q 401 14 401 14 q 402 12 401 12 q 403 11 403 11 q 404 11 403 11 q 406 9 404 11 q 406 6 406 9 q 407 -4 407 3 q 408 -17 407 -16 q 410 -18 408 -18 q 415 -18 412 -18 l 419 -18 l 419 -24 l 419 -28 l 414 -28 q 404 -26 407 -28 q 400 -22 401 -25 q 398 -15 399 -20 q 397 -1 397 -9 l 397 16 l 395 16 q 393 16 393 16 q 391 17 392 16 q 390 20 390 18 q 391 24 390 22 q 393 25 392 25 q 395 25 393 25 l 397 25 l 397 32 m 1051 32 l 1051 32 l 1051 39 l 1055 39 l 1061 39 l 1061 32 l 1061 25 l 1067 25 l 1072 25 l 1072 20 l 1072 16 l 1064 16 q 1056 15 1057 16 q 1059 11 1054 14 q 1060 8 1060 9 q 1061 4 1060 7 q 1061 -4 1061 1 l 1061 -18 l 1068 -18 l 1074 -18 l 1074 -24 l 1074 -29 l 1067 -28 q 1059 -27 1061 -28 q 1055 -24 1057 -26 l 1051 -21 l 1051 -3 l 1051 16 l 1047 16 q 1045 16 1046 16 q 1044 17 1044 16 q 1044 20 1044 18 q 1044 24 1044 22 q 1045 25 1044 25 q 1047 25 1046 25 l 1051 25 l 1051 32 m 249 25 l 249 25 q 260 25 254 26 q 271 20 267 24 l 273 17 l 273 21 q 274 24 273 24 q 278 25 275 25 l 282 25 l 282 -7 q 282 -26 282 -20 q 282 -35 282 -32 q 281 -40 282 -39 q 279 -43 281 -41 q 277 -46 279 -45 q 273 -49 275 -47 q 270 -51 272 -50 q 264 -52 268 -52 q 254 -52 261 -52 l 239 -52 l 239 -47 l 239 -43 l 252 -43 q 261 -42 257 -43 q 267 -41 265 -41 q 273 -29 273 -37 q 274 -26 273 -28 q 277 -22 275 -24 q 273 -20 281 -12 q 261 -28 268 -25 q 248 -28 254 -31 q 239 -22 243 -26 q 235 -12 236 -17 q 233 -2 233 -8 q 235 8 233 4 q 239 18 236 14 q 249 25 243 22 m 265 14 l 265 14 q 259 16 264 16 q 252 16 254 17 q 243 3 244 12 q 245 -14 241 -5 q 258 -20 250 -21 q 271 -11 265 -20 q 272 1 273 -5 q 265 14 271 8 m 330 25 l 330 25 q 336 25 334 25 q 342 25 339 25 q 358 16 354 25 q 360 9 361 11 q 355 8 359 8 q 350 9 350 8 q 347 15 350 12 q 340 17 343 17 q 331 13 334 17 q 332 7 328 8 q 337 5 334 5 q 345 3 340 4 q 357 -3 354 0 q 361 -12 361 -7 q 361 -18 361 -16 q 358 -22 361 -20 q 337 -29 350 -31 q 319 -18 325 -28 q 318 -11 318 -12 q 322 -9 318 -9 q 327 -10 326 -9 q 328 -12 328 -11 q 328 -14 328 -12 q 332 -17 329 -16 q 334 -19 334 -18 q 337 -20 335 -20 q 342 -20 339 -20 q 348 -19 346 -20 q 350 -17 350 -18 q 352 -15 351 -16 q 353 -12 353 -14 q 338 -5 353 -9 q 330 -3 334 -4 q 325 0 326 -1 q 321 5 322 1 q 319 12 319 8 q 324 20 321 17 q 330 25 328 24 m 689 25 l 689 25 q 705 24 697 26 q 718 14 713 21 q 720 7 720 9 q 721 0 721 4 q 713 -24 722 -16 q 689 -28 701 -32 q 672 -9 676 -24 q 671 1 671 -4 q 673 11 671 7 q 681 20 676 16 q 689 25 685 24 m 703 16 l 703 16 q 692 15 697 17 q 684 9 688 14 q 681 1 681 5 q 681 -8 681 -4 q 694 -20 685 -18 q 710 -12 704 -21 q 712 3 714 -5 q 703 16 710 11 m 768 24 l 768 24 q 786 24 778 28 q 793 19 790 22 q 796 14 796 16 q 797 12 796 12 q 798 9 798 11 q 797 9 798 9 q 793 8 796 8 q 789 9 790 8 q 787 11 787 9 q 781 15 786 14 q 770 15 775 17 q 765 9 765 14 q 767 7 765 8 q 772 5 768 7 q 783 1 775 4 q 793 -2 790 0 q 798 -8 796 -4 q 794 -24 800 -18 q 777 -29 787 -29 q 762 -24 768 -29 q 755 -12 755 -20 q 756 -10 755 -11 q 760 -9 757 -9 q 764 -10 762 -9 q 765 -12 765 -11 q 778 -20 766 -20 q 789 -14 786 -20 q 787 -9 789 -11 q 779 -7 785 -8 q 765 -2 770 -4 q 758 3 761 0 q 756 6 757 4 q 757 11 755 8 q 768 24 757 21 m 901 22 l 901 22 q 906 25 904 24 q 909 26 908 26 q 921 22 916 26 q 928 12 926 18 q 928 5 928 11 q 929 -9 929 -1 l 929 -28 l 924 -28 l 920 -28 l 920 -12 q 919 6 920 0 q 916 14 918 12 q 905 15 911 17 q 897 8 900 14 q 895 5 896 7 q 895 -1 895 3 q 895 -11 895 -4 l 893 -28 l 889 -28 l 885 -28 l 885 -1 l 885 25 l 889 25 q 893 24 892 25 q 895 22 895 24 q 893 21 895 22 q 892 18 892 20 q 889 12 889 16 q 889 10 889 9 q 892 16 889 11 q 901 22 896 20 m 983 25 l 983 25 q 996 25 989 26 q 1007 18 1003 24 q 1013 11 1011 16 q 1015 1 1014 7 l 1015 -5 l 994 -5 q 983 -5 987 -5 q 977 -5 979 -5 q 975 -6 975 -5 q 974 -7 974 -7 q 977 -13 974 -9 q 982 -18 979 -16 q 992 -20 986 -21 q 1003 -14 999 -18 q 1004 -12 1003 -12 q 1008 -11 1006 -11 q 1013 -12 1013 -11 q 1011 -18 1014 -14 q 997 -28 1006 -25 q 981 -28 989 -31 q 964 -1 964 -21 q 983 25 965 20 m 997 14 l 997 14 q 990 16 994 16 q 983 16 986 17 q 978 11 981 14 q 975 5 975 8 l 974 3 l 989 3 q 999 3 996 3 q 1004 3 1003 3 q 1004 5 1004 4 q 1002 9 1004 7 q 997 14 1000 12 m 454 5 l 454 5 l 454 25 l 458 25 l 463 25 l 463 5 q 463 -5 463 -1 q 463 -12 463 -9 q 464 -15 464 -14 q 465 -17 464 -16 q 476 -20 469 -21 q 485 -12 482 -18 q 487 -9 486 -11 q 488 -3 488 -7 q 488 8 488 1 l 489 25 l 493 25 l 497 25 l 497 5 l 497 -16 l 500 -17 q 502 -20 501 -18 q 503 -24 503 -21 q 501 -28 503 -28 q 495 -26 498 -28 q 490 -20 492 -24 q 488 -18 489 -17 q 486 -24 486 -18 q 480 -28 485 -26 q 471 -29 476 -29 q 461 -26 465 -29 q 458 -24 460 -25 q 456 -20 457 -22 q 455 -15 456 -18 q 454 -8 454 -12 q 454 5 454 -4 m 627 -1 l 627 -1 l 627 25 l 631 25 l 635 24 l 636 -1 l 636 -28 l 631 -28 l 627 -28 l 627 -1 m 836 -17 l 836 -17 q 838 -16 836 -16 q 842 -16 840 -16 l 847 -16 l 847 -22 l 847 -28 l 842 -28 l 835 -28 l 835 -22 q 836 -18 835 -20 q 836 -17 836 -17 z "},"\u0000":{"ha":0,"x_min":0,"x_max":0,"o":""}," ":{"ha":518,"x_min":0,"x_max":0,"o":""},"":{"ha":518,"x_min":0,"x_max":0,"o":""},"!":{"ha":279,"x_min":39,"x_max":237,"o":"m 89 262 l 89 880 l 65 907 l 199 949 l 199 300 l 212 262 l 89 262 m 139 0 q 68 28 97 0 q 39 97 39 57 q 68 165 39 138 q 139 193 97 193 q 208 165 179 193 q 237 97 237 138 q 208 28 237 57 q 139 0 179 0 z "},"\"":{"ha":496,"x_min":29,"x_max":465,"o":"m 364 954 q 411 944 392 954 q 443 916 431 933 q 460 877 454 899 q 465 831 465 854 q 417 681 465 745 q 302 568 370 616 l 256 624 q 333 706 314 675 q 351 754 351 737 q 350 764 351 761 q 290 795 314 768 q 265 859 265 822 q 294 926 265 899 q 364 954 323 954 m 138 954 q 185 944 165 954 q 216 916 204 933 q 233 877 228 899 q 239 831 239 854 q 191 681 239 745 q 77 568 143 616 l 29 624 q 61 651 45 636 q 93 685 78 667 q 116 722 107 703 q 125 764 125 742 q 63 795 87 768 q 39 859 39 822 q 68 926 39 899 q 138 954 97 954 z "},"#":{"ha":665,"x_min":39,"x_max":628,"o":"m 555 654 l 628 654 l 628 549 l 555 549 l 555 311 l 628 311 l 628 207 l 555 207 l 555 37 l 446 37 l 446 207 l 221 207 l 221 37 l 110 37 l 110 207 l 39 207 l 39 311 l 110 311 l 110 549 l 39 549 l 39 654 l 110 654 l 110 823 l 221 823 l 221 654 l 446 654 l 446 823 l 555 823 l 555 654 m 446 549 l 221 549 l 221 311 l 446 311 l 446 549 z "},"$":{"ha":707,"x_min":5,"x_max":701,"o":"m 411 564 q 511 519 460 543 q 605 459 562 494 q 674 374 647 424 q 701 256 701 325 q 673 119 701 180 q 596 13 644 57 q 485 -57 549 -32 q 409 -77 448 -71 l 409 -233 l 299 -233 l 299 -79 q 228 -64 264 -75 q 117 -8 167 -45 q 37 79 68 28 q 5 197 5 131 q 12 256 5 221 l 12 257 q 44 323 21 293 q 98 377 66 354 q 168 413 129 400 q 249 427 207 427 l 252 427 q 356 399 310 425 q 428 328 401 374 l 428 326 q 446 253 446 292 q 425 178 446 212 q 363 126 404 143 q 329 119 349 119 q 272 141 297 121 q 248 195 248 161 q 269 244 248 222 q 323 268 290 267 l 321 278 q 286 310 306 302 q 250 319 267 318 q 162 284 197 319 q 126 197 126 249 q 147 124 126 155 q 201 71 168 93 q 273 38 233 49 q 349 26 313 26 q 409 35 368 26 q 490 71 450 43 q 581 256 581 129 q 566 327 581 297 q 523 380 551 357 q 454 424 494 404 q 364 465 414 444 q 266 510 315 486 q 177 566 216 533 q 113 644 138 599 q 87 753 87 689 q 113 850 87 807 q 177 922 138 893 q 266 968 216 951 q 299 977 282 972 l 299 1131 l 409 1131 l 409 979 q 439 972 423 977 q 511 937 478 960 q 567 879 545 914 q 590 798 590 844 l 590 787 q 589 775 590 782 q 560 720 587 742 q 501 699 533 699 q 440 721 467 699 q 414 779 414 743 q 449 844 414 818 q 367 876 412 876 l 366 876 q 311 868 339 876 q 261 845 283 860 q 224 806 239 829 q 210 753 210 782 q 223 690 210 717 q 264 642 237 664 q 327 603 290 621 q 411 564 364 585 z "},"%":{"ha":1160,"x_min":32,"x_max":1129,"o":"m 821 942 l 471 43 l 469 0 l 339 0 l 694 911 l 699 942 l 821 942 m 528 653 q 510 535 528 589 q 459 444 492 482 q 381 385 427 406 q 279 364 335 364 q 179 385 225 364 q 101 444 134 406 q 50 535 68 482 q 32 653 32 589 q 50 769 32 717 q 101 860 68 822 q 179 919 134 899 q 279 940 225 940 q 381 919 335 940 q 459 860 427 899 q 510 769 492 822 q 528 653 528 717 m 279 468 q 384 517 346 468 q 422 653 422 567 q 384 787 422 737 q 279 836 346 836 q 176 787 214 836 q 138 653 138 737 q 176 517 138 567 q 279 468 214 468 m 880 576 q 980 555 935 576 q 1060 496 1026 534 q 1111 406 1093 458 q 1129 289 1129 353 q 1111 172 1129 225 q 1060 80 1093 118 q 980 21 1026 41 q 880 0 935 0 q 781 21 827 0 q 702 80 734 41 q 651 172 669 118 q 633 289 633 225 q 651 406 633 353 q 702 496 669 458 q 781 555 734 534 q 880 576 827 576 m 880 104 q 985 154 947 104 q 1022 289 1022 203 q 985 423 1022 374 q 880 472 947 472 q 777 423 814 472 q 739 289 739 374 q 777 156 739 204 q 880 104 815 107 z "},"&":{"ha":945,"x_min":28,"x_max":912,"o":"m 833 269 q 801 275 816 269 q 776 291 787 281 q 759 316 765 302 q 752 347 752 330 q 752 352 752 349 q 753 358 752 355 q 723 336 737 352 q 695 303 710 322 q 663 261 680 285 q 648 242 655 252 q 632 221 641 232 q 692 155 666 183 q 737 109 718 127 q 765 88 755 93 q 829 132 784 132 q 854 127 842 132 q 875 113 866 122 q 890 93 884 104 q 895 67 895 81 q 884 32 895 47 q 854 4 872 16 q 817 -13 837 -7 q 779 -20 796 -20 l 776 -20 q 713 -5 742 -20 q 661 33 684 11 q 617 78 642 52 q 563 137 592 104 q 500 70 534 104 q 429 9 467 36 q 348 -35 391 -18 q 258 -52 306 -52 l 256 -52 q 164 -33 205 -51 q 92 15 122 -16 q 45 88 62 46 q 28 180 28 130 q 50 286 28 239 q 109 378 71 334 q 172 451 141 417 q 234 517 203 486 q 211 544 222 531 q 189 570 199 557 q 111 756 111 664 q 127 841 111 802 q 173 910 144 881 q 242 956 203 939 q 328 973 282 973 q 409 958 372 973 q 473 917 446 943 q 516 853 500 890 q 531 774 531 817 q 486 639 531 707 q 380 513 438 573 l 404 486 q 482 395 444 439 q 559 304 519 351 q 564 311 562 308 l 568 316 q 574 323 571 319 l 573 323 q 575 325 574 323 q 642 408 610 372 q 699 450 667 435 q 767 465 731 465 q 818 457 793 465 q 864 434 844 449 q 898 396 885 418 q 912 347 911 374 q 906 316 912 330 q 889 291 899 302 q 864 275 878 281 q 833 269 849 269 m 228 756 q 277 640 228 699 q 294 618 286 628 q 312 595 302 608 q 393 699 356 645 q 417 774 417 736 q 411 811 417 794 q 393 841 405 829 q 366 861 382 854 q 330 868 350 868 q 289 859 307 868 q 257 835 270 850 q 236 800 243 820 q 228 756 228 779 m 490 218 q 407 317 448 267 q 323 418 366 367 q 320 421 321 420 q 318 423 319 422 q 314 428 315 426 l 313 430 q 309 435 311 432 q 254 375 282 406 q 199 311 227 345 q 157 240 169 273 q 146 178 146 207 q 148 155 146 168 q 155 129 151 142 q 165 105 159 117 q 180 87 172 94 q 265 54 211 54 l 270 54 q 331 72 300 54 q 391 114 362 89 q 446 168 420 140 q 490 218 472 196 z "},"'":{"ha":271,"x_min":29,"x_max":239,"o":"m 138 954 q 185 944 165 954 q 216 916 204 933 q 233 877 228 899 q 239 831 239 854 q 191 681 239 745 q 77 568 143 616 l 29 624 q 61 651 45 636 q 93 685 78 667 q 116 722 107 703 q 125 764 125 742 q 63 795 87 768 q 39 859 39 822 q 68 926 39 899 q 138 954 97 954 z "},"(":{"ha":277,"x_min":46,"x_max":258,"o":"m 258 1013 q 170 431 170 724 q 258 -151 170 138 l 149 -151 q 46 431 46 142 q 149 1013 46 720 l 258 1013 z "},")":{"ha":275,"x_min":18,"x_max":231,"o":"m 127 1013 q 231 431 231 720 q 127 -151 231 142 l 18 -151 q 107 431 107 138 q 18 1013 107 724 l 127 1013 z "},"*":{"ha":508,"x_min":34,"x_max":478,"o":"m 292 585 l 311 421 l 201 421 l 220 586 l 98 474 l 34 564 l 199 656 l 34 749 l 98 838 l 220 725 l 201 890 l 311 890 l 292 726 l 414 838 l 478 749 l 313 656 l 478 564 l 414 474 l 292 585 z "},"+":{"ha":498,"x_min":28,"x_max":471,"o":"m 304 482 l 471 482 l 471 378 l 304 378 l 304 211 l 195 211 l 195 378 l 28 378 l 28 482 l 195 482 l 195 648 l 304 648 l 304 482 z "},",":{"ha":254,"x_min":17,"x_max":227,"o":"m 125 193 q 172 183 153 193 q 203 155 192 172 q 221 115 215 138 q 227 69 227 93 q 179 -81 227 -17 q 64 -193 132 -144 l 17 -138 q 48 -110 32 -125 q 79 -76 65 -94 q 103 -39 93 -58 q 113 1 113 -20 q 51 34 75 7 q 26 97 26 61 q 56 165 26 138 q 125 193 85 193 z "},"-":{"ha":406,"x_min":22,"x_max":385,"o":"m 22 378 l 22 482 l 385 482 l 385 378 l 22 378 z "},"":{"ha":406,"x_min":22,"x_max":385,"o":"m 22 378 l 22 482 l 385 482 l 385 378 l 22 378 z "},".":{"ha":254,"x_min":28,"x_max":227,"o":"m 127 0 q 57 28 86 0 q 28 97 28 57 q 57 165 28 138 q 127 193 86 193 q 197 165 168 193 q 227 97 227 138 q 197 28 227 57 q 127 0 168 0 z "},"/":{"ha":503,"x_min":-1,"x_max":481,"o":"m 366 1013 l 481 1013 l 114 -151 l -1 -151 l 366 1013 z "},":":{"ha":268,"x_min":35,"x_max":233,"o":"m 135 468 q 64 496 93 468 q 35 566 35 525 q 64 633 35 606 q 135 661 94 661 q 204 633 175 661 q 233 566 233 606 q 204 496 233 525 q 135 468 175 468 m 135 193 q 204 165 175 193 q 233 97 233 138 q 204 28 233 57 q 135 0 175 0 q 64 28 93 0 q 35 97 35 57 q 64 165 35 138 q 135 193 93 193 z "},";":{"ha":272,"x_min":28,"x_max":237,"o":"m 134 468 q 62 496 92 468 q 33 566 33 525 q 63 633 33 606 q 134 661 93 661 q 202 633 174 661 q 232 566 231 604 q 203 496 232 524 q 134 468 174 468 m 136 193 q 185 183 165 193 q 216 155 204 172 q 233 115 228 138 q 237 69 237 93 q 190 -81 237 -17 q 75 -193 142 -144 l 28 -138 q 60 -110 43 -125 q 91 -76 77 -94 q 114 -39 104 -58 q 123 1 123 -20 q 62 34 86 7 q 37 97 37 61 q 66 165 37 138 q 136 193 96 193 z "},"<":{"ha":536,"x_min":29,"x_max":501,"o":"m 29 526 l 501 689 l 501 578 l 155 458 q 304 349 215 404 q 501 241 393 294 l 501 138 q 340 198 422 154 q 187 292 257 243 q 29 414 106 347 l 29 526 z "},"=":{"ha":446,"x_min":29,"x_max":416,"o":"m 29 496 l 29 600 l 416 600 l 416 496 l 29 496 m 29 261 l 29 366 l 416 366 l 416 261 l 29 261 z "},">":{"ha":536,"x_min":35,"x_max":507,"o":"m 35 689 q 115 665 74 681 q 196 628 155 648 q 276 583 237 607 q 349 534 314 558 q 507 412 431 479 l 507 300 l 35 138 l 35 249 l 382 368 q 232 477 321 422 q 35 585 143 532 l 35 689 z "},"?":{"ha":660,"x_min":24,"x_max":632,"o":"m 323 965 q 439 946 383 965 q 537 890 494 926 q 606 803 581 854 q 632 688 632 751 q 615 589 632 629 q 570 521 597 549 q 508 474 542 493 q 443 439 475 454 q 359 386 387 411 q 330 311 330 361 l 330 262 l 222 262 l 222 311 q 238 392 222 358 q 279 451 254 427 q 334 492 304 475 q 393 524 364 510 q 445 551 421 538 q 485 582 468 564 q 513 625 503 600 q 524 688 524 650 q 508 765 524 732 q 464 820 492 798 q 400 856 436 843 q 323 869 364 868 q 261 861 294 869 q 199 836 228 852 q 152 794 171 819 q 132 734 132 770 q 164 666 132 692 q 237 640 196 640 q 263 645 249 642 q 289 661 278 648 q 242 686 261 667 q 222 733 222 705 q 247 785 222 764 q 302 807 271 806 q 358 786 338 807 q 396 742 383 768 q 410 688 410 715 q 393 628 410 657 l 393 627 q 330 567 370 587 q 239 545 290 546 l 237 545 q 168 556 201 545 q 106 586 134 567 q 58 630 78 604 q 31 686 39 656 l 29 686 q 24 736 24 708 q 52 835 24 793 q 124 907 81 878 q 222 950 168 936 q 323 965 275 965 m 282 193 q 351 165 322 193 q 380 97 380 138 q 351 28 380 57 q 282 0 322 0 q 212 28 241 0 q 182 97 183 56 q 212 165 183 138 q 282 193 241 193 z "},"@":{"ha":1231,"x_min":37,"x_max":1185,"o":"m 1168 516 q 1185 367 1185 437 q 1183 317 1185 346 q 1175 250 1180 288 q 1155 173 1169 213 q 1118 95 1140 132 q 1068 26 1097 58 q 1006 -23 1040 -5 q 959 -41 985 -35 q 909 -47 933 -47 q 827 -25 867 -47 q 795 -2 810 -17 q 767 36 780 13 q 747 92 755 60 q 737 167 739 124 l 737 346 q 727 411 737 376 q 697 475 717 446 q 648 523 677 504 q 582 542 619 542 q 517 527 545 542 q 473 487 490 511 q 447 430 455 462 q 438 365 438 398 q 467 230 438 275 q 551 182 496 184 q 557 183 554 182 q 564 183 560 183 q 563 190 563 186 q 563 195 563 193 q 569 227 563 212 q 586 253 575 241 q 611 270 597 264 q 641 277 625 277 q 673 270 659 277 q 698 253 688 264 q 714 227 708 241 q 720 195 720 212 q 705 147 720 171 q 635 92 677 110 q 548 74 593 74 q 471 87 516 74 q 380 154 422 100 q 335 255 347 201 q 323 365 323 310 q 341 474 323 422 q 391 566 358 526 q 472 628 425 605 q 582 651 520 651 q 666 636 627 651 q 737 597 705 622 l 737 657 l 869 605 l 852 577 l 852 578 l 852 175 q 854 141 852 161 q 862 104 856 121 q 879 75 867 87 q 911 62 890 62 q 955 75 935 62 q 991 109 975 88 q 1021 156 1008 130 q 1042 210 1034 182 q 1057 261 1051 237 q 1065 304 1063 286 q 1068 336 1067 320 q 1069 369 1069 353 q 1066 429 1069 399 q 1056 490 1063 459 q 902 735 1017 652 q 601 818 787 818 q 419 784 501 818 q 277 690 336 751 q 186 545 218 629 q 153 357 153 460 q 163 263 153 310 q 192 174 173 217 q 239 92 212 131 q 302 20 267 53 q 362 -23 328 -4 q 432 -56 395 -42 q 508 -76 469 -69 q 582 -83 547 -83 q 614 -82 597 -83 q 651 -79 631 -81 l 615 -186 q 596 -187 606 -187 q 576 -187 585 -187 q 419 -166 494 -187 q 282 -104 345 -144 q 170 -4 220 -63 q 87 130 120 55 q 37 357 37 239 q 79 589 37 484 q 195 769 120 694 q 373 886 270 844 q 601 928 477 928 q 798 903 705 928 q 963 827 890 878 q 1089 699 1037 777 q 1168 516 1142 621 z "}}}
